<?xml version="1.0" encoding="UTF-8" standalone="no"?>
<!-- Created with Inkscape (http://www.inkscape.org/) -->

<svg
   width="101.6mm"
   height="128.5mm"
   viewBox="0 0 101.60001 128.50002"
   version="1.1"
   id="svg8"
   inkscape:version="1.4.2 (ebf0e940, 2025-05-08)"
   sodipodi:docname="BasicModule2.svg"
   xmlns:inkscape="http://www.inkscape.org/namespaces/inkscape"
   xmlns:sodipodi="http://sodipodi.sourceforge.net/DTD/sodipodi-0.dtd"
   xmlns="http://www.w3.org/2000/svg"
   xmlns:svg="http://www.w3.org/2000/svg"
   xmlns:rdf="http://www.w3.org/1999/02/22-rdf-syntax-ns#"
   xmlns:cc="http://creativecommons.org/ns#"
   xmlns:dc="http://purl.org/dc/elements/1.1/">
  <defs
     id="defs2">
    <rect
       x="155.56349"
       y="156.57364"
       width="406.08133"
       height="56.568542"
       id="rect1" />
  </defs>
  <sodipodi:namedview
     id="base"
     pagecolor="#ffffff"
     bordercolor="#666666"
     borderopacity="1.0"
     inkscape:pageopacity="0.0"
     inkscape:pageshadow="2"
     inkscape:zoom="0.98994949"
     inkscape:cx="70.205602"
     inkscape:cy="229.30463"
     inkscape:document-units="mm"
     inkscape:current-layer="layer2"
     showgrid="false"
     units="mm"
     inkscape:snap-bbox="true"
     inkscape:snap-page="true"
     inkscape:bbox-nodes="false"
     inkscape:snap-bbox-edge-midpoints="false"
     inkscape:window-width="1512"
     inkscape:window-height="945"
     inkscape:window-x="1920"
     inkscape:window-y="325"
     inkscape:window-maximized="0"
     inkscape:snap-bbox-midpoints="true"
     inkscape:snap-nodes="false"
     inkscape:showpageshadow="2"
     inkscape:pagecheckerboard="0"
     inkscape:deskcolor="#d1d1d1" />
  <metadata
     id="metadata5">
    <rdf:RDF>
      <cc:Work
         rdf:about="">
        <dc:format>image/svg+xml</dc:format>
        <dc:type
           rdf:resource="http://purl.org/dc/dcmitype/StillImage" />
      </cc:Work>
    </rdf:RDF>
  </metadata>
  <g
     inkscape:label="Layer 1"
     inkscape:groupmode="layer"
     id="layer1"
     transform="translate(0,-168.49998)">
    <rect
       style="display:inline;opacity:1;vector-effect:none;fill:#e6e6e6;fill-opacity:1;fill-rule:evenodd;stroke:none;stroke-width:1.18852;stroke-linecap:butt;stroke-linejoin:miter;stroke-miterlimit:4;stroke-dasharray:none;stroke-dashoffset:0;stroke-opacity:1;paint-order:normal"
       id="rect420"
       width="102.10823"
       height="128.5"
       x="5.9211732e-17"
       y="168.49997"
       inkscape:label="background" />
    <g
       aria-label="Pitch"
       style="font-style:normal;font-variant:normal;font-weight:300;font-stretch:normal;font-size:4.93889px;line-height:6.61458px;font-family:'Gotham Rounded';-inkscape-font-specification:'Gotham Rounded Light';font-variant-ligatures:normal;font-variant-caps:normal;font-variant-numeric:normal;font-feature-settings:normal;text-align:center;letter-spacing:0px;word-spacing:0px;writing-mode:lr-tb;text-anchor:middle;display:inline;fill:#000000;fill-opacity:1;stroke:none;stroke-width:0.264583px;stroke-linecap:butt;stroke-linejoin:miter;stroke-opacity:1"
       id="text4944"
       transform="translate(0,10.583334)"
       inkscape:label="pitch text">
      <path
         d="m 10.377818,215.46915 c 0,0.0593 0.0508,0.11007 0.110067,0.11007 0.05927,0 0.110067,-0.0508 0.110067,-0.11007 v -1.01176 h 0.8001 c 0.618066,0 1.155699,-0.32174 1.155699,-0.94404 v -0.008 c 0,-0.5715 -0.448733,-0.90594 -1.100666,-0.90594 h -0.9652 c -0.05927,0 -0.110067,0.0508 -0.110067,0.11007 z m 0.220134,-1.21496 v -1.45204 h 0.8382 c 0.533399,0 0.897466,0.24554 0.897466,0.71544 v 0.008 c 0,0.44027 -0.372533,0.72814 -0.922866,0.72814 z"
         style="font-style:normal;font-variant:normal;font-weight:300;font-stretch:normal;font-size:4.23333px;font-family:'Gotham Rounded';-inkscape-font-specification:'Gotham Rounded Light';text-align:center;text-anchor:middle;stroke-width:0.264583px"
         id="path5046"
         inkscape:connector-curvature="0" />
      <path
         d="m 13.163219,212.73442 c 0,0.072 0.05503,0.127 0.127,0.127 0.07197,0 0.131233,-0.055 0.131233,-0.127 v -0.072 c 0,-0.072 -0.05927,-0.127 -0.131233,-0.127 -0.07197,0 -0.127,0.055 -0.127,0.127 z m 0.0254,2.73897 c 0,0.0635 0.04657,0.10583 0.105833,0.10583 0.05927,0 0.1016,-0.0423 0.1016,-0.10583 v -1.9812 c 0,-0.0635 -0.04657,-0.10584 -0.105833,-0.10584 -0.05927,0 -0.1016,0.0466 -0.1016,0.10584 z"
         style="font-style:normal;font-variant:normal;font-weight:300;font-stretch:normal;font-size:4.23333px;font-family:'Gotham Rounded';-inkscape-font-specification:'Gotham Rounded Light';text-align:center;text-anchor:middle;stroke-width:0.264583px"
         id="path5048"
         inkscape:connector-curvature="0" />
      <path
         d="m 14.928717,215.60039 c 0.122767,0 0.220134,-0.0254 0.3048,-0.055 0.04233,-0.0169 0.06773,-0.0466 0.06773,-0.0889 0,-0.0508 -0.04657,-0.0931 -0.09313,-0.0931 -0.02963,0 -0.09737,0.0423 -0.245533,0.0423 -0.249767,0 -0.4318,-0.11006 -0.4318,-0.4191 v -1.39276 h 0.677333 c 0.0508,0 0.09737,-0.0423 0.09737,-0.0931 0,-0.0508 -0.04657,-0.0974 -0.09737,-0.0974 h -0.677333 v -0.60114 c 0,-0.0593 -0.04657,-0.10583 -0.105833,-0.10583 -0.05927,0 -0.1016,0.0466 -0.1016,0.10583 v 0.60114 h -0.232833 c -0.0508,0 -0.09737,0.0423 -0.09737,0.0931 0,0.0508 0.04657,0.0974 0.09737,0.0974 h 0.232833 v 1.41393 c 0,0.41063 0.270933,0.59267 0.605366,0.59267 z"
         style="font-style:normal;font-variant:normal;font-weight:300;font-stretch:normal;font-size:4.23333px;font-family:'Gotham Rounded';-inkscape-font-specification:'Gotham Rounded Light';text-align:center;text-anchor:middle;stroke-width:0.264583px"
         id="path5050"
         inkscape:connector-curvature="0" />
      <path
         d="m 16.790392,215.61309 c 0.3683,0 0.618067,-0.1524 0.833967,-0.37254 0.01693,-0.0169 0.0254,-0.0423 0.0254,-0.0635 0,-0.0508 -0.0508,-0.1016 -0.1016,-0.1016 -0.02963,0 -0.0508,0.0169 -0.06773,0.0339 -0.173566,0.17357 -0.397933,0.30903 -0.677333,0.30903 -0.4953,0 -0.889,-0.41486 -0.889,-0.93556 v -0.008 c 0,-0.51647 0.381,-0.9271 0.872067,-0.9271 0.2921,0 0.4953,0.1397 0.668866,0.3048 0.01693,0.0169 0.04657,0.0254 0.07197,0.0254 0.05927,0 0.105833,-0.0466 0.105833,-0.10583 0,-0.0296 -0.0127,-0.0593 -0.02963,-0.0762 -0.194733,-0.18204 -0.440267,-0.3429 -0.8128,-0.3429 -0.618067,0 -1.100667,0.52493 -1.100667,1.1303 v 0.008 c 0,0.60537 0.478367,1.12184 1.100667,1.12184 z"
         style="font-style:normal;font-variant:normal;font-weight:300;font-stretch:normal;font-size:4.23333px;font-family:'Gotham Rounded';-inkscape-font-specification:'Gotham Rounded Light';text-align:center;text-anchor:middle;stroke-width:0.264583px"
         id="path5052"
         inkscape:connector-curvature="0" />
      <path
         d="m 18.252215,215.47339 c 0,0.0635 0.04657,0.10583 0.105833,0.10583 0.05927,0 0.1016,-0.0423 0.1016,-0.10583 v -1.15994 c 0,-0.44873 0.325967,-0.77046 0.7493,-0.77046 0.436033,0 0.6858,0.2921 0.6858,0.7366 v 1.1938 c 0,0.0635 0.04657,0.10583 0.105833,0.10583 0.05927,0 0.1016,-0.0423 0.1016,-0.10583 v -1.2319 c 0,-0.51647 -0.3175,-0.889 -0.8636,-0.889 -0.3937,0 -0.635,0.19896 -0.778933,0.45296 v -1.2446 c 0,-0.0593 -0.04657,-0.10583 -0.105833,-0.10583 -0.05927,0 -0.1016,0.0466 -0.1016,0.10583 z"
         style="font-style:normal;font-variant:normal;font-weight:300;font-stretch:normal;font-size:4.23333px;font-family:'Gotham Rounded';-inkscape-font-specification:'Gotham Rounded Light';text-align:center;text-anchor:middle;stroke-width:0.264583px"
         id="path5054"
         inkscape:connector-curvature="0" />
    </g>
    <g
       aria-label="1V/oct"
       style="font-style:normal;font-variant:normal;font-weight:300;font-stretch:normal;font-size:4.93889px;line-height:6.61458px;font-family:'Gotham Rounded';-inkscape-font-specification:'Gotham Rounded Light';font-variant-ligatures:normal;font-variant-caps:normal;font-variant-numeric:normal;font-feature-settings:normal;text-align:center;letter-spacing:0px;word-spacing:0px;writing-mode:lr-tb;text-anchor:middle;display:inline;fill:#000000;fill-opacity:1;stroke:none;stroke-width:0.264583px;stroke-linecap:butt;stroke-linejoin:miter;stroke-opacity:1"
       id="text4948"
       transform="translate(0,5.2916669)"
       inkscape:label="1v oct text">
      <path
         d="m 9.6908279,252.06539 c 0,0.0593 0.0508,0.11007 0.1100667,0.11007 0.059267,0 0.1058333,-0.0508 0.1058333,-0.11007 v -2.794 c 0,-0.055 -0.0381,-0.10583 -0.1058333,-0.10583 h -0.00847 c -0.046567,0 -0.0889,0.0127 -0.1354666,0.0296 l -0.5164667,0.1905 c -0.046567,0.0169 -0.080433,0.0423 -0.080433,0.0931 0,0.0508 0.042333,0.0931 0.093133,0.0931 0.016933,0 0.033867,-0.004 0.055033,-0.0127 l 0.4826,-0.1651 z"
         style="font-style:normal;font-variant:normal;font-weight:300;font-stretch:normal;font-size:4.23333px;font-family:'Gotham Rounded';-inkscape-font-specification:'Gotham Rounded Light';text-align:center;text-anchor:middle;stroke-width:0.264583px"
         id="path5057"
         inkscape:connector-curvature="0" />
      <path
         d="m 11.938463,252.18816 h 0.0085 c 0.06773,0 0.105833,-0.0381 0.131233,-0.0974 l 1.210733,-2.7686 c 0.0085,-0.0169 0.0085,-0.0254 0.0085,-0.0423 0,-0.0508 -0.04657,-0.1016 -0.105833,-0.1016 -0.0508,0 -0.0889,0.0381 -0.110067,0.0847 l -1.134533,2.65854 -1.1303,-2.6543 c -0.02117,-0.0508 -0.05927,-0.0889 -0.1143,-0.0889 -0.0635,0 -0.110067,0.055 -0.110067,0.10583 0,0.0212 0,0.0296 0.0085,0.0466 l 1.2065,2.76013 c 0.0254,0.0593 0.0635,0.0974 0.131233,0.0974 z"
         style="font-style:normal;font-variant:normal;font-weight:300;font-stretch:normal;font-size:4.23333px;font-family:'Gotham Rounded';-inkscape-font-specification:'Gotham Rounded Light';text-align:center;text-anchor:middle;stroke-width:0.264583px"
         id="path5059"
         inkscape:connector-curvature="0" />
      <path
         d="m 13.000435,252.62842 c 0,0.0508 0.0381,0.0889 0.0889,0.0889 0.04233,0 0.07197,-0.0254 0.0889,-0.0593 l 1.913466,-3.75074 c 0.0085,-0.0169 0.0127,-0.0381 0.0127,-0.055 0,-0.0508 -0.0381,-0.0889 -0.0889,-0.0889 -0.04233,0 -0.07197,0.0254 -0.0889,0.0593 l -1.913466,3.75073 c -0.0085,0.0169 -0.0127,0.0381 -0.0127,0.055 z"
         style="font-style:normal;font-variant:normal;font-weight:300;font-stretch:normal;font-size:4.23333px;font-family:'Gotham Rounded';-inkscape-font-specification:'Gotham Rounded Light';text-align:center;text-anchor:middle;stroke-width:0.264583px"
         id="path5061"
         inkscape:connector-curvature="0" />
      <path
         d="m 16.153937,252.20932 c 0.643467,0 1.113367,-0.52493 1.113367,-1.1303 v -0.008 c 0,-0.60537 -0.465667,-1.12184 -1.1049,-1.12184 -0.643467,0 -1.113367,0.52494 -1.113367,1.1303 v 0.008 c 0,0.60537 0.465667,1.12183 1.1049,1.12183 z m 0.0085,-0.19473 c -0.499534,0 -0.889,-0.41487 -0.889,-0.93557 v -0.008 c 0,-0.508 0.3683,-0.9271 0.880533,-0.9271 0.499533,0 0.889,0.41486 0.889,0.93556 v 0.008 c 0,0.508 -0.3683,0.9271 -0.880533,0.9271 z"
         style="font-style:normal;font-variant:normal;font-weight:300;font-stretch:normal;font-size:4.23333px;font-family:'Gotham Rounded';-inkscape-font-specification:'Gotham Rounded Light';text-align:center;text-anchor:middle;stroke-width:0.264583px"
         id="path5063"
         inkscape:connector-curvature="0" />
      <path
         d="m 18.861683,252.20932 c 0.3683,0 0.618066,-0.1524 0.833966,-0.37253 0.01693,-0.0169 0.0254,-0.0423 0.0254,-0.0635 0,-0.0508 -0.0508,-0.1016 -0.1016,-0.1016 -0.02963,0 -0.0508,0.0169 -0.06773,0.0339 -0.173567,0.17356 -0.397933,0.30903 -0.677333,0.30903 -0.4953,0 -0.889,-0.41487 -0.889,-0.93557 v -0.008 c 0,-0.51647 0.381,-0.9271 0.872066,-0.9271 0.2921,0 0.4953,0.1397 0.668867,0.3048 0.01693,0.0169 0.04657,0.0254 0.07197,0.0254 0.05927,0 0.105834,-0.0466 0.105834,-0.10584 0,-0.0296 -0.0127,-0.0593 -0.02963,-0.0762 -0.194733,-0.18203 -0.440266,-0.3429 -0.812799,-0.3429 -0.618067,0 -1.100667,0.52494 -1.100667,1.1303 v 0.008 c 0,0.60537 0.478367,1.12183 1.100667,1.12183 z"
         style="font-style:normal;font-variant:normal;font-weight:300;font-stretch:normal;font-size:4.23333px;font-family:'Gotham Rounded';-inkscape-font-specification:'Gotham Rounded Light';text-align:center;text-anchor:middle;stroke-width:0.264583px"
         id="path5065"
         inkscape:connector-curvature="0" />
      <path
         d="m 21.043172,252.19662 c 0.122767,0 0.220133,-0.0254 0.3048,-0.055 0.04233,-0.0169 0.06773,-0.0466 0.06773,-0.0889 0,-0.0508 -0.04657,-0.0931 -0.09313,-0.0931 -0.02963,0 -0.09737,0.0423 -0.245533,0.0423 -0.249767,0 -0.4318,-0.11007 -0.4318,-0.4191 v -1.39277 h 0.677333 c 0.0508,0 0.09737,-0.0423 0.09737,-0.0931 0,-0.0508 -0.04657,-0.0974 -0.09737,-0.0974 h -0.677333 v -0.60113 c 0,-0.0593 -0.04657,-0.10583 -0.105834,-0.10583 -0.05927,0 -0.1016,0.0466 -0.1016,0.10583 v 0.60113 h -0.232833 c -0.0508,0 -0.09737,0.0423 -0.09737,0.0931 0,0.0508 0.04657,0.0974 0.09737,0.0974 h 0.232833 v 1.41394 c 0,0.41063 0.270934,0.59266 0.605367,0.59266 z"
         style="font-style:normal;font-variant:normal;font-weight:300;font-stretch:normal;font-size:4.23333px;font-family:'Gotham Rounded';-inkscape-font-specification:'Gotham Rounded Light';text-align:center;text-anchor:middle;stroke-width:0.264583px"
         id="path5067"
         inkscape:connector-curvature="0" />
    </g>
    <g
       aria-label="Sine"
       style="font-style:normal;font-variant:normal;font-weight:300;font-stretch:normal;font-size:4.93889px;line-height:6.61458px;font-family:'Gotham Rounded';-inkscape-font-specification:'Gotham Rounded Light';font-variant-ligatures:normal;font-variant-caps:normal;font-variant-numeric:normal;font-feature-settings:normal;text-align:center;letter-spacing:0px;word-spacing:0px;writing-mode:lr-tb;text-anchor:middle;display:inline;fill:#000000;fill-opacity:1;stroke:none;stroke-width:0.264583px;stroke-linecap:butt;stroke-linejoin:miter;stroke-opacity:1"
       id="text4952"
       inkscape:label="sine text">
      <path
         d="m 12.236549,288.79709 c 0.5715,0 0.982133,-0.3302 0.982133,-0.80856 v -0.008 c 0,-0.4318 -0.287866,-0.67733 -0.973666,-0.81703 -0.702734,-0.14394 -0.8636,-0.33444 -0.8636,-0.6477 v -0.008 c 0,-0.30903 0.287866,-0.5588 0.7239,-0.5588 0.300566,0 0.5588,0.0804 0.817033,0.2794 0.02117,0.0169 0.04657,0.0254 0.07197,0.0254 0.05927,0 0.110066,-0.0508 0.110066,-0.11007 0,-0.0423 -0.0254,-0.072 -0.04657,-0.0889 -0.270934,-0.2032 -0.5461,-0.3048 -0.944034,-0.3048 -0.550333,0 -0.952499,0.33867 -0.952499,0.77894 v 0.008 c 0,0.44874 0.287866,0.69004 0.999066,0.83397 0.6731,0.13547 0.8382,0.3175 0.8382,0.63077 v 0.008 c 0,0.33867 -0.3048,0.58844 -0.7493,0.58844 -0.4064,0 -0.702733,-0.11854 -0.999066,-0.38524 -0.01693,-0.0127 -0.04233,-0.0254 -0.07197,-0.0254 -0.05927,0 -0.110067,0.0508 -0.110067,0.11007 0,0.0381 0.02117,0.0677 0.04233,0.0847 0.334433,0.27516 0.681566,0.41486 1.126066,0.41486 z"
         style="font-style:normal;font-variant:normal;font-weight:300;font-stretch:normal;font-size:4.23333px;font-family:'Gotham Rounded';-inkscape-font-specification:'Gotham Rounded Light';text-align:center;text-anchor:middle;stroke-width:0.264583px"
         id="path5070" />
      <path
         d="m 13.902895,285.92689 c 0,0.072 0.05503,0.127 0.127,0.127 0.07197,0 0.131233,-0.055 0.131233,-0.127 v -0.072 c 0,-0.072 -0.05927,-0.127 -0.131233,-0.127 -0.07197,0 -0.127,0.055 -0.127,0.127 z m 0.0254,2.73897 c 0,0.0635 0.04657,0.10583 0.105833,0.10583 0.05927,0 0.1016,-0.0423 0.1016,-0.10583 v -1.9812 c 0,-0.0635 -0.04657,-0.10583 -0.105833,-0.10583 -0.05927,0 -0.1016,0.0466 -0.1016,0.10583 z"
         style="font-style:normal;font-variant:normal;font-weight:300;font-stretch:normal;font-size:4.23333px;font-family:'Gotham Rounded';-inkscape-font-specification:'Gotham Rounded Light';text-align:center;text-anchor:middle;stroke-width:0.264583px"
         id="path5072" />
      <path
         d="m 14.948726,288.66586 c 0,0.0635 0.04657,0.10583 0.105834,0.10583 0.05927,0 0.1016,-0.0423 0.1016,-0.10583 v -1.15993 c 0,-0.44874 0.325966,-0.77047 0.7493,-0.77047 0.436033,0 0.6858,0.2921 0.6858,0.7366 v 1.1938 c 0,0.0635 0.04657,0.10583 0.105833,0.10583 0.05927,0 0.1016,-0.0423 0.1016,-0.10583 v -1.2319 c 0,-0.51647 -0.3175,-0.889 -0.8636,-0.889 -0.3937,0 -0.635,0.19897 -0.778933,0.45297 v -0.31327 c 0,-0.0635 -0.04657,-0.10583 -0.105834,-0.10583 -0.05927,0 -0.1016,0.0466 -0.1016,0.10583 z"
         style="font-style:normal;font-variant:normal;font-weight:300;font-stretch:normal;font-size:4.23333px;font-family:'Gotham Rounded';-inkscape-font-specification:'Gotham Rounded Light';text-align:center;text-anchor:middle;stroke-width:0.264583px"
         id="path5074" />
      <path
         d="m 17.616917,287.57366 c 0.0381,-0.47837 0.3683,-0.8382 0.795867,-0.8382 0.4953,0 0.745066,0.40217 0.7747,0.8382 z m 1.680633,0.88053 c 0.0254,-0.0254 0.03387,-0.0508 0.03387,-0.072 0,-0.055 -0.04657,-0.0974 -0.1016,-0.0974 -0.02963,0 -0.0508,0.0127 -0.06773,0.0296 -0.173567,0.16934 -0.389467,0.29634 -0.6985,0.29634 -0.423334,0 -0.808567,-0.31327 -0.846667,-0.8509 h 1.693333 c 0.0508,0 0.1016,-0.0466 0.1016,-0.0974 0,-0.61807 -0.385233,-1.1176 -0.9906,-1.1176 -0.5842,0 -1.024466,0.49953 -1.024466,1.12607 v 0.008 c 0,0.6731 0.491066,1.12607 1.058333,1.12607 0.389467,0 0.630767,-0.1397 0.842433,-0.35137 z"
         style="font-style:normal;font-variant:normal;font-weight:300;font-stretch:normal;font-size:4.23333px;font-family:'Gotham Rounded';-inkscape-font-specification:'Gotham Rounded Light';text-align:center;text-anchor:middle;stroke-width:0.264583px"
         id="path5076" />
    </g>
    <path
       style="font-size:5.96264px;font-family:KufiStandardGK;-inkscape-font-specification:KufiStandardGK;fill:#1a1a1a;stroke-width:0.203272"
       d="m 44.600663,251.18893 q -0.273676,0.13101 -0.521148,0.2038 -0.244562,0.0728 -0.521149,0.0728 -0.352285,0 -0.646341,-0.1019 -0.294056,-0.10482 -0.50368,-0.31444 -0.212535,-0.20962 -0.328993,-0.52988 -0.116458,-0.32026 -0.116458,-0.74824 0,-0.79774 0.436717,-1.25193 0.439628,-0.45418 1.158755,-0.45418 0.279499,0 0.547352,0.0786 0.270764,0.0786 0.494945,0.19215 v 0.6085 h -0.02911 q -0.250384,-0.19507 -0.518237,-0.29988 -0.264942,-0.10482 -0.518238,-0.10482 -0.465831,0 -0.736595,0.31444 -0.267853,0.31153 -0.267853,0.91711 0,0.58811 0.26203,0.90546 0.264941,0.31443 0.742418,0.31443 0.165953,0 0.337728,-0.0437 0.171775,-0.0437 0.308613,-0.11355 0.119369,-0.0611 0.224182,-0.1281 0.104812,-0.0699 0.165952,-0.11937 h 0.02911 z m 3.397657,0.2038 h -0.547352 v -0.36102 q -0.276587,0.21836 -0.529883,0.33482 -0.253296,0.11646 -0.558997,0.11646 -0.512415,0 -0.797736,-0.31153 -0.285322,-0.31444 -0.285322,-0.92002 v -2.11079 h 0.547352 v 1.85168 q 0,0.24747 0.02329,0.42507 0.02329,0.17468 0.09899,0.29988 0.07861,0.1281 0.203801,0.18633 0.125192,0.0582 0.36393,0.0582 0.212536,0 0.46292,-0.11064 0.253296,-0.11063 0.471654,-0.28241 v -2.42814 h 0.547352 z m 3.106512,-2.65524 h -0.02912 q -0.12228,-0.0291 -0.238738,-0.0408 -0.113546,-0.0146 -0.270764,-0.0146 -0.253296,0 -0.489123,0.11354 -0.235827,0.11064 -0.454186,0.28823 v 2.30878 h -0.547351 v -3.25208 h 0.547351 v 0.48038 q 0.326082,-0.26203 0.573555,-0.36975 0.250384,-0.11063 0.509503,-0.11063 0.142661,0 0.206713,0.009 0.06405,0.006 0.192155,0.0262 z m 2.544603,0 h -0.02911 q -0.12228,-0.0291 -0.238738,-0.0408 -0.113547,-0.0146 -0.270765,-0.0146 -0.253295,0 -0.489122,0.11354 -0.235827,0.11064 -0.454186,0.28823 v 2.30878 h -0.547352 v -3.25208 h 0.547352 v 0.48038 q 0.326082,-0.26203 0.573555,-0.36975 0.250384,-0.11063 0.509503,-0.11063 0.142661,0 0.206712,0.009 0.06405,0.006 0.192156,0.0262 z m 3.237527,1.08597 h -2.396119 q 0,0.29988 0.09025,0.52406 0.09025,0.22127 0.247473,0.36393 0.151395,0.13975 0.358108,0.20963 0.209624,0.0699 0.460008,0.0699 0.331905,0 0.666721,-0.13101 0.337728,-0.13393 0.480389,-0.26203 h 0.02911 v 0.59684 q -0.276587,0.11646 -0.56482,0.19507 -0.288233,0.0786 -0.605581,0.0786 -0.809381,0 -1.263567,-0.43672 -0.454185,-0.43963 -0.454185,-1.2461 0,-0.79773 0.433805,-1.26648 0.436717,-0.46874 1.147109,-0.46874 0.657987,0 1.013183,0.38431 0.358108,0.38431 0.358108,1.09179 z m -0.532794,-0.41925 q -0.0029,-0.43089 -0.218359,-0.66672 -0.212535,-0.23582 -0.649252,-0.23582 -0.439628,0 -0.701658,0.25911 -0.259119,0.25912 -0.294056,0.64343 z m 4.081846,1.98852 h -0.547352 v -1.85168 q 0,-0.22418 -0.0262,-0.41925 -0.0262,-0.19797 -0.09608,-0.30861 -0.07279,-0.12228 -0.209624,-0.18051 -0.136838,-0.0611 -0.355196,-0.0611 -0.224182,0 -0.468743,0.11064 -0.244561,0.11063 -0.468743,0.28241 v 2.42814 h -0.547351 v -3.25208 h 0.547351 v 0.36102 q 0.256208,-0.21254 0.529883,-0.33191 0.273676,-0.11937 0.561909,-0.11937 0.526972,0 0.803559,0.31735 0.276588,0.31735 0.276588,0.91419 z m 2.742581,-0.0291 q -0.154306,0.0408 -0.337727,0.067 -0.18051,0.0262 -0.323171,0.0262 -0.497857,0 -0.756976,-0.26785 -0.259118,-0.26785 -0.259118,-0.85888 v -1.7294 h -0.369754 v -0.46 h 0.369754 v -0.93458 h 0.547352 v 0.93458 h 1.12964 v 0.46 h -1.12964 v 1.48193 q 0,0.25621 0.01165,0.40178 0.01165,0.14266 0.08152,0.26785 0.06405,0.11646 0.174687,0.17178 0.113546,0.0524 0.34355,0.0524 0.133927,0 0.279499,-0.0378 0.145572,-0.0408 0.209624,-0.067 h 0.02911 z m 5.528834,-1.59548 q 0,0.79483 -0.407602,1.25484 -0.407603,0.46001 -1.091792,0.46001 -0.690013,0 -1.097615,-0.46001 -0.404691,-0.46001 -0.404691,-1.25484 0,-0.79482 0.404691,-1.25483 0.407602,-0.46292 1.097615,-0.46292 0.684189,0 1.091792,0.46292 0.407602,0.46001 0.407602,1.25483 z m -0.56482,0 q 0,-0.63178 -0.247473,-0.93748 -0.247473,-0.30861 -0.687101,-0.30861 -0.445451,0 -0.692924,0.30861 -0.244562,0.3057 -0.244562,0.93748 0,0.61141 0.247473,0.92876 0.247473,0.31443 0.690013,0.31443 0.436716,0 0.684189,-0.31152 0.250385,-0.31444 0.250385,-0.93167 z m 4.108049,1.62459 h -0.547351 v -0.36102 q -0.276588,0.21836 -0.529883,0.33482 -0.253296,0.11646 -0.558998,0.11646 -0.512414,0 -0.797736,-0.31153 -0.285321,-0.31444 -0.285321,-0.92002 v -2.11079 h 0.547351 v 1.85168 q 0,0.24747 0.02329,0.42507 0.02329,0.17468 0.09899,0.29988 0.07861,0.1281 0.203801,0.18633 0.125192,0.0582 0.363931,0.0582 0.212535,0 0.46292,-0.11064 0.253295,-0.11063 0.471654,-0.28241 v -2.42814 h 0.547351 z m 2.765874,-0.0291 q -0.154307,0.0408 -0.337728,0.067 -0.18051,0.0262 -0.32317,0.0262 -0.497857,0 -0.756976,-0.26785 -0.259119,-0.26785 -0.259119,-0.85888 v -1.7294 h -0.369753 v -0.46 h 0.369753 v -0.93458 h 0.547352 v 0.93458 h 1.129641 v 0.46 h -1.129641 v 1.48193 q 0,0.25621 0.01165,0.40178 0.01165,0.14266 0.08152,0.26785 0.06405,0.11646 0.174687,0.17178 0.113546,0.0524 0.34355,0.0524 0.133927,0 0.279499,-0.0378 0.145572,-0.0408 0.209624,-0.067 h 0.02912 z m 3.522849,-1.63624 q 0,0.39596 -0.113546,0.72495 -0.113547,0.32609 -0.320259,0.55318 -0.192156,0.21545 -0.454186,0.33481 -0.259118,0.11646 -0.550263,0.11646 -0.253296,0 -0.460008,-0.0553 -0.203801,-0.0553 -0.416337,-0.17178 v 1.36256 H 75.67743 v -4.4516 h 0.547352 v 0.34064 q 0.218358,-0.18343 0.489123,-0.30571 0.273676,-0.12519 0.582289,-0.12519 0.588112,0 0.914194,0.44545 0.328993,0.44254 0.328993,1.23154 z m -0.56482,0.0146 q 0,-0.58811 -0.20089,-0.87926 -0.20089,-0.29114 -0.617226,-0.29114 -0.235828,0 -0.474566,0.1019 -0.238739,0.1019 -0.457097,0.26785 v 1.84295 q 0.232916,0.10481 0.398868,0.14266 0.168864,0.0379 0.381399,0.0379 0.457097,0 0.713304,-0.30861 0.256208,-0.30862 0.256208,-0.9142 z m 4.113872,1.65079 h -0.547352 v -0.36102 q -0.276587,0.21836 -0.529883,0.33482 -0.253296,0.11646 -0.558998,0.11646 -0.512414,0 -0.797736,-0.31153 -0.285321,-0.31444 -0.285321,-0.92002 v -2.11079 h 0.547351 v 1.85168 q 0,0.24747 0.02329,0.42507 0.02329,0.17468 0.09899,0.29988 0.07861,0.1281 0.203801,0.18633 0.125193,0.0582 0.363931,0.0582 0.212536,0 0.46292,-0.11064 0.253296,-0.11063 0.471654,-0.28241 v -2.42814 h 0.547352 z m 2.765871,-0.0291 q -0.154307,0.0408 -0.337728,0.067 -0.180509,0.0262 -0.32317,0.0262 -0.497857,0 -0.756976,-0.26785 -0.259118,-0.26785 -0.259118,-0.85888 v -1.7294 h -0.369754 v -0.46 h 0.369754 v -0.93458 h 0.547351 v 0.93458 h 1.129641 v 0.46 h -1.129641 v 1.48193 q 0,0.25621 0.01165,0.40178 0.01165,0.14266 0.08152,0.26785 0.06405,0.11646 0.174686,0.17178 0.113547,0.0524 0.343551,0.0524 0.133926,0 0.279499,-0.0378 0.145572,-0.0408 0.209624,-0.067 h 0.02911 z m 2.300042,-3.10069 -0.113546,0.14266 -0.657987,-0.51824 -0.660898,0.51824 -0.113546,-0.14266 0.733684,-0.60849 h 0.08443 z"
       id="text2-0"
       inkscape:label="oscillator"
       aria-label="current output^" />
    <text
       xml:space="preserve"
       style="font-style:normal;font-variant:normal;font-weight:normal;font-stretch:normal;font-size:5.96264px;font-family:Krungthep;-inkscape-font-specification:Krungthep;text-align:start;writing-mode:lr-tb;direction:ltr;text-anchor:start;fill:#1a1a1a;stroke-width:0.203272"
       x="41.695908"
       y="251.47473"
       id="text2-0-3"
       inkscape:label="oscillator"><tspan
         sodipodi:role="line"
         id="tspan2"
         style="font-style:normal;font-variant:normal;font-weight:normal;font-stretch:normal;font-family:KufiStandardGK;-inkscape-font-specification:KufiStandardGK;stroke-width:0.203272"
         x="41.695908"
         y="251.47473">current output^</tspan></text>
    <path
       style="font-size:29.3333px;font-family:Krungthep;-inkscape-font-specification:Krungthep;white-space:pre;shape-padding:11.1117;stroke-width:0.264583"
       d="m 7.971899,179.0806 v -5.17204 H 6.680402 v -0.64878 h 3.880551 v 0.64878 H 9.269458 v 5.17204 z m 3.237833,0 v -5.82082 h 1.291498 v 1.94027 q 0.03941,-0.32742 0.200091,-0.4881 0.163708,-0.16068 0.448688,-0.16068 h 0.64878 q 0.530542,0 0.909502,0.38503 0.381993,0.38199 0.381993,0.91253 v 3.23177 h -1.291495 v -3.23177 q 0,-0.26679 -0.19403,-0.45778 -0.190994,-0.191 -0.45475,-0.191 -0.26679,0 -0.457784,0.191 -0.190995,0.19099 -0.190995,0.45778 v 3.23177 z m 5.172052,-5.17204 v -0.64878 h 1.291494 v 0.64878 z m 0,5.17204 v -4.52933 h 1.291494 v 4.52933 z m 5.820822,-3.23177 h -0.642715 q -0.08489,-0.64878 -0.612399,-0.64878 -0.34258,0 -0.515387,0.13643 -0.172805,0.13339 -0.172805,0.40018 0,0.27891 0.942853,0.78217 0.767014,0.41231 0.882219,0.68516 0.118234,0.26983 0.118234,0.57603 0,0.53963 -0.381992,0.92162 -0.37896,0.37896 -0.909502,0.37896 h -0.64878 q -1.291497,0 -1.291497,-1.29149 h 0.648779 q 0.07579,0.64575 0.606338,0.64575 0.34258,0 0.515384,-0.13643 0.172808,-0.13643 0.172808,-0.40321 0,-0.27285 -0.939821,-0.78218 -0.770049,-0.40927 -0.888283,-0.68212 -0.115205,-0.27286 -0.115205,-0.57602 0,-0.54267 0.381992,-0.92163 0.381992,-0.382 0.909505,-0.382 h 0.64878 q 1.212672,0 1.291494,1.29756 z m 7.072908,3.23177 h -1.291495 v -3.23177 q 0,-0.26679 -0.194027,-0.45778 -0.190997,-0.191 -0.454752,-0.191 -0.266788,0 -0.457785,0.191 -0.190995,0.19099 -0.190995,0.45778 v 3.23177 h -1.291497 v -4.52933 h 1.291497 v 0.64878 q 0.03941,-0.32742 0.200091,-0.4881 0.163711,-0.16068 0.448689,-0.16068 h 0.648779 q 0.657873,0 0.970137,0.45779 0.151585,-0.23041 0.394118,-0.34258 0.242536,-0.11521 0.576019,-0.11521 h 0.642718 q 0.530543,0 0.912535,0.382 0.385024,0.37896 0.385024,0.91556 v 3.23177 h -1.297559 v -3.23177 q 0,-0.26375 -0.190997,-0.45475 -0.190995,-0.19403 -0.451721,-0.19403 -0.266787,0 -0.457782,0.191 -0.190997,0.19099 -0.190997,0.45778 z m 5.172046,-4.52933 h 1.297561 q 0.530543,0 0.909503,0.38503 0.381992,0.38199 0.381992,0.91253 v 1.94028 q 0,0.52448 -0.381992,0.9095 -0.37896,0.38199 -0.909503,0.38199 H 34.44756 q -0.530543,0 -0.912535,-0.37896 -0.37896,-0.38199 -0.37896,-0.91253 v -1.94028 q 0,-0.5366 0.381992,-0.91556 0.381992,-0.382 0.909503,-0.382 z m 0,1.29756 v 1.94028 q 0,0.26072 0.187965,0.45172 0.190995,0.19099 0.460817,0.19099 0.269819,0 0.457782,-0.19099 0.190997,-0.191 0.190997,-0.45172 v -1.94028 q 0,-0.26679 -0.194029,-0.45778 -0.190995,-0.191 -0.45475,-0.191 -0.26679,0 -0.457785,0.191 -0.190997,0.19099 -0.190997,0.45778 z m 7.761107,3.23177 H 40.91717 v -0.64878 q -0.07579,0.64878 -0.64878,0.64878 h -0.648779 q -0.530545,0 -0.912535,-0.37896 -0.37896,-0.38199 -0.37896,-0.91253 v -1.94028 q 0,-0.5366 0.38199,-0.91556 0.381992,-0.382 0.909505,-0.382 h 1.297559 v -1.29149 h 1.291497 z m -1.291497,-3.88055 h -0.64878 q -0.266787,0 -0.457784,0.191 -0.190995,0.19099 -0.190995,0.45778 v 1.94028 q 0,0.26072 0.187965,0.45172 0.190995,0.19099 0.460814,0.19099 0.26982,0 0.457785,-0.19099 0.190995,-0.191 0.190995,-0.45172 z m 6.463546,-0.64878 v 4.52933 h -1.291495 v -0.64878 q -0.07579,0.64878 -0.648779,0.64878 h -0.648783 q -0.530542,0 -0.912534,-0.37896 -0.37896,-0.38199 -0.37896,-0.91253 v -3.23784 h 1.291494 v 3.23784 q 0,0.26072 0.187966,0.45172 0.190995,0.19099 0.460817,0.19099 0.269819,0 0.457782,-0.19099 0.190997,-0.191 0.190997,-0.45172 v -3.23784 z m 1.291497,4.52933 v -5.82082 h 1.291495 v 5.82082 z m 6.469605,-1.94027 h -2.589056 v 0.64878 q 0,0.26072 0.187965,0.45172 0.190995,0.19099 0.460814,0.19099 h 0.64878 q 0.642718,0 0.642718,-0.64271 h 0.648779 q -0.151585,1.29149 -1.291497,1.29149 h -1.297559 q -0.530543,0 -0.912535,-0.37896 -0.37896,-0.38199 -0.37896,-0.91253 v -1.94028 q 0,-0.5366 0.381992,-0.91556 0.38199,-0.382 0.909503,-0.382 h 1.297559 q 0.530545,0 0.909505,0.38503 0.381992,0.38199 0.381992,0.91253 z m -2.589056,-0.64878 h 1.297559 v -0.64272 q 0,-0.26679 -0.194027,-0.45778 -0.190995,-0.191 -0.454753,-0.191 -0.266787,0 -0.457782,0.191 -0.190997,0.19099 -0.190997,0.45778 z m 9.007125,-0.64272 h -0.642718 q -0.08489,-0.64878 -0.612399,-0.64878 -0.34258,0 -0.515384,0.13643 -0.172808,0.13339 -0.172808,0.40018 0,0.27891 0.942854,0.78217 0.767016,0.41231 0.882218,0.68516 0.118237,0.26983 0.118237,0.57603 0,0.53963 -0.381992,0.92162 -0.37896,0.37896 -0.909505,0.37896 h -0.64878 q -1.291494,0 -1.291494,-1.29149 h 0.648779 q 0.07579,0.64575 0.606335,0.64575 0.34258,0 0.515387,-0.13643 0.172805,-0.13643 0.172805,-0.40321 0,-0.27285 -0.939821,-0.78218 -0.770046,-0.40927 -0.888283,-0.68212 -0.115202,-0.27286 -0.115202,-0.57602 0,-0.54267 0.381992,-0.92163 0.381992,-0.382 0.909502,-0.382 h 0.64878 q 1.212673,0 1.291497,1.29756 z m 5.17811,-1.29756 v 4.52933 H 65.4465 v -0.64878 q -0.07579,0.64878 -0.64878,0.64878 h -0.648779 q -0.530543,0 -0.912535,-0.37896 -0.37896,-0.38199 -0.37896,-0.91253 v -3.23784 h 1.291495 v 3.23784 q 0,0.26072 0.187965,0.45172 0.190995,0.19099 0.460814,0.19099 0.26982,0 0.457785,-0.19099 0.190995,-0.191 0.190995,-0.45172 v -3.23784 z m 5.172046,0 v 4.52933 h -1.291495 v -0.64878 q -0.07579,0.64878 -0.648779,0.64878 h -0.64878 q -0.530545,0 -0.912537,-0.37896 -0.37896,-0.38199 -0.37896,-0.91253 v -3.23784 h 1.291497 v 3.23784 q 0,0.26072 0.187963,0.45172 0.190998,0.19099 0.460817,0.19099 0.269819,0 0.457785,-0.19099 0.190994,-0.191 0.190994,-0.45172 v -3.23784 z m 5.172054,0 v 4.52933 H 75.7906 v -0.64878 q -0.07579,0.64878 -0.64878,0.64878 h -0.648779 q -0.530543,0 -0.912535,-0.37896 -0.37896,-0.38199 -0.37896,-0.91253 v -3.23784 h 1.291495 v 3.23784 q 0,0.26072 0.187965,0.45172 0.190995,0.19099 0.460814,0.19099 0.26982,0 0.457785,-0.19099 0.190995,-0.191 0.190995,-0.45172 v -3.23784 z m 5.172046,0 v 4.52933 h -1.291495 v -0.64878 q -0.07579,0.64878 -0.648779,0.64878 h -0.64878 q -0.530545,0 -0.912537,-0.37896 -0.37896,-0.38199 -0.37896,-0.91253 v -3.23784 h 1.291497 v 3.23784 q 0,0.26072 0.187963,0.45172 0.190997,0.19099 0.460817,0.19099 0.269819,0 0.457784,-0.19099 0.190995,-0.191 0.190995,-0.45172 v -3.23784 z m 4.523274,1.29756 h -0.642718 q -0.07579,-0.64878 -0.648779,-0.64878 -0.266788,0 -0.457782,0.191 -0.190998,0.19099 -0.190998,0.45778 v 1.94028 q 0,0.26072 0.187965,0.45172 0.190995,0.19099 0.460815,0.19099 0.572987,0 0.648779,-0.64271 h 0.642718 q -0.07882,1.29149 -1.291497,1.29149 h -0.64878 q -0.530542,0 -0.912534,-0.37896 -0.378961,-0.38199 -0.378961,-0.91253 v -1.94028 q 0,-0.5366 0.381993,-0.91556 0.381989,-0.382 0.909502,-0.382 h 0.64878 q 1.218737,0 1.291497,1.29756 z m 1.297554,3.23177 v -5.82082 h 1.291494 v 2.91041 l 1.940277,-1.61892 h 1.297559 l -2.710322,2.2677 2.710322,2.26163 h -1.297559 l -1.940277,-1.61891 v 1.61891 z m 8.403822,-3.23177 h -0.642715 q -0.08489,-0.64878 -0.612399,-0.64878 -0.34258,0 -0.515387,0.13643 -0.172805,0.13339 -0.172805,0.40018 0,0.27891 0.942853,0.78217 0.767014,0.41231 0.882219,0.68516 0.118234,0.26983 0.118234,0.57603 0,0.53963 -0.381992,0.92162 -0.37896,0.37896 -0.909502,0.37896 h -0.64878 q -1.291497,0 -1.291497,-1.29149 h 0.648779 q 0.07579,0.64575 0.606338,0.64575 0.34258,0 0.515385,-0.13643 0.172807,-0.13643 0.172807,-0.40321 0,-0.27285 -0.939821,-0.78218 -0.770049,-0.40927 -0.888283,-0.68212 -0.115205,-0.27286 -0.115205,-0.57602 0,-0.54267 0.381992,-0.92163 0.381992,-0.382 0.909505,-0.382 h 0.64878 q 1.212672,0 1.291494,1.29756 z"
       id="text1-0"
       inkscape:label="Title text path"
       aria-label="This module suuuucks" />
    <text
       xml:space="preserve"
       id="text1"
       style="font-size:29.3333px;text-align:start;writing-mode:lr-tb;direction:ltr;white-space:pre;shape-inside:url(#rect1);shape-padding:11.1117;display:inline;fill:#000000"
       transform="matrix(0.26458333,0,0,0.26458333,-37.435348,127.70891)"
       inkscape:label="Title text"><tspan
         x="166.67578"
         y="194.63703"
         id="tspan4"><tspan
           style="font-family:Krungthep;-inkscape-font-specification:Krungthep"
           id="tspan3">This module suuuucks</tspan></tspan></text>
  </g>
  <g
     inkscape:groupmode="layer"
     id="layer2"
     inkscape:label="components">
    <circle
       style="display:inline;opacity:1;vector-effect:none;fill:#ff0000;fill-opacity:1;fill-rule:evenodd;stroke:none;stroke-width:1;stroke-linecap:butt;stroke-linejoin:miter;stroke-miterlimit:4;stroke-dasharray:none;stroke-dashoffset:0;stroke-opacity:1;paint-order:normal"
       id="path4954"
       cx="15.24"
       cy="46.063263"
       r="4"
       inkscape:label="pitch" />
    <circle
       r="4"
       cy="77.477875"
       cx="15.24"
       id="circle4956"
       style="display:inline;opacity:1;vector-effect:none;fill:#00ff00;fill-opacity:1;fill-rule:evenodd;stroke:none;stroke-width:1;stroke-linecap:butt;stroke-linejoin:miter;stroke-miterlimit:4;stroke-dasharray:none;stroke-dashoffset:0;stroke-opacity:1;paint-order:normal"
       inkscape:label="pitch" />
    <circle
       style="display:inline;opacity:1;vector-effect:none;fill:#0000ff;fill-opacity:1;fill-rule:evenodd;stroke:none;stroke-width:1;stroke-linecap:butt;stroke-linejoin:miter;stroke-miterlimit:4;stroke-dasharray:none;stroke-dashoffset:0;stroke-opacity:1;paint-order:normal"
       id="circle4958"
       cx="15.24"
       cy="108.71259"
       r="4"
       inkscape:label="sine" />
    <circle
       inkscape:label="blink"
       r="2"
       cy="30.224339"
       cx="15.24"
       id="circle66"
       style="display:inline;opacity:1;vector-effect:none;fill:#ff00ff;fill-opacity:1;fill-rule:evenodd;stroke:none;stroke-width:0.5;stroke-linecap:butt;stroke-linejoin:miter;stroke-miterlimit:4;stroke-dasharray:none;stroke-dashoffset:0;stroke-opacity:1;paint-order:normal" />
    <rect
       style="fill:#ffff00;stroke-width:0.264583"
       id="rect2"
       width="41.159508"
       height="24.856066"
       x="43.56493"
       y="51.048477"
       inkscape:label="oscillator" />
    <circle
       style="display:inline;opacity:1;vector-effect:none;fill:#ff0000;fill-opacity:1;fill-rule:evenodd;stroke:none;stroke-width:1;stroke-linecap:butt;stroke-linejoin:miter;stroke-miterlimit:4;stroke-dasharray:none;stroke-dashoffset:0;stroke-opacity:1;paint-order:normal"
       id="circle2"
       cx="63.081245"
       cy="89.628197"
       r="4"
       inkscape:label="zoom" />
  </g>
</svg>
