<?xml version="1.0" encoding="UTF-8" standalone="no"?>
<!-- Created with Inkscape (http://www.inkscape.org/) -->

<svg
   width="101.6mm"
   height="128.5mm"
   viewBox="0 0 101.60001 128.50002"
   version="1.1"
   id="svg8"
   inkscape:version="1.4.2 (ebf0e940, 2025-05-08)"
   sodipodi:docname="BasicModule2.svg"
   xmlns:inkscape="http://www.inkscape.org/namespaces/inkscape"
   xmlns:sodipodi="http://sodipodi.sourceforge.net/DTD/sodipodi-0.dtd"
   xmlns="http://www.w3.org/2000/svg"
   xmlns:svg="http://www.w3.org/2000/svg"
   xmlns:rdf="http://www.w3.org/1999/02/22-rdf-syntax-ns#"
   xmlns:cc="http://creativecommons.org/ns#"
   xmlns:dc="http://purl.org/dc/elements/1.1/">
  <defs
     id="defs2">
    <rect
       x="155.56349"
       y="156.57364"
       width="406.08133"
       height="56.568542"
       id="rect1" />
  </defs>
  <sodipodi:namedview
     id="base"
     pagecolor="#ffffff"
     bordercolor="#666666"
     borderopacity="1.0"
     inkscape:pageopacity="0.0"
     inkscape:pageshadow="2"
     inkscape:zoom="0.98994949"
     inkscape:cx="69.700526"
     inkscape:cy="229.30463"
     inkscape:document-units="mm"
     inkscape:current-layer="layer1"
     showgrid="false"
     units="mm"
     inkscape:snap-bbox="true"
     inkscape:snap-page="true"
     inkscape:bbox-nodes="false"
     inkscape:snap-bbox-edge-midpoints="false"
     inkscape:window-width="1512"
     inkscape:window-height="945"
     inkscape:window-x="0"
     inkscape:window-y="37"
     inkscape:window-maximized="0"
     inkscape:snap-bbox-midpoints="true"
     inkscape:snap-nodes="false"
     inkscape:showpageshadow="2"
     inkscape:pagecheckerboard="0"
     inkscape:deskcolor="#d1d1d1" />
  <metadata
     id="metadata5">
    <rdf:RDF>
      <cc:Work
         rdf:about="">
        <dc:format>image/svg+xml</dc:format>
        <dc:type
           rdf:resource="http://purl.org/dc/dcmitype/StillImage" />
      </cc:Work>
    </rdf:RDF>
  </metadata>
  <g
     inkscape:label="Layer 1"
     inkscape:groupmode="layer"
     id="layer1"
     transform="translate(0,-168.49998)">
    <rect
       style="display:inline;opacity:1;vector-effect:none;fill:#e6e6e6;fill-opacity:1;fill-rule:evenodd;stroke:none;stroke-width:1.18852;stroke-linecap:butt;stroke-linejoin:miter;stroke-miterlimit:4;stroke-dasharray:none;stroke-dashoffset:0;stroke-opacity:1;paint-order:normal"
       id="rect420"
       width="102.10823"
       height="128.5"
       x="5.9211732e-17"
       y="168.49997"
       inkscape:label="background" />
    <g
       aria-label="Pitch"
       style="font-style:normal;font-variant:normal;font-weight:300;font-stretch:normal;font-size:4.93889px;line-height:6.61458px;font-family:'Gotham Rounded';-inkscape-font-specification:'Gotham Rounded Light';font-variant-ligatures:normal;font-variant-caps:normal;font-variant-numeric:normal;font-feature-settings:normal;text-align:center;letter-spacing:0px;word-spacing:0px;writing-mode:lr-tb;text-anchor:middle;display:inline;fill:#000000;fill-opacity:1;stroke:none;stroke-width:0.264583px;stroke-linecap:butt;stroke-linejoin:miter;stroke-opacity:1"
       id="text4944"
       transform="translate(0,10.583334)"
       inkscape:label="pitch text">
      <path
         d="m 10.377818,215.46915 c 0,0.0593 0.0508,0.11007 0.110067,0.11007 0.05927,0 0.110067,-0.0508 0.110067,-0.11007 v -1.01176 h 0.8001 c 0.618066,0 1.155699,-0.32174 1.155699,-0.94404 v -0.008 c 0,-0.5715 -0.448733,-0.90594 -1.100666,-0.90594 h -0.9652 c -0.05927,0 -0.110067,0.0508 -0.110067,0.11007 z m 0.220134,-1.21496 v -1.45204 h 0.8382 c 0.533399,0 0.897466,0.24554 0.897466,0.71544 v 0.008 c 0,0.44027 -0.372533,0.72814 -0.922866,0.72814 z"
         style="font-style:normal;font-variant:normal;font-weight:300;font-stretch:normal;font-size:4.23333px;font-family:'Gotham Rounded';-inkscape-font-specification:'Gotham Rounded Light';text-align:center;text-anchor:middle;stroke-width:0.264583px"
         id="path5046"
         inkscape:connector-curvature="0" />
      <path
         d="m 13.163219,212.73442 c 0,0.072 0.05503,0.127 0.127,0.127 0.07197,0 0.131233,-0.055 0.131233,-0.127 v -0.072 c 0,-0.072 -0.05927,-0.127 -0.131233,-0.127 -0.07197,0 -0.127,0.055 -0.127,0.127 z m 0.0254,2.73897 c 0,0.0635 0.04657,0.10583 0.105833,0.10583 0.05927,0 0.1016,-0.0423 0.1016,-0.10583 v -1.9812 c 0,-0.0635 -0.04657,-0.10584 -0.105833,-0.10584 -0.05927,0 -0.1016,0.0466 -0.1016,0.10584 z"
         style="font-style:normal;font-variant:normal;font-weight:300;font-stretch:normal;font-size:4.23333px;font-family:'Gotham Rounded';-inkscape-font-specification:'Gotham Rounded Light';text-align:center;text-anchor:middle;stroke-width:0.264583px"
         id="path5048"
         inkscape:connector-curvature="0" />
      <path
         d="m 14.928717,215.60039 c 0.122767,0 0.220134,-0.0254 0.3048,-0.055 0.04233,-0.0169 0.06773,-0.0466 0.06773,-0.0889 0,-0.0508 -0.04657,-0.0931 -0.09313,-0.0931 -0.02963,0 -0.09737,0.0423 -0.245533,0.0423 -0.249767,0 -0.4318,-0.11006 -0.4318,-0.4191 v -1.39276 h 0.677333 c 0.0508,0 0.09737,-0.0423 0.09737,-0.0931 0,-0.0508 -0.04657,-0.0974 -0.09737,-0.0974 h -0.677333 v -0.60114 c 0,-0.0593 -0.04657,-0.10583 -0.105833,-0.10583 -0.05927,0 -0.1016,0.0466 -0.1016,0.10583 v 0.60114 h -0.232833 c -0.0508,0 -0.09737,0.0423 -0.09737,0.0931 0,0.0508 0.04657,0.0974 0.09737,0.0974 h 0.232833 v 1.41393 c 0,0.41063 0.270933,0.59267 0.605366,0.59267 z"
         style="font-style:normal;font-variant:normal;font-weight:300;font-stretch:normal;font-size:4.23333px;font-family:'Gotham Rounded';-inkscape-font-specification:'Gotham Rounded Light';text-align:center;text-anchor:middle;stroke-width:0.264583px"
         id="path5050"
         inkscape:connector-curvature="0" />
      <path
         d="m 16.790392,215.61309 c 0.3683,0 0.618067,-0.1524 0.833967,-0.37254 0.01693,-0.0169 0.0254,-0.0423 0.0254,-0.0635 0,-0.0508 -0.0508,-0.1016 -0.1016,-0.1016 -0.02963,0 -0.0508,0.0169 -0.06773,0.0339 -0.173566,0.17357 -0.397933,0.30903 -0.677333,0.30903 -0.4953,0 -0.889,-0.41486 -0.889,-0.93556 v -0.008 c 0,-0.51647 0.381,-0.9271 0.872067,-0.9271 0.2921,0 0.4953,0.1397 0.668866,0.3048 0.01693,0.0169 0.04657,0.0254 0.07197,0.0254 0.05927,0 0.105833,-0.0466 0.105833,-0.10583 0,-0.0296 -0.0127,-0.0593 -0.02963,-0.0762 -0.194733,-0.18204 -0.440267,-0.3429 -0.8128,-0.3429 -0.618067,0 -1.100667,0.52493 -1.100667,1.1303 v 0.008 c 0,0.60537 0.478367,1.12184 1.100667,1.12184 z"
         style="font-style:normal;font-variant:normal;font-weight:300;font-stretch:normal;font-size:4.23333px;font-family:'Gotham Rounded';-inkscape-font-specification:'Gotham Rounded Light';text-align:center;text-anchor:middle;stroke-width:0.264583px"
         id="path5052"
         inkscape:connector-curvature="0" />
      <path
         d="m 18.252215,215.47339 c 0,0.0635 0.04657,0.10583 0.105833,0.10583 0.05927,0 0.1016,-0.0423 0.1016,-0.10583 v -1.15994 c 0,-0.44873 0.325967,-0.77046 0.7493,-0.77046 0.436033,0 0.6858,0.2921 0.6858,0.7366 v 1.1938 c 0,0.0635 0.04657,0.10583 0.105833,0.10583 0.05927,0 0.1016,-0.0423 0.1016,-0.10583 v -1.2319 c 0,-0.51647 -0.3175,-0.889 -0.8636,-0.889 -0.3937,0 -0.635,0.19896 -0.778933,0.45296 v -1.2446 c 0,-0.0593 -0.04657,-0.10583 -0.105833,-0.10583 -0.05927,0 -0.1016,0.0466 -0.1016,0.10583 z"
         style="font-style:normal;font-variant:normal;font-weight:300;font-stretch:normal;font-size:4.23333px;font-family:'Gotham Rounded';-inkscape-font-specification:'Gotham Rounded Light';text-align:center;text-anchor:middle;stroke-width:0.264583px"
         id="path5054"
         inkscape:connector-curvature="0" />
    </g>
    <g
       aria-label="1V/oct"
       style="font-style:normal;font-variant:normal;font-weight:300;font-stretch:normal;font-size:4.93889px;line-height:6.61458px;font-family:'Gotham Rounded';-inkscape-font-specification:'Gotham Rounded Light';font-variant-ligatures:normal;font-variant-caps:normal;font-variant-numeric:normal;font-feature-settings:normal;text-align:center;letter-spacing:0px;word-spacing:0px;writing-mode:lr-tb;text-anchor:middle;display:inline;fill:#000000;fill-opacity:1;stroke:none;stroke-width:0.264583px;stroke-linecap:butt;stroke-linejoin:miter;stroke-opacity:1"
       id="text4948"
       transform="translate(0,5.2916669)"
       inkscape:label="1v oct text">
      <path
         d="m 9.6908279,252.06539 c 0,0.0593 0.0508,0.11007 0.1100667,0.11007 0.059267,0 0.1058333,-0.0508 0.1058333,-0.11007 v -2.794 c 0,-0.055 -0.0381,-0.10583 -0.1058333,-0.10583 h -0.00847 c -0.046567,0 -0.0889,0.0127 -0.1354666,0.0296 l -0.5164667,0.1905 c -0.046567,0.0169 -0.080433,0.0423 -0.080433,0.0931 0,0.0508 0.042333,0.0931 0.093133,0.0931 0.016933,0 0.033867,-0.004 0.055033,-0.0127 l 0.4826,-0.1651 z"
         style="font-style:normal;font-variant:normal;font-weight:300;font-stretch:normal;font-size:4.23333px;font-family:'Gotham Rounded';-inkscape-font-specification:'Gotham Rounded Light';text-align:center;text-anchor:middle;stroke-width:0.264583px"
         id="path5057"
         inkscape:connector-curvature="0" />
      <path
         d="m 11.938463,252.18816 h 0.0085 c 0.06773,0 0.105833,-0.0381 0.131233,-0.0974 l 1.210733,-2.7686 c 0.0085,-0.0169 0.0085,-0.0254 0.0085,-0.0423 0,-0.0508 -0.04657,-0.1016 -0.105833,-0.1016 -0.0508,0 -0.0889,0.0381 -0.110067,0.0847 l -1.134533,2.65854 -1.1303,-2.6543 c -0.02117,-0.0508 -0.05927,-0.0889 -0.1143,-0.0889 -0.0635,0 -0.110067,0.055 -0.110067,0.10583 0,0.0212 0,0.0296 0.0085,0.0466 l 1.2065,2.76013 c 0.0254,0.0593 0.0635,0.0974 0.131233,0.0974 z"
         style="font-style:normal;font-variant:normal;font-weight:300;font-stretch:normal;font-size:4.23333px;font-family:'Gotham Rounded';-inkscape-font-specification:'Gotham Rounded Light';text-align:center;text-anchor:middle;stroke-width:0.264583px"
         id="path5059"
         inkscape:connector-curvature="0" />
      <path
         d="m 13.000435,252.62842 c 0,0.0508 0.0381,0.0889 0.0889,0.0889 0.04233,0 0.07197,-0.0254 0.0889,-0.0593 l 1.913466,-3.75074 c 0.0085,-0.0169 0.0127,-0.0381 0.0127,-0.055 0,-0.0508 -0.0381,-0.0889 -0.0889,-0.0889 -0.04233,0 -0.07197,0.0254 -0.0889,0.0593 l -1.913466,3.75073 c -0.0085,0.0169 -0.0127,0.0381 -0.0127,0.055 z"
         style="font-style:normal;font-variant:normal;font-weight:300;font-stretch:normal;font-size:4.23333px;font-family:'Gotham Rounded';-inkscape-font-specification:'Gotham Rounded Light';text-align:center;text-anchor:middle;stroke-width:0.264583px"
         id="path5061"
         inkscape:connector-curvature="0" />
      <path
         d="m 16.153937,252.20932 c 0.643467,0 1.113367,-0.52493 1.113367,-1.1303 v -0.008 c 0,-0.60537 -0.465667,-1.12184 -1.1049,-1.12184 -0.643467,0 -1.113367,0.52494 -1.113367,1.1303 v 0.008 c 0,0.60537 0.465667,1.12183 1.1049,1.12183 z m 0.0085,-0.19473 c -0.499534,0 -0.889,-0.41487 -0.889,-0.93557 v -0.008 c 0,-0.508 0.3683,-0.9271 0.880533,-0.9271 0.499533,0 0.889,0.41486 0.889,0.93556 v 0.008 c 0,0.508 -0.3683,0.9271 -0.880533,0.9271 z"
         style="font-style:normal;font-variant:normal;font-weight:300;font-stretch:normal;font-size:4.23333px;font-family:'Gotham Rounded';-inkscape-font-specification:'Gotham Rounded Light';text-align:center;text-anchor:middle;stroke-width:0.264583px"
         id="path5063"
         inkscape:connector-curvature="0" />
      <path
         d="m 18.861683,252.20932 c 0.3683,0 0.618066,-0.1524 0.833966,-0.37253 0.01693,-0.0169 0.0254,-0.0423 0.0254,-0.0635 0,-0.0508 -0.0508,-0.1016 -0.1016,-0.1016 -0.02963,0 -0.0508,0.0169 -0.06773,0.0339 -0.173567,0.17356 -0.397933,0.30903 -0.677333,0.30903 -0.4953,0 -0.889,-0.41487 -0.889,-0.93557 v -0.008 c 0,-0.51647 0.381,-0.9271 0.872066,-0.9271 0.2921,0 0.4953,0.1397 0.668867,0.3048 0.01693,0.0169 0.04657,0.0254 0.07197,0.0254 0.05927,0 0.105834,-0.0466 0.105834,-0.10584 0,-0.0296 -0.0127,-0.0593 -0.02963,-0.0762 -0.194733,-0.18203 -0.440266,-0.3429 -0.812799,-0.3429 -0.618067,0 -1.100667,0.52494 -1.100667,1.1303 v 0.008 c 0,0.60537 0.478367,1.12183 1.100667,1.12183 z"
         style="font-style:normal;font-variant:normal;font-weight:300;font-stretch:normal;font-size:4.23333px;font-family:'Gotham Rounded';-inkscape-font-specification:'Gotham Rounded Light';text-align:center;text-anchor:middle;stroke-width:0.264583px"
         id="path5065"
         inkscape:connector-curvature="0" />
      <path
         d="m 21.043172,252.19662 c 0.122767,0 0.220133,-0.0254 0.3048,-0.055 0.04233,-0.0169 0.06773,-0.0466 0.06773,-0.0889 0,-0.0508 -0.04657,-0.0931 -0.09313,-0.0931 -0.02963,0 -0.09737,0.0423 -0.245533,0.0423 -0.249767,0 -0.4318,-0.11007 -0.4318,-0.4191 v -1.39277 h 0.677333 c 0.0508,0 0.09737,-0.0423 0.09737,-0.0931 0,-0.0508 -0.04657,-0.0974 -0.09737,-0.0974 h -0.677333 v -0.60113 c 0,-0.0593 -0.04657,-0.10583 -0.105834,-0.10583 -0.05927,0 -0.1016,0.0466 -0.1016,0.10583 v 0.60113 h -0.232833 c -0.0508,0 -0.09737,0.0423 -0.09737,0.0931 0,0.0508 0.04657,0.0974 0.09737,0.0974 h 0.232833 v 1.41394 c 0,0.41063 0.270934,0.59266 0.605367,0.59266 z"
         style="font-style:normal;font-variant:normal;font-weight:300;font-stretch:normal;font-size:4.23333px;font-family:'Gotham Rounded';-inkscape-font-specification:'Gotham Rounded Light';text-align:center;text-anchor:middle;stroke-width:0.264583px"
         id="path5067"
         inkscape:connector-curvature="0" />
    </g>
    <g
       aria-label="Sine"
       style="font-style:normal;font-variant:normal;font-weight:300;font-stretch:normal;font-size:4.93889px;line-height:6.61458px;font-family:'Gotham Rounded';-inkscape-font-specification:'Gotham Rounded Light';font-variant-ligatures:normal;font-variant-caps:normal;font-variant-numeric:normal;font-feature-settings:normal;text-align:center;letter-spacing:0px;word-spacing:0px;writing-mode:lr-tb;text-anchor:middle;display:inline;fill:#000000;fill-opacity:1;stroke:none;stroke-width:0.264583px;stroke-linecap:butt;stroke-linejoin:miter;stroke-opacity:1"
       id="text4952"
       inkscape:label="sine text">
      <path
         d="m 12.236549,288.79709 c 0.5715,0 0.982133,-0.3302 0.982133,-0.80856 v -0.008 c 0,-0.4318 -0.287866,-0.67733 -0.973666,-0.81703 -0.702734,-0.14394 -0.8636,-0.33444 -0.8636,-0.6477 v -0.008 c 0,-0.30903 0.287866,-0.5588 0.7239,-0.5588 0.300566,0 0.5588,0.0804 0.817033,0.2794 0.02117,0.0169 0.04657,0.0254 0.07197,0.0254 0.05927,0 0.110066,-0.0508 0.110066,-0.11007 0,-0.0423 -0.0254,-0.072 -0.04657,-0.0889 -0.270934,-0.2032 -0.5461,-0.3048 -0.944034,-0.3048 -0.550333,0 -0.952499,0.33867 -0.952499,0.77894 v 0.008 c 0,0.44874 0.287866,0.69004 0.999066,0.83397 0.6731,0.13547 0.8382,0.3175 0.8382,0.63077 v 0.008 c 0,0.33867 -0.3048,0.58844 -0.7493,0.58844 -0.4064,0 -0.702733,-0.11854 -0.999066,-0.38524 -0.01693,-0.0127 -0.04233,-0.0254 -0.07197,-0.0254 -0.05927,0 -0.110067,0.0508 -0.110067,0.11007 0,0.0381 0.02117,0.0677 0.04233,0.0847 0.334433,0.27516 0.681566,0.41486 1.126066,0.41486 z"
         style="font-style:normal;font-variant:normal;font-weight:300;font-stretch:normal;font-size:4.23333px;font-family:'Gotham Rounded';-inkscape-font-specification:'Gotham Rounded Light';text-align:center;text-anchor:middle;stroke-width:0.264583px"
         id="path5070" />
      <path
         d="m 13.902895,285.92689 c 0,0.072 0.05503,0.127 0.127,0.127 0.07197,0 0.131233,-0.055 0.131233,-0.127 v -0.072 c 0,-0.072 -0.05927,-0.127 -0.131233,-0.127 -0.07197,0 -0.127,0.055 -0.127,0.127 z m 0.0254,2.73897 c 0,0.0635 0.04657,0.10583 0.105833,0.10583 0.05927,0 0.1016,-0.0423 0.1016,-0.10583 v -1.9812 c 0,-0.0635 -0.04657,-0.10583 -0.105833,-0.10583 -0.05927,0 -0.1016,0.0466 -0.1016,0.10583 z"
         style="font-style:normal;font-variant:normal;font-weight:300;font-stretch:normal;font-size:4.23333px;font-family:'Gotham Rounded';-inkscape-font-specification:'Gotham Rounded Light';text-align:center;text-anchor:middle;stroke-width:0.264583px"
         id="path5072" />
      <path
         d="m 14.948726,288.66586 c 0,0.0635 0.04657,0.10583 0.105834,0.10583 0.05927,0 0.1016,-0.0423 0.1016,-0.10583 v -1.15993 c 0,-0.44874 0.325966,-0.77047 0.7493,-0.77047 0.436033,0 0.6858,0.2921 0.6858,0.7366 v 1.1938 c 0,0.0635 0.04657,0.10583 0.105833,0.10583 0.05927,0 0.1016,-0.0423 0.1016,-0.10583 v -1.2319 c 0,-0.51647 -0.3175,-0.889 -0.8636,-0.889 -0.3937,0 -0.635,0.19897 -0.778933,0.45297 v -0.31327 c 0,-0.0635 -0.04657,-0.10583 -0.105834,-0.10583 -0.05927,0 -0.1016,0.0466 -0.1016,0.10583 z"
         style="font-style:normal;font-variant:normal;font-weight:300;font-stretch:normal;font-size:4.23333px;font-family:'Gotham Rounded';-inkscape-font-specification:'Gotham Rounded Light';text-align:center;text-anchor:middle;stroke-width:0.264583px"
         id="path5074" />
      <path
         d="m 17.616917,287.57366 c 0.0381,-0.47837 0.3683,-0.8382 0.795867,-0.8382 0.4953,0 0.745066,0.40217 0.7747,0.8382 z m 1.680633,0.88053 c 0.0254,-0.0254 0.03387,-0.0508 0.03387,-0.072 0,-0.055 -0.04657,-0.0974 -0.1016,-0.0974 -0.02963,0 -0.0508,0.0127 -0.06773,0.0296 -0.173567,0.16934 -0.389467,0.29634 -0.6985,0.29634 -0.423334,0 -0.808567,-0.31327 -0.846667,-0.8509 h 1.693333 c 0.0508,0 0.1016,-0.0466 0.1016,-0.0974 0,-0.61807 -0.385233,-1.1176 -0.9906,-1.1176 -0.5842,0 -1.024466,0.49953 -1.024466,1.12607 v 0.008 c 0,0.6731 0.491066,1.12607 1.058333,1.12607 0.389467,0 0.630767,-0.1397 0.842433,-0.35137 z"
         style="font-style:normal;font-variant:normal;font-weight:300;font-stretch:normal;font-size:4.23333px;font-family:'Gotham Rounded';-inkscape-font-specification:'Gotham Rounded Light';text-align:center;text-anchor:middle;stroke-width:0.264583px"
         id="path5076" />
    </g>
    <path
       d="m 36.46998,173.34094 h -0.642715 q -0.08489,-0.64878 -0.6124,-0.64878 -0.33955,0 -0.512355,0.16371 -0.172804,0.16371 -0.172804,0.4881 0,0.24254 0.190995,0.45476 l 1.370319,1.54009 q 0.37896,0.42443 0.37896,0.91254 v 0.32742 q 0,0.52448 -0.37896,0.9095 -0.37896,0.38199 -0.912535,0.38199 h -0.648779 q -0.642718,0 -0.967108,-0.32439 -0.32439,-0.32439 -0.32439,-0.9671 h 0.64878 q -0.0061,0.0667 -0.0061,0.10611 0,0.26375 0.203121,0.40018 0.203123,0.13642 0.445658,0.13642 0.34561,0 0.497195,-0.16674 0.151585,-0.16674 0.151585,-0.48507 0,-0.24556 -0.190998,-0.45475 L 33.61713,174.5809 q -0.37896,-0.4214 -0.37896,-0.91254 v -0.32742 q 0,-0.52751 0.37896,-0.9095 0.37896,-0.38199 0.912537,-0.38199 h 0.64878 q 1.21267,0 1.291495,1.29149 z m 5.178107,2.58906 h -2.589053 v 0.64878 q 0,0.26072 0.187962,0.45172 0.190998,0.19099 0.460817,0.19099 h 0.64878 q 0.642715,0 0.642715,-0.64271 h 0.648779 q -0.151585,1.29149 -1.291494,1.29149 h -1.297559 q -0.530545,0 -0.912538,-0.37896 -0.37896,-0.38199 -0.37896,-0.91253 v -1.94028 q 0,-0.53661 0.381993,-0.91557 0.381992,-0.38199 0.909505,-0.38199 h 1.297559 q 0.530542,0 0.909502,0.38503 0.381992,0.38199 0.381992,0.91253 z m -2.589053,-0.64878 h 1.297559 v -0.64272 q 0,-0.26679 -0.19403,-0.45778 -0.190995,-0.191 -0.45475,-0.191 -0.26679,0 -0.457785,0.191 -0.190994,0.19099 -0.190994,0.45778 z m 5.172048,2.58905 h -1.291495 v -4.52933 h 1.291495 v 1.29756 q 0.07579,-0.64878 0.400182,-0.97317 0.32439,-0.32439 0.897377,-0.32439 h 0.642718 v 1.29756 h -1.291497 q -0.266788,0 -0.457782,0.191 -0.190998,0.18796 -0.190998,0.45172 z m 6.469608,-4.52933 v 4.52933 h -1.291498 v -0.64878 q -0.07579,0.64878 -0.648779,0.64878 h -0.64878 q -0.530545,0 -0.912534,-0.37896 -0.37896,-0.38199 -0.37896,-0.91253 v -3.23784 h 1.291494 v 3.23784 q 0,0.26072 0.187966,0.45172 0.190994,0.19099 0.460814,0.19099 0.269819,0 0.457785,-0.19099 0.190994,-0.191 0.190994,-0.45172 v -3.23784 z m 5.172048,4.52933 h -1.291495 v -3.23177 q 0,-0.26679 -0.194029,-0.45778 -0.190995,-0.191 -0.45475,-0.191 -0.26679,0 -0.457785,0.191 -0.190995,0.19099 -0.190995,0.45778 v 3.23177 h -1.291497 v -4.52933 h 1.291497 v 0.64878 q 0.03941,-0.32742 0.200092,-0.4881 0.163708,-0.16068 0.448688,-0.16068 h 0.648779 q 0.657874,0 0.970138,0.45779 0.151585,-0.23041 0.394118,-0.34258 0.242535,-0.11521 0.576019,-0.11521 h 0.642718 q 0.530542,0 0.912534,0.38199 0.385024,0.37896 0.385024,0.91557 v 3.23177 h -1.297558 v -3.23177 q 0,-0.26376 -0.190998,-0.45475 -0.190995,-0.19403 -0.45172,-0.19403 -0.266788,0 -0.457782,0.191 -0.190998,0.19099 -0.190998,0.45778 z m 5.775352,-5.82082 h 3.880551 l -0.003,0.64878 -1.937242,1.29149 h 0.648779 q 0.554797,0 0.921631,0.42747 0.369864,0.42443 0.369864,0.86403 v 1.29756 q 0,0.53054 -0.385022,0.91253 -0.381992,0.37896 -0.906473,0.37896 h -1.297559 q -1.142944,0 -1.291497,-1.29149 h 0.648779 q 0.04548,0.64271 0.642718,0.64271 h 0.64878 q 0.263755,0 0.454752,-0.18796 0.194027,-0.191 0.194027,-0.45475 v -1.29756 q 0,-0.15159 -0.163711,-0.39715 -0.160678,-0.24557 -0.485068,-0.24557 h -1.291498 v -0.64878 l 1.940277,-1.29149 h -2.589056 z"
       id="text1"
       style="font-size:29.3333px;font-family:Krungthep;-inkscape-font-specification:'Krungthep, Normal';white-space:pre;shape-padding:11.1117;stroke-width:0.264583"
       inkscape:label="Title text"
       aria-label="Serum 3" />
    <text
       xml:space="preserve"
       style="font-style:normal;font-variant:normal;font-weight:normal;font-stretch:normal;font-size:4.23333px;font-family:'Avenir Next';-inkscape-font-specification:'Avenir Next, Normal';font-variant-ligatures:normal;font-variant-caps:normal;font-variant-numeric:normal;font-variant-east-asian:normal;text-align:start;writing-mode:lr-tb;direction:ltr;text-anchor:start;fill:#000000;stroke-width:0.264583"
       x="45.168552"
       y="260.97525"
       id="text2"
       inkscape:label="wavetype text"><tspan
         sodipodi:role="line"
         id="tspan3"
         x="45.168552"
         y="260.97525">wavetype</tspan></text>
    <text
       xml:space="preserve"
       style="font-style:normal;font-variant:normal;font-weight:normal;font-stretch:normal;font-size:4.23333px;font-family:'Avenir Next';-inkscape-font-specification:'Avenir Next, Normal';font-variant-ligatures:normal;font-variant-caps:normal;font-variant-numeric:normal;font-variant-east-asian:normal;text-align:start;writing-mode:lr-tb;direction:ltr;text-anchor:start;fill:#ffff00;stroke-width:0.264583"
       x="69.222809"
       y="260.70798"
       id="text3"
       inkscape:label="zoom text"><tspan
         sodipodi:role="line"
         id="tspan2"
         style="font-style:normal;font-variant:normal;font-weight:normal;font-stretch:normal;font-size:4.23333px;font-family:'Avenir Next';-inkscape-font-specification:'Avenir Next, Normal';font-variant-ligatures:normal;font-variant-caps:normal;font-variant-numeric:normal;font-variant-east-asian:normal;fill:#000000;stroke-width:0.264583"
         x="69.222809"
         y="260.70798">zoom</tspan></text>
    <path
       d="m 45.587652,258.99405 0.478366,1.60867 h 0.0085 l 0.5334,-1.60867 h 0.279399 l 0.541866,1.60867 h 0.0085 l 0.474133,-1.60867 h 0.3048 l -0.626533,1.9812 h -0.313266 l -0.529167,-1.60443 h -0.0085 l -0.5207,1.60443 h -0.313266 l -0.626533,-1.9812 z m 4.368798,0.70273 q 0,-0.25823 -0.135467,-0.38523 -0.135466,-0.127 -0.3937,-0.127 -0.177799,0 -0.330199,0.0635 -0.1524,0.0635 -0.258233,0.16933 l -0.160867,-0.19049 q 0.122767,-0.12277 0.321733,-0.2032 0.2032,-0.0804 0.4572,-0.0804 0.160866,0 0.300566,0.0466 0.1397,0.0423 0.245533,0.13123 0.105834,0.0889 0.1651,0.22437 0.05927,0.13546 0.05927,0.3175 v 0.86783 q 0,0.1143 0.0085,0.23707 0.0085,0.12276 0.0254,0.20743 h -0.258233 q -0.0127,-0.072 -0.02117,-0.15663 -0.0085,-0.0847 -0.0085,-0.1651 h -0.0085 q -0.135466,0.19896 -0.309033,0.28786 -0.169333,0.0847 -0.410633,0.0847 -0.1143,0 -0.237066,-0.0339 -0.118533,-0.0296 -0.220133,-0.1016 -0.09737,-0.072 -0.1651,-0.18626 -0.0635,-0.1143 -0.0635,-0.2794 0,-0.2286 0.1143,-0.35984 0.118533,-0.13546 0.313266,-0.19896 0.194733,-0.0677 0.4445,-0.0847 0.254,-0.0212 0.524933,-0.0212 z m -0.08467,0.28787 q -0.1778,0 -0.359833,0.0169 -0.1778,0.0127 -0.325966,0.0593 -0.143934,0.0423 -0.237067,0.127 -0.09313,0.0847 -0.09313,0.22437 0,0.10583 0.0381,0.1778 0.04233,0.072 0.110066,0.11853 0.06773,0.0423 0.148167,0.0635 0.08467,0.0169 0.169333,0.0169 0.1524,0 0.270933,-0.0508 0.118534,-0.055 0.198967,-0.14393 0.08043,-0.0931 0.122766,-0.21167 0.04233,-0.11853 0.04233,-0.24976 v -0.14817 z m 1.909233,0.9906 h -0.317499 l -0.808566,-1.9812 h 0.321733 l 0.643466,1.6764 h 0.0085 l 0.6477,-1.6764 h 0.309033 z m 2.764369,-1.143 q -0.0127,-0.2794 -0.182034,-0.46143 -0.165099,-0.18627 -0.474133,-0.18627 -0.143933,0 -0.266699,0.055 -0.122767,0.0508 -0.2159,0.14393 -0.09313,0.0889 -0.148167,0.20743 -0.05503,0.1143 -0.0635,0.2413 z m 0.292099,0.0931 q 0,0.0296 0,0.0635 0,0.0339 -0.0042,0.072 h -1.642532 q 0.0042,0.14817 0.05927,0.2794 0.05503,0.13123 0.1524,0.2286 0.09737,0.0974 0.228599,0.15663 0.131234,0.055 0.283633,0.055 0.224367,0 0.385233,-0.1016 0.1651,-0.10584 0.249767,-0.2413 l 0.2159,0.16933 q -0.1778,0.22437 -0.3937,0.32173 -0.211666,0.0974 -0.4572,0.0974 -0.220133,0 -0.410633,-0.0762 -0.186266,-0.0804 -0.321733,-0.22013 -0.135466,-0.1397 -0.215899,-0.3302 -0.0762,-0.1905 -0.0762,-0.41487 0,-0.22437 0.0762,-0.41487 0.0762,-0.1905 0.211666,-0.33019 0.135467,-0.1397 0.3175,-0.2159 0.182033,-0.0804 0.393699,-0.0804 0.232834,0 0.410633,0.0804 0.1778,0.0762 0.296334,0.21166 0.118533,0.13123 0.177799,0.30903 0.0635,0.1778 0.0635,0.381 z m 1.511301,-0.69003 h -0.5588 v 1.1557 q 0,0.11007 0.02117,0.18203 0.02117,0.072 0.05927,0.1143 0.04233,0.0381 0.09737,0.055 0.05503,0.0127 0.118533,0.0127 0.05927,0 0.122767,-0.0169 0.06773,-0.0169 0.127,-0.0466 l 0.0127,0.24976 q -0.0762,0.0296 -0.160867,0.0423 -0.08043,0.0169 -0.1778,0.0169 -0.08043,0 -0.169333,-0.0212 -0.0889,-0.0212 -0.1651,-0.0804 -0.0762,-0.0593 -0.127,-0.16087 -0.04657,-0.1016 -0.04657,-0.2667 v -1.23613 h -0.410633 v -0.2413 h 0.410633 v -0.5588 h 0.287866 v 0.5588 h 0.5588 z m 1.130297,1.43087 h 0.0085 l 0.613833,-1.67217 h 0.313266 l -0.986366,2.49343 q -0.0889,0.2286 -0.2286,0.36407 -0.135466,0.1397 -0.393699,0.1397 -0.131234,0 -0.258233,-0.0254 l 0.02963,-0.26247 q 0.1016,0.0339 0.211666,0.0339 0.148167,0 0.232833,-0.0931 0.08467,-0.0889 0.148167,-0.25824 l 0.160867,-0.41486 -0.846666,-1.97697 h 0.321733 z m 1.672169,1.32503 h -0.287867 v -2.9972 h 0.287867 v 0.3429 h 0.0127 q 0.122766,-0.19473 0.325966,-0.2921 0.207433,-0.1016 0.4191,-0.1016 0.232833,0 0.419099,0.0804 0.1905,0.0804 0.321734,0.22013 0.135466,0.1397 0.207433,0.3302 0.0762,0.1905 0.0762,0.41063 0,0.22013 -0.0762,0.41063 -0.07197,0.1905 -0.207433,0.3302 -0.131234,0.1397 -0.321734,0.22014 -0.186266,0.0804 -0.419099,0.0804 -0.211667,0 -0.4191,-0.0974 -0.2032,-0.1016 -0.325966,-0.28786 h -0.0127 z m 1.477432,-2.0066 q 0,-0.1651 -0.0508,-0.30903 -0.0508,-0.14817 -0.148167,-0.254 -0.09313,-0.11007 -0.232833,-0.17357 -0.1397,-0.0635 -0.317499,-0.0635 -0.1651,0 -0.3048,0.0635 -0.1397,0.0593 -0.2413,0.16933 -0.1016,0.10584 -0.160867,0.254 -0.05503,0.14394 -0.05503,0.31327 0,0.16933 0.05503,0.3175 0.05927,0.14393 0.160867,0.24977 0.1016,0.10583 0.2413,0.16933 0.1397,0.0593 0.3048,0.0593 0.177799,0 0.317499,-0.0593 0.1397,-0.0635 0.232833,-0.16933 0.09737,-0.11007 0.148167,-0.254 0.0508,-0.14817 0.0508,-0.31327 z m 2.434165,-0.1524 q -0.0127,-0.2794 -0.182033,-0.46143 -0.1651,-0.18627 -0.474133,-0.18627 -0.143934,0 -0.2667,0.055 -0.122767,0.0508 -0.2159,0.14393 -0.09313,0.0889 -0.148166,0.20743 -0.05503,0.1143 -0.0635,0.2413 z m 0.2921,0.0931 q 0,0.0296 0,0.0635 0,0.0339 -0.0042,0.072 h -1.642532 q 0.0042,0.14817 0.05927,0.2794 0.05503,0.13123 0.1524,0.2286 0.09737,0.0974 0.2286,0.15663 0.131233,0.055 0.283633,0.055 0.224366,0 0.385233,-0.1016 0.1651,-0.10584 0.249766,-0.2413 l 0.2159,0.16933 q -0.1778,0.22437 -0.3937,0.32173 -0.211666,0.0974 -0.457199,0.0974 -0.220133,0 -0.410633,-0.0762 -0.186267,-0.0804 -0.321733,-0.22013 -0.135467,-0.1397 -0.2159,-0.3302 -0.0762,-0.1905 -0.0762,-0.41487 0,-0.22437 0.0762,-0.41487 0.0762,-0.1905 0.211666,-0.33019 0.135467,-0.1397 0.3175,-0.2159 0.182033,-0.0804 0.3937,-0.0804 0.232833,0 0.410633,0.0804 0.1778,0.0762 0.296333,0.21166 0.118533,0.13123 0.1778,0.30903 0.0635,0.1778 0.0635,0.381 z"
       id="text4"
       style="font-size:4.23333px;font-family:'Avenir Next';-inkscape-font-specification:'Avenir Next, Normal';stroke-width:0.264583"
       inkscape:label="wavetype text"
       aria-label="wavetype" />
    <path
       style="font-size:4.23333px;font-family:'Avenir Next';-inkscape-font-specification:'Avenir Next, Normal';stroke-width:0.264583"
       d="m 70.920374,258.92998 -1.185332,1.52823 h 1.227665 v 0.24977 h -1.608665 v -0.2032 l 1.181099,-1.5367 h -1.121832 v -0.2413 h 1.507065 z m 2.523062,0.7874 q 0,0.22436 -0.08043,0.41486 -0.0762,0.1905 -0.2159,0.3302 -0.1397,0.1397 -0.334433,0.22014 -0.194733,0.0762 -0.427566,0.0762 -0.2286,0 -0.423333,-0.0762 -0.194733,-0.0804 -0.334433,-0.22014 -0.1397,-0.1397 -0.220133,-0.3302 -0.0762,-0.1905 -0.0762,-0.41486 0,-0.22437 0.0762,-0.41487 0.08043,-0.1905 0.220133,-0.3302 0.1397,-0.1397 0.334433,-0.2159 0.194733,-0.0804 0.423333,-0.0804 0.232833,0 0.427566,0.0804 0.194733,0.0762 0.334433,0.2159 0.1397,0.1397 0.2159,0.3302 0.08043,0.1905 0.08043,0.41487 z m -0.304799,0 q 0,-0.1651 -0.05503,-0.30903 -0.0508,-0.14817 -0.148166,-0.254 -0.09737,-0.11007 -0.237067,-0.17357 -0.1397,-0.0635 -0.313266,-0.0635 -0.173567,0 -0.313267,0.0635 -0.135466,0.0635 -0.232833,0.17357 -0.09737,0.10583 -0.1524,0.254 -0.0508,0.14393 -0.0508,0.30903 0,0.1651 0.0508,0.31326 0.05503,0.14394 0.1524,0.254 0.09737,0.10584 0.232833,0.16934 0.1397,0.0593 0.313267,0.0593 0.173566,0 0.313266,-0.0593 0.1397,-0.0635 0.237067,-0.16934 0.09737,-0.11006 0.148166,-0.254 0.05503,-0.14816 0.05503,-0.31326 z m 2.891364,0 q 0,0.22436 -0.08043,0.41486 -0.0762,0.1905 -0.2159,0.3302 -0.1397,0.1397 -0.334433,0.22014 -0.194733,0.0762 -0.427567,0.0762 -0.228599,0 -0.423333,-0.0762 -0.194733,-0.0804 -0.334433,-0.22014 -0.139699,-0.1397 -0.220133,-0.3302 -0.0762,-0.1905 -0.0762,-0.41486 0,-0.22437 0.0762,-0.41487 0.08043,-0.1905 0.220133,-0.3302 0.1397,-0.1397 0.334433,-0.2159 0.194734,-0.0804 0.423333,-0.0804 0.232834,0 0.427567,0.0804 0.194733,0.0762 0.334433,0.2159 0.1397,0.1397 0.2159,0.3302 0.08043,0.1905 0.08043,0.41487 z m -0.3048,0 q 0,-0.1651 -0.05503,-0.30903 -0.0508,-0.14817 -0.148167,-0.254 -0.09737,-0.11007 -0.237066,-0.17357 -0.1397,-0.0635 -0.313267,-0.0635 -0.173566,0 -0.313266,0.0635 -0.135466,0.0635 -0.232833,0.17357 -0.09737,0.10583 -0.1524,0.254 -0.0508,0.14393 -0.0508,0.30903 0,0.1651 0.0508,0.31326 0.05503,0.14394 0.1524,0.254 0.09737,0.10584 0.232833,0.16934 0.1397,0.0593 0.313266,0.0593 0.173567,0 0.313267,-0.0593 0.1397,-0.0635 0.237066,-0.16934 0.09737,-0.11006 0.148167,-0.254 0.05503,-0.14816 0.05503,-0.31326 z m 1.2065,-0.65193 q 0.08467,-0.17357 0.258233,-0.2794 0.1778,-0.11007 0.393699,-0.11007 0.08043,0 0.1651,0.0169 0.0889,0.0169 0.169334,0.0677 0.08467,0.0466 0.152399,0.127 0.07197,0.0804 0.122767,0.20743 0.1016,-0.2032 0.275166,-0.30903 0.1778,-0.11007 0.4191,-0.11007 0.376766,0 0.563033,0.22437 0.1905,0.22436 0.1905,0.59266 v 1.21497 h -0.287867 v -1.09644 q 0,-0.31326 -0.118533,-0.50376 -0.1143,-0.1905 -0.3937,-0.1905 -0.156633,0 -0.266699,0.0635 -0.105834,0.0635 -0.173567,0.16933 -0.0635,0.1016 -0.09313,0.23284 -0.02963,0.13123 -0.02963,0.27093 v 1.0541 h -0.287867 v -1.1557 q 0,-0.14393 -0.02117,-0.26247 -0.02117,-0.11853 -0.0762,-0.19896 -0.0508,-0.0847 -0.143934,-0.127 -0.09313,-0.0466 -0.237066,-0.0466 -0.1016,0 -0.207433,0.0466 -0.1016,0.0466 -0.186267,0.14393 -0.08043,0.0931 -0.131233,0.2413 -0.0508,0.14393 -0.0508,0.3429 v 1.016 h -0.287866 v -1.54517 q 0,-0.0804 -0.0042,-0.20743 -0.0042,-0.127 -0.0127,-0.2286 h 0.275167 q 0.0085,0.0804 0.0127,0.1778 0.0042,0.0974 0.0042,0.16087 h 0.0085 z"
       id="text5"
       inkscape:label="zoom text"
       aria-label="zoom" />
  </g>
  <g
     inkscape:groupmode="layer"
     id="layer3"
     inkscape:label="Layer 2" />
  <g
     inkscape:groupmode="layer"
     id="layer2"
     inkscape:label="components">
    <circle
       style="display:inline;opacity:1;vector-effect:none;fill:#ff0000;fill-opacity:1;fill-rule:evenodd;stroke:none;stroke-width:1;stroke-linecap:butt;stroke-linejoin:miter;stroke-miterlimit:4;stroke-dasharray:none;stroke-dashoffset:0;stroke-opacity:1;paint-order:normal"
       id="path4954"
       cx="15.24"
       cy="46.063263"
       r="4"
       inkscape:label="pitch" />
    <circle
       r="4"
       cy="77.477875"
       cx="15.24"
       id="circle4956"
       style="display:inline;opacity:1;vector-effect:none;fill:#00ff00;fill-opacity:1;fill-rule:evenodd;stroke:none;stroke-width:1;stroke-linecap:butt;stroke-linejoin:miter;stroke-miterlimit:4;stroke-dasharray:none;stroke-dashoffset:0;stroke-opacity:1;paint-order:normal"
       inkscape:label="pitch" />
    <circle
       style="display:inline;opacity:1;vector-effect:none;fill:#0000ff;fill-opacity:1;fill-rule:evenodd;stroke:none;stroke-width:1;stroke-linecap:butt;stroke-linejoin:miter;stroke-miterlimit:4;stroke-dasharray:none;stroke-dashoffset:0;stroke-opacity:1;paint-order:normal"
       id="circle4958"
       cx="15.24"
       cy="108.71259"
       r="4"
       inkscape:label="sine" />
    <circle
       inkscape:label="blink"
       r="2"
       cy="30.224339"
       cx="15.24"
       id="circle66"
       style="display:inline;opacity:1;vector-effect:none;fill:#ff00ff;fill-opacity:1;fill-rule:evenodd;stroke:none;stroke-width:0.5;stroke-linecap:butt;stroke-linejoin:miter;stroke-miterlimit:4;stroke-dasharray:none;stroke-dashoffset:0;stroke-opacity:1;paint-order:normal" />
    <rect
       style="fill:#ffff00;stroke-width:0.264583"
       id="rect2"
       width="41.159508"
       height="24.856066"
       x="43.56493"
       y="51.048477"
       inkscape:label="oscillator" />
    <circle
       style="display:inline;opacity:1;vector-effect:none;fill:#ff0000;fill-opacity:1;fill-rule:evenodd;stroke:none;stroke-width:1;stroke-linecap:butt;stroke-linejoin:miter;stroke-miterlimit:4;stroke-dasharray:none;stroke-dashoffset:0;stroke-opacity:1;paint-order:normal"
       id="circle2"
       cx="74.326721"
       cy="84.015533"
       r="4"
       inkscape:label="zoom" />
    <circle
       style="display:inline;opacity:1;vector-effect:none;fill:#ff0000;fill-opacity:1;fill-rule:evenodd;stroke:none;stroke-width:1;stroke-linecap:butt;stroke-linejoin:miter;stroke-miterlimit:4;stroke-dasharray:none;stroke-dashoffset:0;stroke-opacity:1;paint-order:normal"
       id="circle1"
       cx="54.27747"
       cy="84.015526"
       r="4"
       inkscape:label="wavetype" />
  </g>
</svg>
