<?xml version="1.0" encoding="UTF-8" standalone="no"?>
<!-- Created with Inkscape (http://www.inkscape.org/) -->

<svg
   width="203.2mm"
   height="128.5mm"
   viewBox="0 0 203.20002 128.50002"
   version="1.1"
   id="svg8"
   inkscape:version="1.4.2 (ebf0e940, 2025-05-08)"
   sodipodi:docname="granular.svg"
   xmlns:inkscape="http://www.inkscape.org/namespaces/inkscape"
   xmlns:sodipodi="http://sodipodi.sourceforge.net/DTD/sodipodi-0.dtd"
   xmlns="http://www.w3.org/2000/svg"
   xmlns:svg="http://www.w3.org/2000/svg"
   xmlns:rdf="http://www.w3.org/1999/02/22-rdf-syntax-ns#"
   xmlns:cc="http://creativecommons.org/ns#"
   xmlns:dc="http://purl.org/dc/elements/1.1/">
  <defs
     id="defs2">
    <inkscape:path-effect
       effect="fillet_chamfer"
       id="path-effect3"
       is_visible="true"
       lpeversion="1"
       nodesatellites_param="F,0,0,1,0,0,0,1 @ F,0,0,1,0,0,0,1 @ F,0,0,1,0,0,0,1 @ F,0,0,1,0,0,0,1 @ F,0,0,1,0,0,0,1 @ F,0,0,1,0,0,0,1 @ F,0,0,1,0,0,0,1 @ F,0,0,1,0,0,0,1"
       radius="0"
       unit="px"
       method="auto"
       mode="F"
       chamfer_steps="1"
       flexible="false"
       use_knot_distance="true"
       apply_no_radius="true"
       apply_with_radius="true"
       only_selected="false"
       hide_knots="false" />
    <rect
       x="155.56349"
       y="156.57364"
       width="406.08133"
       height="56.568542"
       id="rect1" />
  </defs>
  <sodipodi:namedview
     id="base"
     pagecolor="#ffffff"
     bordercolor="#666666"
     borderopacity="1.0"
     inkscape:pageopacity="0.0"
     inkscape:pageshadow="2"
     inkscape:zoom="0.98994949"
     inkscape:cx="295.46962"
     inkscape:cy="210.11173"
     inkscape:document-units="mm"
     inkscape:current-layer="layer2"
     showgrid="false"
     units="mm"
     inkscape:snap-bbox="true"
     inkscape:snap-page="true"
     inkscape:bbox-nodes="false"
     inkscape:snap-bbox-edge-midpoints="false"
     inkscape:window-width="1512"
     inkscape:window-height="865"
     inkscape:window-x="1194"
     inkscape:window-y="38"
     inkscape:window-maximized="0"
     inkscape:snap-bbox-midpoints="true"
     inkscape:snap-nodes="false"
     inkscape:showpageshadow="2"
     inkscape:pagecheckerboard="0"
     inkscape:deskcolor="#d1d1d1" />
  <metadata
     id="metadata5">
    <rdf:RDF>
      <cc:Work
         rdf:about="">
        <dc:format>image/svg+xml</dc:format>
        <dc:type
           rdf:resource="http://purl.org/dc/dcmitype/StillImage" />
      </cc:Work>
    </rdf:RDF>
  </metadata>
  <g
     inkscape:label="Layer 1"
     inkscape:groupmode="layer"
     id="layer1"
     transform="translate(0,-168.49998)">
    <rect
       style="display:inline;opacity:1;vector-effect:none;fill:#e6e6e6;fill-opacity:1;fill-rule:evenodd;stroke:none;stroke-width:1.67747;stroke-linecap:butt;stroke-linejoin:miter;stroke-miterlimit:4;stroke-dasharray:none;stroke-dashoffset:0;stroke-opacity:1;paint-order:normal"
       id="rect420"
       width="203.40338"
       height="128.5"
       x="5.9211732e-17"
       y="168.49997"
       inkscape:label="background" />
    <path
       style="display:inline;opacity:1;vector-effect:none;fill:#f9f9f9;fill-opacity:1;fill-rule:evenodd;stroke:none;stroke-width:0.775193;stroke-linecap:butt;stroke-linejoin:miter;stroke-miterlimit:4;stroke-dasharray:none;stroke-dashoffset:0;stroke-opacity:1;paint-order:normal"
       id="rect3"
       width="139.79323"
       height="39.928474"
       x="23.786989"
       y="240.50079"
       inkscape:label="grain control indent"
       inkscape:path-effect="#path-effect3"
       sodipodi:type="rect"
       d="M 32.072345,240.50079 H 155.29486 c 4.59009,0 8.28536,3.69527 8.28536,8.28536 v 23.35776 c 0,4.59009 -3.69527,8.28536 -8.28536,8.28536 H 32.072345 c -4.590087,0 -8.285356,-3.69527 -8.285356,-8.28536 v -23.35776 c 0,-4.59009 3.695269,-8.28536 8.285356,-8.28536 z"
       ry="8.2853556"
       transform="matrix(1.0014791,0,0,1.1289717,-3.8221731,-28.01862)" />
    <g
       aria-label="1V/oct"
       style="font-style:normal;font-variant:normal;font-weight:300;font-stretch:normal;font-size:4.93889px;line-height:6.61458px;font-family:'Gotham Rounded';-inkscape-font-specification:'Gotham Rounded Light';font-variant-ligatures:normal;font-variant-caps:normal;font-variant-numeric:normal;font-feature-settings:normal;text-align:center;letter-spacing:0px;word-spacing:0px;writing-mode:lr-tb;text-anchor:middle;display:inline;fill:#000000;fill-opacity:1;stroke:none;stroke-width:0.264583px;stroke-linecap:butt;stroke-linejoin:miter;stroke-opacity:1"
       id="text4948"
       transform="translate(169.33383,5.2916669)"
       inkscape:label="1v oct text path">
      <path
         d="m 9.6908279,252.06539 c 0,0.0593 0.0508,0.11007 0.1100667,0.11007 0.059267,0 0.1058333,-0.0508 0.1058333,-0.11007 v -2.794 c 0,-0.055 -0.0381,-0.10583 -0.1058333,-0.10583 h -0.00847 c -0.046567,0 -0.0889,0.0127 -0.1354666,0.0296 l -0.5164667,0.1905 c -0.046567,0.0169 -0.080433,0.0423 -0.080433,0.0931 0,0.0508 0.042333,0.0931 0.093133,0.0931 0.016933,0 0.033867,-0.004 0.055033,-0.0127 l 0.4826,-0.1651 z"
         style="font-style:normal;font-variant:normal;font-weight:300;font-stretch:normal;font-size:4.23333px;font-family:'Gotham Rounded';-inkscape-font-specification:'Gotham Rounded Light';text-align:center;text-anchor:middle;stroke-width:0.264583px"
         id="path5057"
         inkscape:connector-curvature="0" />
      <path
         d="m 11.938463,252.18816 h 0.0085 c 0.06773,0 0.105833,-0.0381 0.131233,-0.0974 l 1.210733,-2.7686 c 0.0085,-0.0169 0.0085,-0.0254 0.0085,-0.0423 0,-0.0508 -0.04657,-0.1016 -0.105833,-0.1016 -0.0508,0 -0.0889,0.0381 -0.110067,0.0847 l -1.134533,2.65854 -1.1303,-2.6543 c -0.02117,-0.0508 -0.05927,-0.0889 -0.1143,-0.0889 -0.0635,0 -0.110067,0.055 -0.110067,0.10583 0,0.0212 0,0.0296 0.0085,0.0466 l 1.2065,2.76013 c 0.0254,0.0593 0.0635,0.0974 0.131233,0.0974 z"
         style="font-style:normal;font-variant:normal;font-weight:300;font-stretch:normal;font-size:4.23333px;font-family:'Gotham Rounded';-inkscape-font-specification:'Gotham Rounded Light';text-align:center;text-anchor:middle;stroke-width:0.264583px"
         id="path5059"
         inkscape:connector-curvature="0" />
      <path
         d="m 13.000435,252.62842 c 0,0.0508 0.0381,0.0889 0.0889,0.0889 0.04233,0 0.07197,-0.0254 0.0889,-0.0593 l 1.913466,-3.75074 c 0.0085,-0.0169 0.0127,-0.0381 0.0127,-0.055 0,-0.0508 -0.0381,-0.0889 -0.0889,-0.0889 -0.04233,0 -0.07197,0.0254 -0.0889,0.0593 l -1.913466,3.75073 c -0.0085,0.0169 -0.0127,0.0381 -0.0127,0.055 z"
         style="font-style:normal;font-variant:normal;font-weight:300;font-stretch:normal;font-size:4.23333px;font-family:'Gotham Rounded';-inkscape-font-specification:'Gotham Rounded Light';text-align:center;text-anchor:middle;stroke-width:0.264583px"
         id="path5061"
         inkscape:connector-curvature="0" />
      <path
         d="m 16.153937,252.20932 c 0.643467,0 1.113367,-0.52493 1.113367,-1.1303 v -0.008 c 0,-0.60537 -0.465667,-1.12184 -1.1049,-1.12184 -0.643467,0 -1.113367,0.52494 -1.113367,1.1303 v 0.008 c 0,0.60537 0.465667,1.12183 1.1049,1.12183 z m 0.0085,-0.19473 c -0.499534,0 -0.889,-0.41487 -0.889,-0.93557 v -0.008 c 0,-0.508 0.3683,-0.9271 0.880533,-0.9271 0.499533,0 0.889,0.41486 0.889,0.93556 v 0.008 c 0,0.508 -0.3683,0.9271 -0.880533,0.9271 z"
         style="font-style:normal;font-variant:normal;font-weight:300;font-stretch:normal;font-size:4.23333px;font-family:'Gotham Rounded';-inkscape-font-specification:'Gotham Rounded Light';text-align:center;text-anchor:middle;stroke-width:0.264583px"
         id="path5063"
         inkscape:connector-curvature="0" />
      <path
         d="m 18.861683,252.20932 c 0.3683,0 0.618066,-0.1524 0.833966,-0.37253 0.01693,-0.0169 0.0254,-0.0423 0.0254,-0.0635 0,-0.0508 -0.0508,-0.1016 -0.1016,-0.1016 -0.02963,0 -0.0508,0.0169 -0.06773,0.0339 -0.173567,0.17356 -0.397933,0.30903 -0.677333,0.30903 -0.4953,0 -0.889,-0.41487 -0.889,-0.93557 v -0.008 c 0,-0.51647 0.381,-0.9271 0.872066,-0.9271 0.2921,0 0.4953,0.1397 0.668867,0.3048 0.01693,0.0169 0.04657,0.0254 0.07197,0.0254 0.05927,0 0.105834,-0.0466 0.105834,-0.10584 0,-0.0296 -0.0127,-0.0593 -0.02963,-0.0762 -0.194733,-0.18203 -0.440266,-0.3429 -0.812799,-0.3429 -0.618067,0 -1.100667,0.52494 -1.100667,1.1303 v 0.008 c 0,0.60537 0.478367,1.12183 1.100667,1.12183 z"
         style="font-style:normal;font-variant:normal;font-weight:300;font-stretch:normal;font-size:4.23333px;font-family:'Gotham Rounded';-inkscape-font-specification:'Gotham Rounded Light';text-align:center;text-anchor:middle;stroke-width:0.264583px"
         id="path5065"
         inkscape:connector-curvature="0" />
      <path
         d="m 21.043172,252.19662 c 0.122767,0 0.220133,-0.0254 0.3048,-0.055 0.04233,-0.0169 0.06773,-0.0466 0.06773,-0.0889 0,-0.0508 -0.04657,-0.0931 -0.09313,-0.0931 -0.02963,0 -0.09737,0.0423 -0.245533,0.0423 -0.249767,0 -0.4318,-0.11007 -0.4318,-0.4191 v -1.39277 h 0.677333 c 0.0508,0 0.09737,-0.0423 0.09737,-0.0931 0,-0.0508 -0.04657,-0.0974 -0.09737,-0.0974 h -0.677333 v -0.60113 c 0,-0.0593 -0.04657,-0.10583 -0.105834,-0.10583 -0.05927,0 -0.1016,0.0466 -0.1016,0.10583 v 0.60113 h -0.232833 c -0.0508,0 -0.09737,0.0423 -0.09737,0.0931 0,0.0508 0.04657,0.0974 0.09737,0.0974 h 0.232833 v 1.41394 c 0,0.41063 0.270934,0.59266 0.605367,0.59266 z"
         style="font-style:normal;font-variant:normal;font-weight:300;font-stretch:normal;font-size:4.23333px;font-family:'Gotham Rounded';-inkscape-font-specification:'Gotham Rounded Light';text-align:center;text-anchor:middle;stroke-width:0.264583px"
         id="path5067"
         inkscape:connector-curvature="0" />
    </g>
    <text
       xml:space="preserve"
       style="font-style:normal;font-variant:normal;font-weight:normal;font-stretch:normal;font-size:4.23333px;font-family:'Avenir Next';-inkscape-font-specification:'Avenir Next, Normal';font-variant-ligatures:normal;font-variant-caps:normal;font-variant-numeric:normal;font-variant-east-asian:normal;text-align:start;writing-mode:lr-tb;direction:ltr;text-anchor:start;fill:#000000;stroke-width:0.264583"
       x="45.168552"
       y="262.44638"
       id="text12"
       inkscape:label="grain size text"><tspan
         sodipodi:role="line"
         id="tspan12"
         x="45.168552"
         y="262.44638">grain size</tspan></text>
    <text
       xml:space="preserve"
       style="font-style:normal;font-variant:normal;font-weight:normal;font-stretch:normal;font-size:4.23333px;font-family:'Avenir Next';-inkscape-font-specification:'Avenir Next, Normal';font-variant-ligatures:normal;font-variant-caps:normal;font-variant-numeric:normal;font-variant-east-asian:normal;text-align:start;writing-mode:lr-tb;direction:ltr;text-anchor:start;fill:#000000;stroke-width:0.264583"
       x="72.162781"
       y="262.70038"
       id="text13"
       inkscape:label="grain density text"><tspan
         sodipodi:role="line"
         id="tspan13"
         x="72.162781"
         y="262.70038">grain density</tspan></text>
    <text
       xml:space="preserve"
       style="font-style:normal;font-variant:normal;font-weight:normal;font-stretch:normal;font-size:4.23333px;font-family:'Avenir Next';-inkscape-font-specification:'Avenir Next, Normal';font-variant-ligatures:normal;font-variant-caps:normal;font-variant-numeric:normal;font-variant-east-asian:normal;text-align:start;writing-mode:lr-tb;direction:ltr;text-anchor:start;fill:#000000;stroke-width:0.264583"
       x="176.81628"
       y="224.62659"
       id="text14"
       inkscape:label="random text"><tspan
         sodipodi:role="line"
         id="tspan4"
         x="176.81628"
         y="224.62659">random</tspan></text>
    <text
       xml:space="preserve"
       style="font-style:normal;font-variant:normal;font-weight:normal;font-stretch:normal;font-size:4.23333px;font-family:'Avenir Next';-inkscape-font-specification:'Avenir Next, Normal';font-variant-ligatures:normal;font-variant-caps:normal;font-variant-numeric:normal;font-variant-east-asian:normal;text-align:start;writing-mode:lr-tb;direction:ltr;text-anchor:start;fill:#000000;stroke-width:0.264583"
       x="178.15263"
       y="285.56406"
       id="text15"
       inkscape:label="output text"><tspan
         sodipodi:role="line"
         id="tspan15"
         x="178.15263"
         y="285.56406">output</tspan></text>
    <text
       xml:space="preserve"
       style="font-style:normal;font-variant:normal;font-weight:normal;font-stretch:normal;font-size:4.23333px;font-family:'Avenir Next';-inkscape-font-specification:'Avenir Next, Normal';font-variant-ligatures:normal;font-variant-caps:normal;font-variant-numeric:normal;font-variant-east-asian:normal;text-align:start;writing-mode:lr-tb;direction:ltr;text-anchor:start;fill:#000000;stroke-width:0.264583"
       x="103.96786"
       y="262.70038"
       id="text16"
       inkscape:label="env shape text"><tspan
         sodipodi:role="line"
         id="tspan16"
         x="103.96786"
         y="262.70038">env. shape</tspan></text>
    <text
       xml:space="preserve"
       style="font-style:normal;font-variant:normal;font-weight:normal;font-stretch:normal;font-size:4.23333px;font-family:'Avenir Next';-inkscape-font-specification:'Avenir Next, Normal';font-variant-ligatures:normal;font-variant-caps:normal;font-variant-numeric:normal;font-variant-east-asian:normal;text-align:start;writing-mode:lr-tb;direction:ltr;text-anchor:start;fill:#000000;stroke-width:0.264583"
       x="136.57474"
       y="262.70038"
       id="text17"
       inkscape:label="position text"><tspan
         sodipodi:role="line"
         id="tspan3">position</tspan></text>
    <text
       xml:space="preserve"
       style="font-style:normal;font-variant:normal;font-weight:275;font-stretch:normal;font-size:16.9333px;font-family:'Avenir Next';-inkscape-font-specification:'Avenir Next,  weight=275';font-variant-ligatures:normal;font-variant-caps:normal;font-variant-numeric:normal;font-variant-east-asian:normal;text-align:start;writing-mode:lr-tb;direction:ltr;text-anchor:start;fill:#000000;stroke-width:0.264583"
       x="22.450645"
       y="187.07637"
       id="text5"
       inkscape:label="Title text"><tspan
         sodipodi:role="line"
         id="tspan5"
         x="22.450645"
         y="187.07637">Aran's Granular Synth</tspan></text>
    <path
       d="m 45.655385,262.84431 q 0.118534,0.1524 0.321733,0.25824 0.207434,0.10583 0.436033,0.10583 0.211667,0 0.359833,-0.0635 0.148167,-0.0593 0.237067,-0.1651 0.09313,-0.10583 0.135466,-0.24977 0.04233,-0.1397 0.04233,-0.30056 v -0.37254 h -0.0085 q -0.1143,0.18627 -0.325966,0.28787 -0.207434,0.1016 -0.423333,0.1016 -0.232833,0 -0.423333,-0.0762 -0.186267,-0.0762 -0.321733,-0.20743 -0.131234,-0.13547 -0.207434,-0.32174 -0.07197,-0.18626 -0.07197,-0.40216 0,-0.21167 0.07197,-0.39793 0.0762,-0.18627 0.207434,-0.32597 0.135466,-0.1397 0.321733,-0.22013 0.1905,-0.0804 0.423333,-0.0804 0.215899,0 0.423333,0.1016 0.207433,0.1016 0.325966,0.2921 h 0.0085 v -0.3429 h 0.287866 v 1.96427 q 0,0.16086 -0.04657,0.3429 -0.04233,0.18203 -0.165099,0.33443 -0.118534,0.1524 -0.325967,0.254 -0.207433,0.1016 -0.537633,0.1016 -0.275166,0 -0.524933,-0.10583 -0.249766,-0.10584 -0.427566,-0.2921 z m 0.05503,-1.41393 q 0,0.15663 0.0508,0.29633 0.0508,0.1397 0.143933,0.24554 0.09737,0.10583 0.237066,0.16933 0.1397,0.0593 0.3175,0.0593 0.1651,0 0.3048,-0.055 0.1397,-0.055 0.2413,-0.15663 0.101599,-0.1016 0.156633,-0.2413 0.05927,-0.14393 0.05927,-0.3175 0,-0.15663 -0.05927,-0.29633 -0.05503,-0.1397 -0.156633,-0.24553 -0.1016,-0.10584 -0.2413,-0.16934 -0.1397,-0.0635 -0.3048,-0.0635 -0.1778,0 -0.3175,0.0635 -0.1397,0.0635 -0.237066,0.16934 -0.09313,0.10583 -0.143933,0.24553 -0.0508,0.1397 -0.0508,0.29633 z m 2.514597,-0.52916 q 0,-0.0804 -0.0042,-0.20744 -0.0042,-0.127 -0.0127,-0.2286 h 0.275167 q 0.0085,0.0804 0.0127,0.1778 0.0042,0.0974 0.0042,0.16087 h 0.0085 q 0.08467,-0.17357 0.253999,-0.2794 0.169334,-0.11007 0.381,-0.11007 0.05503,0 0.09737,0.004 0.04657,0.004 0.09313,0.0169 l -0.0381,0.27093 q -0.0254,-0.008 -0.08467,-0.0169 -0.05927,-0.008 -0.118533,-0.008 -0.1143,0 -0.220133,0.0423 -0.105833,0.0423 -0.186267,0.13546 -0.0762,0.0889 -0.126999,0.23284 -0.04657,0.13969 -0.04657,0.33866 v 1.016 h -0.287867 v -1.54516 z m 2.722038,0.2667 q 0,-0.25824 -0.135467,-0.38524 -0.135467,-0.127 -0.3937,-0.127 -0.177799,0 -0.330199,0.0635 -0.1524,0.0635 -0.258233,0.16934 l -0.160867,-0.1905 q 0.122767,-0.12277 0.321733,-0.2032 0.2032,-0.0804 0.4572,-0.0804 0.160866,0 0.300566,0.0466 0.1397,0.0423 0.245533,0.13123 0.105833,0.0889 0.1651,0.22437 0.05927,0.13547 0.05927,0.3175 v 0.86783 q 0,0.1143 0.0085,0.23707 0.0085,0.12276 0.0254,0.20743 H 50.99362 q -0.0127,-0.072 -0.02117,-0.15663 -0.0085,-0.0847 -0.0085,-0.1651 h -0.0085 q -0.135466,0.19896 -0.309033,0.28786 -0.169333,0.0847 -0.410633,0.0847 -0.1143,0 -0.237066,-0.0339 -0.118533,-0.0296 -0.220133,-0.1016 -0.09737,-0.072 -0.1651,-0.18626 -0.0635,-0.1143 -0.0635,-0.2794 0,-0.2286 0.1143,-0.35984 0.118533,-0.13546 0.313266,-0.19896 0.194733,-0.0677 0.4445,-0.0847 0.253999,-0.0212 0.524933,-0.0212 z m -0.08467,0.28786 q -0.1778,0 -0.359833,0.0169 -0.1778,0.0127 -0.325966,0.0593 -0.143934,0.0423 -0.237067,0.127 -0.09313,0.0847 -0.09313,0.22437 0,0.10583 0.0381,0.1778 0.04233,0.072 0.110066,0.11853 0.06773,0.0423 0.148167,0.0635 0.08467,0.0169 0.169333,0.0169 0.1524,0 0.270933,-0.0508 0.118533,-0.055 0.198967,-0.14393 0.08043,-0.0931 0.122766,-0.21167 0.04233,-0.11853 0.04233,-0.24976 v -0.14817 z m 1.388534,0.9906 h -0.287866 v -1.9812 h 0.287866 z m 0.05927,-2.7432 q 0,0.0889 -0.0635,0.14817 -0.0635,0.055 -0.1397,0.055 -0.0762,0 -0.1397,-0.055 -0.0635,-0.0593 -0.0635,-0.14817 0,-0.0889 0.0635,-0.14393 0.0635,-0.0593 0.1397,-0.0593 0.0762,0 0.1397,0.0593 0.0635,0.055 0.0635,0.14393 z m 0.965199,0.762 q 0.0085,0.0804 0.0127,0.1778 0.0042,0.0974 0.0042,0.16087 h 0.0085 q 0.08467,-0.17357 0.275166,-0.2794 0.1905,-0.11007 0.402167,-0.11007 0.376766,0 0.563033,0.22437 0.190499,0.22437 0.190499,0.59266 v 1.21497 h -0.287866 v -1.09643 q 0,-0.15663 -0.0254,-0.28363 -0.0254,-0.127 -0.0889,-0.2159 -0.05927,-0.0931 -0.1651,-0.14394 -0.1016,-0.0508 -0.258233,-0.0508 -0.1143,0 -0.224366,0.0466 -0.105834,0.0466 -0.1905,0.14393 -0.08467,0.0931 -0.135467,0.2413 -0.0508,0.14393 -0.0508,0.3429 v 1.016 h -0.287866 v -1.54516 q 0,-0.0804 -0.0042,-0.20744 -0.0042,-0.127 -0.0127,-0.2286 z m 4.313761,0.4699 q -0.0635,-0.12276 -0.194733,-0.19896 -0.127,-0.0804 -0.2921,-0.0804 -0.0762,0 -0.1524,0.0169 -0.0762,0.0169 -0.135467,0.055 -0.05927,0.0381 -0.09737,0.0974 -0.03387,0.0593 -0.03387,0.1397 0,0.1397 0.1143,0.2159 0.1143,0.072 0.359833,0.12276 0.351366,0.072 0.516466,0.21167 0.169333,0.13546 0.169333,0.3683 0,0.16933 -0.06773,0.28786 -0.0635,0.1143 -0.169333,0.1905 -0.105833,0.072 -0.2413,0.1016 -0.131233,0.0339 -0.2667,0.0339 -0.224366,0 -0.436033,-0.0931 -0.211666,-0.0931 -0.347133,-0.2921 l 0.2286,-0.16934 q 0.0762,0.13124 0.224367,0.22014 0.148166,0.0889 0.325966,0.0889 0.09313,0 0.1778,-0.0169 0.08467,-0.0169 0.148167,-0.0593 0.0635,-0.0423 0.101599,-0.10584 0.0381,-0.0677 0.0381,-0.1651 0,-0.15663 -0.152399,-0.23283 -0.148167,-0.0804 -0.4318,-0.14817 -0.0889,-0.0212 -0.1905,-0.0508 -0.09737,-0.0339 -0.182033,-0.0931 -0.08467,-0.0635 -0.1397,-0.15663 -0.05503,-0.0931 -0.05503,-0.23283 0,-0.1524 0.05927,-0.25824 0.05927,-0.11006 0.156634,-0.1778 0.101599,-0.072 0.228599,-0.10583 0.127,-0.0339 0.262467,-0.0339 0.207433,0 0.402166,0.0931 0.194733,0.0931 0.2921,0.26246 z m 1.117599,1.5113 h -0.287866 v -1.9812 h 0.287866 z m 0.05927,-2.7432 q 0,0.0889 -0.0635,0.14817 -0.0635,0.055 -0.1397,0.055 -0.0762,0 -0.1397,-0.055 -0.0635,-0.0593 -0.0635,-0.14817 0,-0.0889 0.0635,-0.14393 0.0635,-0.0593 0.1397,-0.0593 0.0762,0 0.1397,0.0593 0.0635,0.055 0.0635,0.14393 z m 2.023531,0.9652 -1.185332,1.52823 h 1.227666 v 0.24977 h -1.608666 v -0.2032 l 1.181099,-1.5367 H 59.28248 v -0.2413 h 1.507065 z m 2.065863,0.635 q -0.0127,-0.2794 -0.182033,-0.46143 -0.1651,-0.18627 -0.474133,-0.18627 -0.143933,0 -0.2667,0.055 -0.122766,0.0508 -0.215899,0.14393 -0.09313,0.0889 -0.148167,0.20743 -0.05503,0.1143 -0.0635,0.2413 z m 0.2921,0.0931 q 0,0.0296 0,0.0635 0,0.0339 -0.0042,0.072 h -1.642532 q 0.0042,0.14817 0.05927,0.2794 0.05503,0.13123 0.1524,0.2286 0.09737,0.0974 0.2286,0.15663 0.131233,0.055 0.283633,0.055 0.224367,0 0.385233,-0.1016 0.1651,-0.10584 0.249767,-0.2413 l 0.2159,0.16933 q -0.1778,0.22437 -0.3937,0.32173 -0.211667,0.0974 -0.4572,0.0974 -0.220133,0 -0.410633,-0.0762 -0.186266,-0.0804 -0.321733,-0.22013 -0.135466,-0.1397 -0.2159,-0.3302 -0.0762,-0.1905 -0.0762,-0.41487 0,-0.22437 0.0762,-0.41486 0.0762,-0.1905 0.211667,-0.3302 0.135466,-0.1397 0.3175,-0.2159 0.182033,-0.0804 0.393699,-0.0804 0.232833,0 0.410633,0.0804 0.1778,0.0762 0.296333,0.21166 0.118534,0.13124 0.1778,0.30904 0.0635,0.1778 0.0635,0.38099 z"
       id="text6"
       style="font-size:4.23333px;font-family:'Avenir Next';-inkscape-font-specification:'Avenir Next, Normal';stroke-width:0.264583"
       inkscape:label="grain size text"
       aria-label="grain size" />
    <path
       d="m 72.649614,263.09831 q 0.118533,0.1524 0.321733,0.25823 0.207433,0.10584 0.436033,0.10584 0.211666,0 0.359833,-0.0635 0.148166,-0.0593 0.237066,-0.1651 0.09313,-0.10584 0.135467,-0.24977 0.04233,-0.1397 0.04233,-0.30056 v -0.37254 h -0.0085 q -0.114299,0.18627 -0.325966,0.28787 -0.207433,0.1016 -0.423333,0.1016 -0.232833,0 -0.423333,-0.0762 -0.186266,-0.0762 -0.321733,-0.20743 -0.131233,-0.13547 -0.207433,-0.32174 -0.07197,-0.18626 -0.07197,-0.40216 0,-0.21167 0.07197,-0.39794 0.0762,-0.18626 0.207433,-0.32596 0.135467,-0.1397 0.321733,-0.22014 0.1905,-0.0804 0.423333,-0.0804 0.2159,0 0.423333,0.1016 0.207433,0.1016 0.325966,0.2921 h 0.0085 v -0.3429 h 0.287866 v 1.96427 q 0,0.16086 -0.04657,0.34289 -0.04233,0.18204 -0.1651,0.33444 -0.118533,0.1524 -0.325966,0.254 -0.207434,0.1016 -0.537633,0.1016 -0.275167,0 -0.524933,-0.10584 -0.249767,-0.10583 -0.427566,-0.2921 z m 0.05503,-1.41393 q 0,0.15663 0.0508,0.29633 0.0508,0.1397 0.143933,0.24554 0.09737,0.10583 0.237067,0.16933 0.139699,0.0593 0.317499,0.0593 0.1651,0 0.3048,-0.055 0.1397,-0.055 0.2413,-0.15663 0.1016,-0.1016 0.156633,-0.2413 0.05927,-0.14393 0.05927,-0.3175 0,-0.15663 -0.05927,-0.29633 -0.05503,-0.1397 -0.156633,-0.24554 -0.1016,-0.10583 -0.2413,-0.16933 -0.1397,-0.0635 -0.3048,-0.0635 -0.1778,0 -0.317499,0.0635 -0.1397,0.0635 -0.237067,0.16933 -0.09313,0.10584 -0.143933,0.24554 -0.0508,0.1397 -0.0508,0.29633 z m 2.514598,-0.52917 q 0,-0.0804 -0.0042,-0.20743 -0.0042,-0.127 -0.0127,-0.2286 h 0.275166 q 0.0085,0.0804 0.0127,0.1778 0.0042,0.0974 0.0042,0.16087 h 0.0085 q 0.08467,-0.17357 0.254,-0.2794 0.169333,-0.11007 0.380999,-0.11007 0.05503,0 0.09737,0.004 0.04657,0.004 0.09313,0.0169 l -0.0381,0.27093 q -0.0254,-0.008 -0.08467,-0.0169 -0.05927,-0.008 -0.118534,-0.008 -0.114299,0 -0.220133,0.0423 -0.105833,0.0423 -0.186266,0.13547 -0.0762,0.0889 -0.127,0.23283 -0.04657,0.1397 -0.04657,0.33867 v 1.016 h -0.287866 v -1.54517 z m 2.722037,0.2667 q 0,-0.25823 -0.135467,-0.38523 -0.135466,-0.127 -0.393699,-0.127 -0.1778,0 -0.3302,0.0635 -0.1524,0.0635 -0.258233,0.16933 l -0.160867,-0.1905 q 0.122767,-0.12276 0.321733,-0.2032 0.2032,-0.0804 0.4572,-0.0804 0.160867,0 0.300566,0.0466 0.1397,0.0423 0.245534,0.13123 0.105833,0.0889 0.165099,0.22437 0.05927,0.13546 0.05927,0.3175 v 0.86783 q 0,0.1143 0.0085,0.23707 0.0085,0.12276 0.0254,0.20743 h -0.258233 q -0.0127,-0.072 -0.02117,-0.15663 -0.0085,-0.0847 -0.0085,-0.1651 h -0.0085 q -0.135467,0.19896 -0.309033,0.28786 -0.169334,0.0847 -0.410633,0.0847 -0.1143,0 -0.237067,-0.0339 -0.118533,-0.0296 -0.220133,-0.1016 -0.09737,-0.072 -0.1651,-0.18626 -0.0635,-0.1143 -0.0635,-0.2794 0,-0.2286 0.1143,-0.35984 0.118533,-0.13546 0.313266,-0.19896 0.194734,-0.0677 0.4445,-0.0847 0.254,-0.0212 0.524933,-0.0212 z m -0.08467,0.28787 q -0.177799,0 -0.359833,0.0169 -0.1778,0.0127 -0.325966,0.0593 -0.143933,0.0423 -0.237067,0.127 -0.09313,0.0847 -0.09313,0.22437 0,0.10583 0.0381,0.1778 0.04233,0.072 0.110067,0.11853 0.06773,0.0423 0.148166,0.0635 0.08467,0.0169 0.169334,0.0169 0.152399,0 0.270933,-0.0508 0.118533,-0.055 0.198966,-0.14393 0.08043,-0.0931 0.122767,-0.21167 0.04233,-0.11853 0.04233,-0.24976 v -0.14817 z m 1.388535,0.9906 h -0.287867 v -1.9812 h 0.287867 z m 0.05927,-2.7432 q 0,0.0889 -0.0635,0.14817 -0.0635,0.055 -0.1397,0.055 -0.0762,0 -0.1397,-0.055 -0.0635,-0.0593 -0.0635,-0.14817 0,-0.0889 0.0635,-0.14393 0.0635,-0.0593 0.1397,-0.0593 0.0762,0 0.1397,0.0593 0.0635,0.055 0.0635,0.14393 z m 0.965199,0.762 q 0.0085,0.0804 0.0127,0.1778 0.0042,0.0974 0.0042,0.16087 h 0.0085 q 0.08467,-0.17357 0.275167,-0.2794 0.1905,-0.11007 0.402166,-0.11007 0.376766,0 0.563033,0.22437 0.1905,0.22436 0.1905,0.59266 v 1.21497 h -0.287867 v -1.09643 q 0,-0.15664 -0.0254,-0.28364 -0.0254,-0.127 -0.0889,-0.2159 -0.05927,-0.0931 -0.165099,-0.14393 -0.1016,-0.0508 -0.258234,-0.0508 -0.114299,0 -0.224366,0.0466 -0.105833,0.0466 -0.1905,0.14393 -0.08467,0.0931 -0.135466,0.2413 -0.0508,0.14393 -0.0508,0.3429 v 1.016 h -0.287867 v -1.54517 q 0,-0.0804 -0.0042,-0.20743 -0.0042,-0.127 -0.0127,-0.2286 z m 4.889494,1.64677 q -0.127,0.1905 -0.3302,0.28786 -0.2032,0.0974 -0.419099,0.0974 -0.232834,0 -0.423333,-0.0804 -0.186267,-0.0804 -0.321733,-0.22014 -0.131234,-0.1397 -0.207434,-0.3302 -0.07197,-0.1905 -0.07197,-0.41063 0,-0.22013 0.07197,-0.41063 0.0762,-0.1905 0.207434,-0.3302 0.135466,-0.1397 0.321733,-0.22014 0.190499,-0.0804 0.423333,-0.0804 0.215899,0 0.419099,0.1016 0.2032,0.0974 0.3302,0.2921 h 0.0085 v -1.5621 h 0.287866 v 3.2004 h -0.287866 v -0.33443 z m -1.468966,-0.65617 q 0,0.1651 0.0508,0.31327 0.0508,0.14393 0.143934,0.254 0.09737,0.10583 0.237066,0.16933 0.1397,0.0593 0.3175,0.0593 0.1651,0 0.3048,-0.0593 0.139699,-0.0635 0.241299,-0.16933 0.1016,-0.10584 0.156634,-0.24977 0.05927,-0.14817 0.05927,-0.3175 0,-0.16933 -0.05927,-0.31327 -0.05503,-0.14816 -0.156634,-0.254 -0.1016,-0.11006 -0.241299,-0.16933 -0.1397,-0.0635 -0.3048,-0.0635 -0.1778,0 -0.3175,0.0635 -0.1397,0.0635 -0.237066,0.17357 -0.09313,0.10583 -0.143934,0.254 -0.0508,0.14393 -0.0508,0.30903 z m 4.047059,-0.1524 q -0.0127,-0.2794 -0.182033,-0.46143 -0.1651,-0.18627 -0.474133,-0.18627 -0.143933,0 -0.2667,0.055 -0.122766,0.0508 -0.215899,0.14394 -0.09313,0.0889 -0.148167,0.20743 -0.05503,0.1143 -0.0635,0.2413 z m 0.2921,0.0931 q 0,0.0296 0,0.0635 0,0.0339 -0.0042,0.072 h -1.642532 q 0.0042,0.14817 0.05927,0.2794 0.05503,0.13123 0.1524,0.2286 0.09737,0.0974 0.2286,0.15663 0.131233,0.055 0.283633,0.055 0.224367,0 0.385233,-0.1016 0.1651,-0.10584 0.249767,-0.2413 l 0.2159,0.16933 q -0.1778,0.22437 -0.3937,0.32173 -0.211667,0.0974 -0.4572,0.0974 -0.220133,0 -0.410633,-0.0762 -0.186266,-0.0804 -0.321733,-0.22013 -0.135466,-0.1397 -0.2159,-0.3302 -0.0762,-0.1905 -0.0762,-0.41487 0,-0.22437 0.0762,-0.41487 0.0762,-0.1905 0.211667,-0.3302 0.135466,-0.1397 0.3175,-0.2159 0.182033,-0.0804 0.393699,-0.0804 0.232833,0 0.410633,0.0804 0.1778,0.0762 0.296333,0.21167 0.118534,0.13123 0.1778,0.30903 0.0635,0.1778 0.0635,0.381 z m 0.876302,-0.93133 q 0.0085,0.0804 0.0127,0.1778 0.0042,0.0974 0.0042,0.16087 h 0.0085 q 0.08467,-0.17357 0.275166,-0.2794 0.1905,-0.11007 0.402166,-0.11007 0.376767,0 0.563033,0.22437 0.1905,0.22436 0.1905,0.59266 v 1.21497 h -0.287866 v -1.09643 q 0,-0.15664 -0.0254,-0.28364 -0.0254,-0.127 -0.0889,-0.2159 -0.05927,-0.0931 -0.1651,-0.14393 -0.1016,-0.0508 -0.258233,-0.0508 -0.1143,0 -0.224367,0.0466 -0.105833,0.0466 -0.1905,0.14393 -0.08467,0.0931 -0.135466,0.2413 -0.0508,0.14393 -0.0508,0.3429 v 1.016 H 88.64737 v -1.54517 q 0,-0.0804 -0.0042,-0.20743 -0.0042,-0.127 -0.0127,-0.2286 z m 3.255428,0.4699 q -0.0635,-0.12277 -0.194733,-0.19897 -0.127,-0.0804 -0.2921,-0.0804 -0.0762,0 -0.1524,0.0169 -0.0762,0.0169 -0.135466,0.055 -0.05927,0.0381 -0.09737,0.0974 -0.03387,0.0593 -0.03387,0.1397 0,0.1397 0.1143,0.2159 0.1143,0.072 0.359833,0.12277 0.351367,0.072 0.516466,0.21167 0.169334,0.13546 0.169334,0.3683 0,0.16933 -0.06773,0.28786 -0.0635,0.1143 -0.169333,0.1905 -0.105833,0.072 -0.2413,0.1016 -0.131233,0.0339 -0.266699,0.0339 -0.224367,0 -0.436033,-0.0931 -0.211667,-0.0931 -0.347133,-0.2921 l 0.228599,-0.16934 q 0.0762,0.13124 0.224367,0.22014 0.148166,0.0889 0.325966,0.0889 0.09313,0 0.1778,-0.0169 0.08467,-0.0169 0.148167,-0.0593 0.0635,-0.0423 0.1016,-0.10584 0.0381,-0.0677 0.0381,-0.1651 0,-0.15663 -0.1524,-0.23283 -0.148167,-0.0804 -0.4318,-0.14817 -0.0889,-0.0212 -0.1905,-0.0508 -0.09737,-0.0339 -0.182033,-0.0931 -0.08467,-0.0635 -0.1397,-0.15663 -0.05503,-0.0931 -0.05503,-0.23284 0,-0.1524 0.05927,-0.25823 0.05927,-0.11007 0.156634,-0.1778 0.1016,-0.072 0.228599,-0.10583 0.127,-0.0339 0.262467,-0.0339 0.207433,0 0.402166,0.0931 0.194733,0.0931 0.2921,0.26247 z m 1.117601,1.5113 h -0.287866 v -1.9812 h 0.287866 z m 0.05927,-2.7432 q 0,0.0889 -0.0635,0.14817 -0.0635,0.055 -0.1397,0.055 -0.0762,0 -0.1397,-0.055 -0.0635,-0.0593 -0.0635,-0.14817 0,-0.0889 0.0635,-0.14393 0.0635,-0.0593 0.1397,-0.0593 0.0762,0 0.1397,0.0593 0.0635,0.055 0.0635,0.14393 z m 1.600196,1.0033 h -0.558799 v 1.1557 q 0,0.11007 0.02117,0.18203 0.02117,0.072 0.05927,0.1143 0.04233,0.0381 0.09737,0.055 0.05503,0.0127 0.118533,0.0127 0.05927,0 0.122767,-0.0169 0.06773,-0.0169 0.126999,-0.0466 l 0.0127,0.24976 q -0.0762,0.0296 -0.160866,0.0423 -0.08043,0.0169 -0.1778,0.0169 -0.08043,0 -0.169333,-0.0212 -0.0889,-0.0212 -0.1651,-0.0804 -0.0762,-0.0593 -0.127,-0.16087 -0.04657,-0.1016 -0.04657,-0.2667 v -1.23613 h -0.410633 v -0.2413 h 0.410633 v -0.5588 h 0.287867 v 0.5588 h 0.558799 z m 1.130299,1.43087 h 0.0085 l 0.613833,-1.67217 h 0.313267 l -0.986366,2.49343 q -0.0889,0.2286 -0.2286,0.36407 -0.135467,0.1397 -0.3937,0.1397 -0.131233,0 -0.258233,-0.0254 l 0.02963,-0.26247 q 0.1016,0.0339 0.211667,0.0339 0.148166,0 0.232833,-0.0931 0.08467,-0.0889 0.148167,-0.25823 l 0.160866,-0.41486 -0.846666,-1.97697 h 0.321733 z"
       id="text7"
       style="font-size:4.23333px;font-family:'Avenir Next';-inkscape-font-specification:'Avenir Next, Normal';stroke-width:0.264583"
       inkscape:label="grain density text"
       aria-label="grain density" />
    <path
       d="m 177.19728,223.08142 q 0,-0.0804 -0.004,-0.20743 -0.004,-0.127 -0.0127,-0.2286 h 0.27517 q 0.008,0.0804 0.0127,0.1778 0.004,0.0974 0.004,0.16086 h 0.008 q 0.0847,-0.17356 0.254,-0.27939 0.16933,-0.11007 0.381,-0.11007 0.055,0 0.0974,0.004 0.0466,0.004 0.0931,0.0169 l -0.0381,0.27093 q -0.0254,-0.008 -0.0847,-0.0169 -0.0593,-0.008 -0.11853,-0.008 -0.1143,0 -0.22014,0.0423 -0.10583,0.0423 -0.18626,0.13547 -0.0762,0.0889 -0.127,0.23283 -0.0466,0.1397 -0.0466,0.33867 v 1.016 h -0.28787 v -1.54517 z m 2.72204,0.2667 q 0,-0.25823 -0.13547,-0.38523 -0.13546,-0.127 -0.3937,-0.127 -0.17779,0 -0.33019,0.0635 -0.1524,0.0635 -0.25824,0.16933 l -0.16086,-0.1905 q 0.12276,-0.12276 0.32173,-0.2032 0.2032,-0.0804 0.4572,-0.0804 0.16086,0 0.30056,0.0466 0.1397,0.0423 0.24554,0.13123 0.10583,0.0889 0.1651,0.22436 0.0593,0.13547 0.0593,0.3175 v 0.86784 q 0,0.1143 0.008,0.23706 0.008,0.12277 0.0254,0.20744 h -0.25823 q -0.0127,-0.072 -0.0212,-0.15664 -0.008,-0.0847 -0.008,-0.1651 h -0.008 q -0.13547,0.19897 -0.30904,0.28787 -0.16933,0.0847 -0.41063,0.0847 -0.1143,0 -0.23706,-0.0339 -0.11854,-0.0296 -0.22014,-0.1016 -0.0974,-0.072 -0.1651,-0.18627 -0.0635,-0.1143 -0.0635,-0.2794 0,-0.2286 0.1143,-0.35983 0.11854,-0.13547 0.31327,-0.19897 0.19473,-0.0677 0.4445,-0.0847 0.254,-0.0212 0.52493,-0.0212 z m -0.0847,0.28787 q -0.1778,0 -0.35983,0.0169 -0.1778,0.0127 -0.32596,0.0593 -0.14394,0.0423 -0.23707,0.127 -0.0931,0.0847 -0.0931,0.22436 0,0.10584 0.0381,0.1778 0.0423,0.072 0.11006,0.11854 0.0677,0.0423 0.14817,0.0635 0.0847,0.0169 0.16933,0.0169 0.1524,0 0.27093,-0.0508 0.11854,-0.055 0.19897,-0.14393 0.0804,-0.0931 0.12277,-0.21167 0.0423,-0.11853 0.0423,-0.24977 v -0.14816 z m 1.35467,-0.9906 q 0.008,0.0804 0.0127,0.1778 0.004,0.0974 0.004,0.16086 h 0.008 q 0.0847,-0.17356 0.27517,-0.27939 0.1905,-0.11007 0.40216,-0.11007 0.37677,0 0.56304,0.22437 0.1905,0.22436 0.1905,0.59266 v 1.21497 h -0.28787 v -1.09644 q 0,-0.15663 -0.0254,-0.28363 -0.0254,-0.127 -0.0889,-0.2159 -0.0593,-0.0931 -0.1651,-0.14393 -0.1016,-0.0508 -0.25823,-0.0508 -0.1143,0 -0.22437,0.0466 -0.10583,0.0466 -0.1905,0.14393 -0.0847,0.0931 -0.13547,0.2413 -0.0508,0.14393 -0.0508,0.3429 v 1.016 h -0.28786 v -1.54517 q 0,-0.0804 -0.004,-0.20743 -0.004,-0.127 -0.0127,-0.2286 z m 3.83116,1.64676 q -0.127,0.1905 -0.3302,0.28787 -0.2032,0.0974 -0.4191,0.0974 -0.23283,0 -0.42333,-0.0804 -0.18627,-0.0804 -0.32173,-0.22013 -0.13124,-0.1397 -0.20744,-0.3302 -0.072,-0.1905 -0.072,-0.41063 0,-0.22014 0.072,-0.41064 0.0762,-0.1905 0.20744,-0.33019 0.13546,-0.1397 0.32173,-0.22014 0.1905,-0.0804 0.42333,-0.0804 0.2159,0 0.4191,0.1016 0.2032,0.0974 0.3302,0.2921 h 0.008 v -1.5621 h 0.28787 v 3.2004 h -0.28787 v -0.33444 z m -1.46896,-0.65616 q 0,0.1651 0.0508,0.31326 0.0508,0.14394 0.14393,0.254 0.0974,0.10584 0.23707,0.16934 0.1397,0.0593 0.3175,0.0593 0.1651,0 0.3048,-0.0593 0.1397,-0.0635 0.2413,-0.16934 0.1016,-0.10583 0.15663,-0.24976 0.0593,-0.14817 0.0593,-0.3175 0,-0.16934 -0.0593,-0.31327 -0.055,-0.14817 -0.15663,-0.254 -0.1016,-0.11007 -0.2413,-0.16933 -0.1397,-0.0635 -0.3048,-0.0635 -0.1778,0 -0.3175,0.0635 -0.1397,0.0635 -0.23707,0.17356 -0.0931,0.10584 -0.14393,0.254 -0.0508,0.14394 -0.0508,0.30904 z m 4.50426,0 q 0,0.22436 -0.0804,0.41486 -0.0762,0.1905 -0.2159,0.3302 -0.1397,0.1397 -0.33443,0.22014 -0.19473,0.0762 -0.42757,0.0762 -0.2286,0 -0.42333,-0.0762 -0.19473,-0.0804 -0.33443,-0.22014 -0.1397,-0.1397 -0.22013,-0.3302 -0.0762,-0.1905 -0.0762,-0.41486 0,-0.22437 0.0762,-0.41487 0.0804,-0.1905 0.22013,-0.3302 0.1397,-0.1397 0.33443,-0.2159 0.19473,-0.0804 0.42333,-0.0804 0.23284,0 0.42757,0.0804 0.19473,0.0762 0.33443,0.2159 0.1397,0.1397 0.2159,0.3302 0.0804,0.1905 0.0804,0.41487 z m -0.3048,0 q 0,-0.1651 -0.055,-0.30904 -0.0508,-0.14816 -0.14816,-0.254 -0.0974,-0.11006 -0.23707,-0.17356 -0.1397,-0.0635 -0.31327,-0.0635 -0.17356,0 -0.31326,0.0635 -0.13547,0.0635 -0.23284,0.17356 -0.0974,0.10584 -0.1524,0.254 -0.0508,0.14394 -0.0508,0.30904 0,0.1651 0.0508,0.31326 0.055,0.14394 0.1524,0.254 0.0974,0.10584 0.23284,0.16934 0.1397,0.0593 0.31326,0.0593 0.17357,0 0.31327,-0.0593 0.1397,-0.0635 0.23707,-0.16934 0.0974,-0.11006 0.14816,-0.254 0.055,-0.14816 0.055,-0.31326 z m 1.2065,-0.65194 q 0.0847,-0.17356 0.25823,-0.27939 0.1778,-0.11007 0.3937,-0.11007 0.0804,0 0.1651,0.0169 0.0889,0.0169 0.16933,0.0677 0.0847,0.0466 0.1524,0.127 0.072,0.0804 0.12277,0.20743 0.1016,-0.2032 0.27516,-0.30903 0.1778,-0.11007 0.4191,-0.11007 0.37677,0 0.56304,0.22437 0.1905,0.22436 0.1905,0.59266 v 1.21497 h -0.28787 v -1.09644 q 0,-0.31326 -0.11853,-0.50376 -0.1143,-0.1905 -0.3937,-0.1905 -0.15664,0 -0.2667,0.0635 -0.10584,0.0635 -0.17357,0.16933 -0.0635,0.1016 -0.0931,0.23283 -0.0296,0.13124 -0.0296,0.27094 v 1.0541 h -0.28786 v -1.1557 q 0,-0.14394 -0.0212,-0.26247 -0.0212,-0.11853 -0.0762,-0.19897 -0.0508,-0.0847 -0.14393,-0.12699 -0.0931,-0.0466 -0.23707,-0.0466 -0.1016,0 -0.20743,0.0466 -0.1016,0.0466 -0.18627,0.14393 -0.0804,0.0931 -0.13123,0.2413 -0.0508,0.14393 -0.0508,0.3429 v 1.016 h -0.28787 v -1.54517 q 0,-0.0804 -0.004,-0.20743 -0.004,-0.127 -0.0127,-0.2286 h 0.27517 q 0.008,0.0804 0.0127,0.1778 0.004,0.0974 0.004,0.16086 h 0.008 z"
       id="text8"
       style="font-size:4.23333px;font-family:'Avenir Next';-inkscape-font-specification:'Avenir Next, Normal';stroke-width:0.264583"
       inkscape:label="random text"
       aria-label="random" />
    <path
       d="m 180.50213,284.57346 q 0,0.22436 -0.0804,0.41486 -0.0762,0.1905 -0.2159,0.3302 -0.1397,0.1397 -0.33443,0.22014 -0.19474,0.0762 -0.42757,0.0762 -0.2286,0 -0.42333,-0.0762 -0.19474,-0.0804 -0.33444,-0.22014 -0.1397,-0.1397 -0.22013,-0.3302 -0.0762,-0.1905 -0.0762,-0.41486 0,-0.22437 0.0762,-0.41487 0.0804,-0.1905 0.22013,-0.3302 0.1397,-0.1397 0.33444,-0.2159 0.19473,-0.0804 0.42333,-0.0804 0.23283,0 0.42757,0.0804 0.19473,0.0762 0.33443,0.2159 0.1397,0.1397 0.2159,0.3302 0.0804,0.1905 0.0804,0.41487 z m -0.3048,0 q 0,-0.1651 -0.055,-0.30904 -0.0508,-0.14816 -0.14817,-0.254 -0.0974,-0.11006 -0.23706,-0.17356 -0.1397,-0.0635 -0.31327,-0.0635 -0.17357,0 -0.31327,0.0635 -0.13546,0.0635 -0.23283,0.17356 -0.0974,0.10584 -0.1524,0.254 -0.0508,0.14394 -0.0508,0.30904 0,0.1651 0.0508,0.31326 0.055,0.14394 0.1524,0.254 0.0974,0.10584 0.23283,0.16934 0.1397,0.0593 0.31327,0.0593 0.17357,0 0.31327,-0.0593 0.1397,-0.0635 0.23706,-0.16934 0.0974,-0.11006 0.14817,-0.254 0.055,-0.14816 0.055,-0.31326 z m 2.3622,0.9906 q -0.008,-0.0804 -0.0127,-0.1778 -0.004,-0.0974 -0.004,-0.16087 h -0.008 q -0.0847,0.17357 -0.27517,0.28363 -0.1905,0.10584 -0.40216,0.10584 -0.37677,0 -0.56727,-0.22437 -0.18627,-0.22437 -0.18627,-0.59267 v -1.21496 h 0.28787 v 1.09643 q 0,0.15663 0.0254,0.28363 0.0254,0.127 0.0847,0.22014 0.0635,0.0889 0.1651,0.1397 0.10583,0.0508 0.26246,0.0508 0.1143,0 0.22014,-0.0466 0.11006,-0.0466 0.19473,-0.1397 0.0847,-0.0974 0.13547,-0.2413 0.0508,-0.14817 0.0508,-0.34713 v -1.016 h 0.28786 v 1.54516 q 0,0.0804 0.004,0.20744 0.004,0.127 0.0127,0.2286 z m 1.91346,-1.7399 h -0.5588 v 1.1557 q 0,0.11006 0.0212,0.18203 0.0212,0.072 0.0593,0.1143 0.0423,0.0381 0.0974,0.055 0.055,0.0127 0.11854,0.0127 0.0593,0 0.12276,-0.0169 0.0677,-0.0169 0.127,-0.0466 l 0.0127,0.24977 q -0.0762,0.0296 -0.16086,0.0423 -0.0804,0.0169 -0.1778,0.0169 -0.0804,0 -0.16934,-0.0212 -0.0889,-0.0212 -0.1651,-0.0804 -0.0762,-0.0593 -0.127,-0.16087 -0.0466,-0.1016 -0.0466,-0.2667 v -1.23613 h -0.41064 v -0.2413 h 0.41064 v -0.5588 h 0.28786 v 0.5588 h 0.5588 z m 0.7366,2.7559 h -0.28787 v -2.9972 h 0.28787 v 0.3429 h 0.0127 q 0.12277,-0.19474 0.32597,-0.2921 0.20743,-0.1016 0.4191,-0.1016 0.23283,0 0.4191,0.0804 0.1905,0.0804 0.32173,0.22013 0.13547,0.1397 0.20743,0.3302 0.0762,0.1905 0.0762,0.41064 0,0.22013 -0.0762,0.41063 -0.072,0.1905 -0.20743,0.3302 -0.13123,0.1397 -0.32173,0.22013 -0.18627,0.0804 -0.4191,0.0804 -0.21167,0 -0.4191,-0.0974 -0.2032,-0.1016 -0.32597,-0.28787 h -0.0127 z m 1.47743,-2.0066 q 0,-0.1651 -0.0508,-0.30904 -0.0508,-0.14816 -0.14816,-0.254 -0.0931,-0.11006 -0.23284,-0.17356 -0.1397,-0.0635 -0.3175,-0.0635 -0.1651,0 -0.3048,0.0635 -0.1397,0.0593 -0.2413,0.16933 -0.1016,0.10583 -0.16086,0.254 -0.055,0.14393 -0.055,0.31327 0,0.16933 0.055,0.3175 0.0593,0.14393 0.16086,0.24976 0.1016,0.10584 0.2413,0.16934 0.1397,0.0593 0.3048,0.0593 0.1778,0 0.3175,-0.0593 0.1397,-0.0635 0.23284,-0.16934 0.0974,-0.11006 0.14816,-0.254 0.0508,-0.14816 0.0508,-0.31326 z m 2.3622,0.9906 q -0.008,-0.0804 -0.0127,-0.1778 -0.004,-0.0974 -0.004,-0.16087 h -0.008 q -0.0847,0.17357 -0.27517,0.28363 -0.19049,0.10584 -0.40216,0.10584 -0.37677,0 -0.56727,-0.22437 -0.18626,-0.22437 -0.18626,-0.59267 v -1.21496 h 0.28786 v 1.09643 q 0,0.15663 0.0254,0.28363 0.0254,0.127 0.0847,0.22014 0.0635,0.0889 0.1651,0.1397 0.10583,0.0508 0.26247,0.0508 0.1143,0 0.22013,-0.0466 0.11006,-0.0466 0.19473,-0.1397 0.0847,-0.0974 0.13547,-0.2413 0.0508,-0.14817 0.0508,-0.34713 v -1.016 h 0.28786 v 1.54516 q 0,0.0804 0.004,0.20744 0.004,0.127 0.0127,0.2286 z m 1.91346,-1.7399 h -0.5588 v 1.1557 q 0,0.11006 0.0212,0.18203 0.0212,0.072 0.0593,0.1143 0.0423,0.0381 0.0974,0.055 0.055,0.0127 0.11854,0.0127 0.0593,0 0.12276,-0.0169 0.0677,-0.0169 0.127,-0.0466 l 0.0127,0.24977 q -0.0762,0.0296 -0.16086,0.0423 -0.0804,0.0169 -0.1778,0.0169 -0.0804,0 -0.16934,-0.0212 -0.0889,-0.0212 -0.1651,-0.0804 -0.0762,-0.0593 -0.127,-0.16087 -0.0466,-0.1016 -0.0466,-0.2667 v -1.23613 h -0.41064 v -0.2413 h 0.41064 v -0.5588 h 0.28786 v 0.5588 h 0.5588 z"
       id="text9"
       style="font-size:4.23333px;font-family:'Avenir Next';-inkscape-font-specification:'Avenir Next, Normal';stroke-width:0.264583"
       inkscape:label="output text"
       aria-label="output" />
    <path
       d="m 105.86016,261.55738 q -0.0127,-0.2794 -0.18204,-0.46143 -0.1651,-0.18627 -0.47413,-0.18627 -0.14393,0 -0.2667,0.055 -0.12277,0.0508 -0.2159,0.14394 -0.0931,0.0889 -0.14817,0.20743 -0.055,0.1143 -0.0635,0.2413 z m 0.2921,0.0931 q 0,0.0296 0,0.0635 0,0.0339 -0.004,0.072 h -1.64253 q 0.004,0.14817 0.0593,0.2794 0.055,0.13123 0.1524,0.2286 0.0974,0.0974 0.2286,0.15663 0.13123,0.055 0.28363,0.055 0.22437,0 0.38523,-0.1016 0.1651,-0.10584 0.24977,-0.2413 l 0.2159,0.16933 q -0.1778,0.22437 -0.3937,0.32173 -0.21167,0.0974 -0.4572,0.0974 -0.22013,0 -0.41063,-0.0762 -0.18627,-0.0804 -0.32174,-0.22013 -0.13546,-0.1397 -0.2159,-0.3302 -0.0762,-0.1905 -0.0762,-0.41487 0,-0.22437 0.0762,-0.41487 0.0762,-0.1905 0.21167,-0.3302 0.13547,-0.1397 0.3175,-0.2159 0.18203,-0.0804 0.3937,-0.0804 0.23283,0 0.41063,0.0804 0.1778,0.0762 0.29634,0.21167 0.11853,0.13123 0.1778,0.30903 0.0635,0.1778 0.0635,0.381 z m 0.8763,-0.93133 q 0.008,0.0804 0.0127,0.1778 0.004,0.0974 0.004,0.16087 h 0.008 q 0.0847,-0.17357 0.27516,-0.2794 0.1905,-0.11007 0.40217,-0.11007 0.37677,0 0.56303,0.22437 0.1905,0.22436 0.1905,0.59266 v 1.21497 h -0.28786 v -1.09643 q 0,-0.15664 -0.0254,-0.28364 -0.0254,-0.127 -0.0889,-0.2159 -0.0593,-0.0931 -0.1651,-0.14393 -0.1016,-0.0508 -0.25824,-0.0508 -0.1143,0 -0.22436,0.0466 -0.10584,0.0466 -0.1905,0.14393 -0.0847,0.0931 -0.13547,0.2413 -0.0508,0.14393 -0.0508,0.3429 v 1.016 h -0.28787 v -1.54517 q 0,-0.0804 -0.004,-0.20743 -0.004,-0.127 -0.0127,-0.2286 z m 3.01413,1.9812 h -0.3175 l -0.80857,-1.9812 h 0.32173 l 0.64347,1.6764 h 0.008 l 0.6477,-1.6764 h 0.30903 z m 1.4478,-0.2032 q 0,0.0889 -0.0635,0.16087 -0.0635,0.0677 -0.1651,0.0677 -0.1016,0 -0.1651,-0.0677 -0.0635,-0.072 -0.0635,-0.16087 0,-0.0889 0.0635,-0.15663 0.0635,-0.072 0.1651,-0.072 0.1016,0 0.1651,0.072 0.0635,0.0677 0.0635,0.15663 z m 2.68816,-1.3081 q -0.0635,-0.12277 -0.19473,-0.19897 -0.127,-0.0804 -0.2921,-0.0804 -0.0762,0 -0.1524,0.0169 -0.0762,0.0169 -0.13547,0.055 -0.0593,0.0381 -0.0974,0.0974 -0.0339,0.0593 -0.0339,0.1397 0,0.1397 0.1143,0.2159 0.1143,0.072 0.35983,0.12277 0.35137,0.072 0.51647,0.21167 0.16933,0.13546 0.16933,0.3683 0,0.16933 -0.0677,0.28786 -0.0635,0.1143 -0.16934,0.1905 -0.10583,0.072 -0.2413,0.1016 -0.13123,0.0339 -0.2667,0.0339 -0.22436,0 -0.43603,-0.0931 -0.21167,-0.0931 -0.34713,-0.2921 l 0.2286,-0.16934 q 0.0762,0.13124 0.22436,0.22014 0.14817,0.0889 0.32597,0.0889 0.0931,0 0.1778,-0.0169 0.0847,-0.0169 0.14817,-0.0593 0.0635,-0.0423 0.1016,-0.10584 0.0381,-0.0677 0.0381,-0.1651 0,-0.15663 -0.1524,-0.23283 -0.14817,-0.0804 -0.4318,-0.14817 -0.0889,-0.0212 -0.1905,-0.0508 -0.0974,-0.0339 -0.18204,-0.0931 -0.0847,-0.0635 -0.1397,-0.15663 -0.055,-0.0931 -0.055,-0.23284 0,-0.1524 0.0593,-0.25823 0.0593,-0.11007 0.15663,-0.1778 0.1016,-0.072 0.2286,-0.10583 0.127,-0.0339 0.26247,-0.0339 0.20743,0 0.40216,0.0931 0.19474,0.0931 0.2921,0.26247 z m 1.1303,-0.14393 q 0.0804,-0.17357 0.2667,-0.27517 0.18627,-0.1016 0.39793,-0.1016 0.37677,0 0.56303,0.22437 0.1905,0.22436 0.1905,0.59266 v 1.21497 h -0.28786 v -1.09643 q 0,-0.15664 -0.0254,-0.28364 -0.0254,-0.127 -0.0889,-0.2159 -0.0593,-0.0931 -0.1651,-0.14393 -0.1016,-0.0508 -0.25823,-0.0508 -0.1143,0 -0.22437,0.0466 -0.10583,0.0466 -0.1905,0.14393 -0.0847,0.0931 -0.13547,0.2413 -0.0508,0.14393 -0.0508,0.3429 v 1.016 h -0.28786 v -3.2004 h 0.28786 v 1.54517 z m 3.41206,0.37676 q 0,-0.25823 -0.13546,-0.38523 -0.13547,-0.127 -0.3937,-0.127 -0.1778,0 -0.3302,0.0635 -0.1524,0.0635 -0.25824,0.16933 l -0.16086,-0.1905 q 0.12276,-0.12276 0.32173,-0.2032 0.2032,-0.0804 0.4572,-0.0804 0.16087,0 0.30057,0.0466 0.1397,0.0423 0.24553,0.13123 0.10583,0.0889 0.1651,0.22437 0.0593,0.13546 0.0593,0.3175 v 0.86783 q 0,0.1143 0.008,0.23707 0.008,0.12276 0.0254,0.20743 h -0.25823 q -0.0127,-0.072 -0.0212,-0.15663 -0.008,-0.0847 -0.008,-0.1651 h -0.008 q -0.13547,0.19896 -0.30903,0.28786 -0.16934,0.0847 -0.41064,0.0847 -0.1143,0 -0.23706,-0.0339 -0.11854,-0.0296 -0.22014,-0.1016 -0.0974,-0.072 -0.1651,-0.18626 -0.0635,-0.1143 -0.0635,-0.2794 0,-0.2286 0.1143,-0.35984 0.11854,-0.13546 0.31327,-0.19896 0.19473,-0.0677 0.4445,-0.0847 0.254,-0.0212 0.52493,-0.0212 z m -0.0847,0.28787 q -0.1778,0 -0.35984,0.0169 -0.1778,0.0127 -0.32596,0.0593 -0.14394,0.0423 -0.23707,0.127 -0.0931,0.0847 -0.0931,0.22437 0,0.10583 0.0381,0.1778 0.0423,0.072 0.11006,0.11853 0.0677,0.0423 0.14817,0.0635 0.0847,0.0169 0.16933,0.0169 0.1524,0 0.27094,-0.0508 0.11853,-0.055 0.19896,-0.14393 0.0804,-0.0931 0.12277,-0.21167 0.0423,-0.11853 0.0423,-0.24976 v -0.14817 z m 1.3843,2.0066 h -0.28787 v -2.9972 h 0.28787 v 0.3429 h 0.0127 q 0.12276,-0.19473 0.32596,-0.2921 0.20744,-0.1016 0.4191,-0.1016 0.23284,0 0.4191,0.0804 0.1905,0.0804 0.32174,0.22014 0.13546,0.1397 0.20743,0.3302 0.0762,0.1905 0.0762,0.41063 0,0.22013 -0.0762,0.41063 -0.072,0.1905 -0.20743,0.3302 -0.13124,0.1397 -0.32174,0.22014 -0.18626,0.0804 -0.4191,0.0804 -0.21166,0 -0.4191,-0.0974 -0.2032,-0.1016 -0.32596,-0.28786 h -0.0127 z m 1.47743,-2.0066 q 0,-0.1651 -0.0508,-0.30903 -0.0508,-0.14817 -0.14817,-0.254 -0.0931,-0.11007 -0.23283,-0.17357 -0.1397,-0.0635 -0.3175,-0.0635 -0.1651,0 -0.3048,0.0635 -0.1397,0.0593 -0.2413,0.16933 -0.1016,0.10584 -0.16087,0.254 -0.055,0.14394 -0.055,0.31327 0,0.16933 0.055,0.3175 0.0593,0.14393 0.16087,0.24977 0.1016,0.10583 0.2413,0.16933 0.1397,0.0593 0.3048,0.0593 0.1778,0 0.3175,-0.0593 0.1397,-0.0635 0.23283,-0.16933 0.0974,-0.11007 0.14817,-0.254 0.0508,-0.14817 0.0508,-0.31327 z m 2.43417,-0.1524 q -0.0127,-0.2794 -0.18204,-0.46143 -0.1651,-0.18627 -0.47413,-0.18627 -0.14393,0 -0.2667,0.055 -0.12277,0.0508 -0.2159,0.14394 -0.0931,0.0889 -0.14817,0.20743 -0.055,0.1143 -0.0635,0.2413 z m 0.2921,0.0931 q 0,0.0296 0,0.0635 0,0.0339 -0.004,0.072 h -1.64253 q 0.004,0.14817 0.0593,0.2794 0.055,0.13123 0.1524,0.2286 0.0974,0.0974 0.2286,0.15663 0.13123,0.055 0.28363,0.055 0.22437,0 0.38523,-0.1016 0.1651,-0.10584 0.24977,-0.2413 l 0.2159,0.16933 q -0.1778,0.22437 -0.3937,0.32173 -0.21167,0.0974 -0.4572,0.0974 -0.22013,0 -0.41063,-0.0762 -0.18627,-0.0804 -0.32174,-0.22013 -0.13546,-0.1397 -0.2159,-0.3302 -0.0762,-0.1905 -0.0762,-0.41487 0,-0.22437 0.0762,-0.41487 0.0762,-0.1905 0.21167,-0.3302 0.13547,-0.1397 0.3175,-0.2159 0.18203,-0.0804 0.3937,-0.0804 0.23283,0 0.41063,0.0804 0.1778,0.0762 0.29634,0.21167 0.11853,0.13123 0.1778,0.30903 0.0635,0.1778 0.0635,0.381 z"
       id="text10"
       style="font-size:4.23333px;font-family:'Avenir Next';-inkscape-font-specification:'Avenir Next, Normal';stroke-width:0.264583"
       inkscape:label="env shape text"
       aria-label="env. shape" />
    <path
       d="m 137.2436,263.71638 h -0.28786 v -2.9972 h 0.28786 v 0.3429 h 0.0127 q 0.12277,-0.19473 0.32597,-0.2921 0.20743,-0.1016 0.4191,-0.1016 0.23283,0 0.4191,0.0804 0.1905,0.0804 0.32173,0.22014 0.13547,0.1397 0.20744,0.3302 0.0762,0.1905 0.0762,0.41063 0,0.22013 -0.0762,0.41063 -0.072,0.1905 -0.20744,0.3302 -0.13123,0.1397 -0.32173,0.22014 -0.18627,0.0804 -0.4191,0.0804 -0.21167,0 -0.4191,-0.0974 -0.2032,-0.1016 -0.32597,-0.28786 h -0.0127 z m 1.47744,-2.0066 q 0,-0.1651 -0.0508,-0.30903 -0.0508,-0.14817 -0.14817,-0.254 -0.0931,-0.11007 -0.23283,-0.17357 -0.1397,-0.0635 -0.3175,-0.0635 -0.1651,0 -0.3048,0.0635 -0.1397,0.0593 -0.2413,0.16933 -0.1016,0.10584 -0.16087,0.254 -0.055,0.14394 -0.055,0.31327 0,0.16933 0.055,0.3175 0.0593,0.14393 0.16087,0.24977 0.1016,0.10583 0.2413,0.16933 0.1397,0.0593 0.3048,0.0593 0.1778,0 0.3175,-0.0593 0.1397,-0.0635 0.23283,-0.16933 0.0974,-0.11007 0.14817,-0.254 0.0508,-0.14817 0.0508,-0.31327 z m 2.89136,0 q 0,0.22437 -0.0804,0.41487 -0.0762,0.1905 -0.2159,0.3302 -0.1397,0.1397 -0.33444,0.22013 -0.19473,0.0762 -0.42756,0.0762 -0.2286,0 -0.42333,-0.0762 -0.19474,-0.0804 -0.33444,-0.22013 -0.1397,-0.1397 -0.22013,-0.3302 -0.0762,-0.1905 -0.0762,-0.41487 0,-0.22437 0.0762,-0.41487 0.0804,-0.1905 0.22013,-0.3302 0.1397,-0.1397 0.33444,-0.2159 0.19473,-0.0804 0.42333,-0.0804 0.23283,0 0.42756,0.0804 0.19474,0.0762 0.33444,0.2159 0.1397,0.1397 0.2159,0.3302 0.0804,0.1905 0.0804,0.41487 z m -0.3048,0 q 0,-0.1651 -0.055,-0.30903 -0.0508,-0.14817 -0.14817,-0.254 -0.0974,-0.11007 -0.23707,-0.17357 -0.13969,-0.0635 -0.31326,-0.0635 -0.17357,0 -0.31327,0.0635 -0.13546,0.0635 -0.23283,0.17357 -0.0974,0.10583 -0.1524,0.254 -0.0508,0.14393 -0.0508,0.30903 0,0.1651 0.0508,0.31327 0.055,0.14393 0.1524,0.254 0.0974,0.10583 0.23283,0.16933 0.1397,0.0593 0.31327,0.0593 0.17357,0 0.31326,-0.0593 0.1397,-0.0635 0.23707,-0.16933 0.0974,-0.11007 0.14817,-0.254 0.055,-0.14817 0.055,-0.31327 z m 1.97697,-0.5207 q -0.0635,-0.12277 -0.19474,-0.19897 -0.127,-0.0804 -0.2921,-0.0804 -0.0762,0 -0.1524,0.0169 -0.0762,0.0169 -0.13546,0.055 -0.0593,0.0381 -0.0974,0.0974 -0.0339,0.0593 -0.0339,0.1397 0,0.1397 0.1143,0.2159 0.1143,0.072 0.35984,0.12277 0.35136,0.072 0.51646,0.21167 0.16934,0.13546 0.16934,0.3683 0,0.16933 -0.0677,0.28786 -0.0635,0.1143 -0.16933,0.1905 -0.10583,0.072 -0.2413,0.1016 -0.13123,0.0339 -0.2667,0.0339 -0.22437,0 -0.43603,-0.0931 -0.21167,-0.0931 -0.34714,-0.2921 l 0.2286,-0.16934 q 0.0762,0.13124 0.22437,0.22014 0.14817,0.0889 0.32597,0.0889 0.0931,0 0.1778,-0.0169 0.0847,-0.0169 0.14816,-0.0593 0.0635,-0.0423 0.1016,-0.10584 0.0381,-0.0677 0.0381,-0.1651 0,-0.15663 -0.1524,-0.23283 -0.14816,-0.0804 -0.4318,-0.14817 -0.0889,-0.0212 -0.1905,-0.0508 -0.0974,-0.0339 -0.18203,-0.0931 -0.0847,-0.0635 -0.1397,-0.15663 -0.055,-0.0931 -0.055,-0.23284 0,-0.1524 0.0593,-0.25823 0.0593,-0.11007 0.15664,-0.1778 0.1016,-0.072 0.2286,-0.10583 0.127,-0.0339 0.26246,-0.0339 0.20744,0 0.40217,0.0931 0.19473,0.0931 0.2921,0.26247 z m 1.1176,1.5113 h -0.28787 v -1.9812 h 0.28787 z m 0.0593,-2.7432 q 0,0.0889 -0.0635,0.14817 -0.0635,0.055 -0.1397,0.055 -0.0762,0 -0.1397,-0.055 -0.0635,-0.0593 -0.0635,-0.14817 0,-0.0889 0.0635,-0.14393 0.0635,-0.0593 0.1397,-0.0593 0.0762,0 0.1397,0.0593 0.0635,0.055 0.0635,0.14393 z m 1.6002,1.0033 h -0.5588 v 1.1557 q 0,0.11007 0.0212,0.18203 0.0212,0.072 0.0593,0.1143 0.0423,0.0381 0.0974,0.055 0.055,0.0127 0.11854,0.0127 0.0593,0 0.12276,-0.0169 0.0677,-0.0169 0.127,-0.0466 l 0.0127,0.24976 q -0.0762,0.0296 -0.16086,0.0423 -0.0804,0.0169 -0.1778,0.0169 -0.0804,0 -0.16934,-0.0212 -0.0889,-0.0212 -0.1651,-0.0804 -0.0762,-0.0593 -0.127,-0.16087 -0.0466,-0.1016 -0.0466,-0.2667 v -1.23613 h -0.41064 v -0.2413 h 0.41064 v -0.5588 h 0.28786 v 0.5588 h 0.5588 z m 0.74083,1.7399 h -0.28786 v -1.9812 h 0.28786 z m 0.0593,-2.7432 q 0,0.0889 -0.0635,0.14817 -0.0635,0.055 -0.1397,0.055 -0.0762,0 -0.1397,-0.055 -0.0635,-0.0593 -0.0635,-0.14817 0,-0.0889 0.0635,-0.14393 0.0635,-0.0593 0.1397,-0.0593 0.0762,0 0.1397,0.0593 0.0635,0.055 0.0635,0.14393 z m 2.67546,1.7526 q 0,0.22437 -0.0804,0.41487 -0.0762,0.1905 -0.2159,0.3302 -0.1397,0.1397 -0.33443,0.22013 -0.19474,0.0762 -0.42757,0.0762 -0.2286,0 -0.42333,-0.0762 -0.19474,-0.0804 -0.33443,-0.22013 -0.1397,-0.1397 -0.22014,-0.3302 -0.0762,-0.1905 -0.0762,-0.41487 0,-0.22437 0.0762,-0.41487 0.0804,-0.1905 0.22014,-0.3302 0.13969,-0.1397 0.33443,-0.2159 0.19473,-0.0804 0.42333,-0.0804 0.23283,0 0.42757,0.0804 0.19473,0.0762 0.33443,0.2159 0.1397,0.1397 0.2159,0.3302 0.0804,0.1905 0.0804,0.41487 z m -0.3048,0 q 0,-0.1651 -0.055,-0.30903 -0.0508,-0.14817 -0.14817,-0.254 -0.0974,-0.11007 -0.23706,-0.17357 -0.1397,-0.0635 -0.31327,-0.0635 -0.17357,0 -0.31327,0.0635 -0.13546,0.0635 -0.23283,0.17357 -0.0974,0.10583 -0.1524,0.254 -0.0508,0.14393 -0.0508,0.30903 0,0.1651 0.0508,0.31327 0.055,0.14393 0.1524,0.254 0.0974,0.10583 0.23283,0.16933 0.1397,0.0593 0.31327,0.0593 0.17357,0 0.31327,-0.0593 0.1397,-0.0635 0.23706,-0.16933 0.0974,-0.11007 0.14817,-0.254 0.055,-0.14817 0.055,-0.31327 z m 1.1811,-0.9906 q 0.008,0.0804 0.0127,0.1778 0.004,0.0974 0.004,0.16087 h 0.008 q 0.0847,-0.17357 0.27517,-0.2794 0.1905,-0.11007 0.40217,-0.11007 0.37676,0 0.56303,0.22437 0.1905,0.22436 0.1905,0.59266 v 1.21497 h -0.28787 v -1.09643 q 0,-0.15664 -0.0254,-0.28364 -0.0254,-0.127 -0.0889,-0.2159 -0.0593,-0.0931 -0.1651,-0.14393 -0.1016,-0.0508 -0.25823,-0.0508 -0.1143,0 -0.22437,0.0466 -0.10583,0.0466 -0.1905,0.14393 -0.0847,0.0931 -0.13546,0.2413 -0.0508,0.14393 -0.0508,0.3429 v 1.016 h -0.28787 v -1.54517 q 0,-0.0804 -0.004,-0.20743 -0.004,-0.127 -0.0127,-0.2286 z"
       id="text11"
       style="font-size:4.23333px;font-family:'Avenir Next';-inkscape-font-specification:'Avenir Next, Normal';stroke-width:0.264583"
       inkscape:label="position text"
       aria-label="position" />
    <path
       d="m 33.017025,187.07637 -1.422398,-3.43746 h -6.959586 l -1.473197,3.43746 h -0.406399 l 5.198523,-11.98878 H 28.4281 l 4.995324,11.98878 z m -4.842924,-11.75171 -3.403593,7.99252 h 6.705586 z m 7.721591,6.01132 q 0.338666,-1.2192 1.083731,-1.74413 0.745065,-0.54186 1.608664,-0.54186 0.08467,0 0.152399,0 0.06773,0 0.1524,0.0169 v 0.32173 q -0.06773,-0.0169 -0.135466,-0.0169 -0.0508,0 -0.08467,0 -0.745065,0 -1.269997,0.33866 -0.524933,0.32174 -0.863599,0.8636 -0.338666,0.52494 -0.507999,1.18533 -0.152399,0.64347 -0.152399,1.28693 v 4.03013 h -0.372533 v -5.82505 q 0,-0.18627 -0.01693,-0.4572 0,-0.27094 -0.01693,-0.54187 0,-0.28787 -0.01693,-0.54187 -0.01693,-0.25399 -0.03387,-0.42333 h 0.372532 q 0.01693,0.16934 0.01693,0.42333 0.01693,0.254 0.01693,0.5588 0.01693,0.28787 0.01693,0.57574 0.01693,0.27093 0.01693,0.49106 h 0.03387 z m 10.075318,3.97933 q 0,0.44026 0.03387,0.94826 0.0508,0.49107 0.1016,0.8128 h -0.3556 q -0.03387,-0.16933 -0.0508,-0.4064 -0.01693,-0.254 -0.0508,-0.508 -0.01693,-0.27093 -0.03387,-0.52493 0,-0.254 0,-0.42333 h -0.0508 q -0.338666,1.0668 -1.168398,1.59173 -0.829731,0.508 -1.777996,0.508 -0.474132,0 -0.948265,-0.13547 -0.457199,-0.13547 -0.829732,-0.4064 -0.372532,-0.27093 -0.609598,-0.69426 -0.220133,-0.42334 -0.220133,-0.99907 0,-0.82973 0.423332,-1.33773 0.440266,-0.508 1.083731,-0.77893 0.643466,-0.28787 1.371598,-0.37253 0.745065,-0.0847 1.354664,-0.0847 h 1.354664 v -0.62653 q 0,-1.30387 -0.694266,-1.89653 -0.694265,-0.6096 -1.811863,-0.6096 -0.694265,0 -1.303864,0.254 -0.592665,0.254 -1.066798,0.67733 l -0.203199,-0.28787 q 0.541865,-0.47413 1.219197,-0.71119 0.694266,-0.254 1.354664,-0.254 1.337731,0 2.09973,0.69426 0.778931,0.67733 0.778931,2.15053 z m -0.372532,-2.4892 h -1.202265 q -0.643465,0 -1.354664,0.0847 -0.711198,0.0677 -1.303864,0.3048 -0.592665,0.23706 -0.982131,0.67733 -0.372533,0.44027 -0.372533,1.18533 0,0.54187 0.2032,0.9144 0.220133,0.3556 0.541866,0.57573 0.338666,0.22013 0.728131,0.32173 0.4064,0.1016 0.761999,0.1016 0.863598,0 1.43933,-0.32173 0.575733,-0.32173 0.914399,-0.8128 0.355599,-0.508 0.491065,-1.10066 0.135467,-0.6096 0.135467,-1.18533 z m 4.131711,-1.49013 q 0.169333,-0.54186 0.491066,-0.9652 0.321733,-0.42333 0.728132,-0.7112 0.406399,-0.30479 0.880532,-0.45719 0.474132,-0.1524 0.982131,-0.1524 0.812798,0 1.354664,0.28786 0.541866,0.28787 0.863598,0.762 0.321733,0.47413 0.457199,1.0668 0.135467,0.59266 0.135467,1.20226 v 4.70746 h -0.372533 v -4.67359 q 0,-0.47413 -0.1016,-1.016 -0.101599,-0.54186 -0.389466,-0.98213 -0.270932,-0.44027 -0.745065,-0.72813 -0.474132,-0.3048 -1.202264,-0.3048 -0.643465,0 -1.219198,0.27093 -0.558799,0.254 -0.982131,0.74507 -0.406399,0.49106 -0.660399,1.20226 -0.237066,0.69427 -0.237066,1.59173 v 3.89466 h -0.372533 v -5.82505 q 0,-0.18627 -0.01693,-0.4572 0,-0.27094 -0.01693,-0.54187 0,-0.28787 -0.01693,-0.54187 -0.01693,-0.25399 -0.03387,-0.42333 h 0.372533 q 0.01693,0.16934 0.01693,0.42333 0.01693,0.254 0.01693,0.5588 0.01693,0.28787 0.01693,0.57574 0.01693,0.27093 0.01693,0.49106 h 0.03387 z m 9.533455,-2.38759 v -3.8608 h 0.372532 v 3.8608 z m 8.500522,6.09598 q 0,0.52494 -0.203199,0.94827 -0.2032,0.4064 -0.558799,0.69426 -0.338666,0.28787 -0.795865,0.44027 -0.457199,0.1524 -0.982132,0.1524 -0.863598,0 -1.574796,-0.32173 -0.694266,-0.33867 -1.151465,-0.98213 l 0.3048,-0.2032 q 0.846665,1.18533 2.438395,1.18533 0.372532,0 0.745065,-0.11854 0.389466,-0.11853 0.694265,-0.3556 0.321733,-0.23706 0.507999,-0.59266 0.2032,-0.3556 0.2032,-0.8128 0,-0.54186 -0.254,-0.88053 -0.237066,-0.33867 -0.609598,-0.54187 -0.372533,-0.2032 -0.829732,-0.32173 -0.440266,-0.13547 -0.829732,-0.23707 -0.423332,-0.11853 -0.795865,-0.25399 -0.372533,-0.1524 -0.660399,-0.37254 -0.270932,-0.23706 -0.440265,-0.57573 -0.1524,-0.33867 -0.1524,-0.84666 0,-0.508 0.203199,-0.88054 0.2032,-0.37253 0.541866,-0.60959 0.338666,-0.254 0.761999,-0.37254 0.440265,-0.13546 0.880531,-0.13546 1.59173,0 2.387595,1.13453 l -0.321732,0.18626 q -0.389466,-0.508 -0.880532,-0.74506 -0.491066,-0.254 -1.185331,-0.254 -0.321733,0 -0.677332,0.0847 -0.355599,0.0847 -0.660399,0.28786 -0.287866,0.18627 -0.491065,0.508 -0.186267,0.32173 -0.186267,0.77893 0,0.508 0.1524,0.8128 0.169333,0.3048 0.457199,0.49107 0.287866,0.18626 0.694266,0.32173 0.406399,0.11853 0.897464,0.23707 0.4572,0.11853 0.880532,0.28786 0.440266,0.1524 0.761999,0.38947 0.338666,0.23706 0.524932,0.59266 0.203199,0.3556 0.203199,0.88053 z m 16.984114,1.33773 q -0.711199,0.38947 -1.79493,0.7112 -1.083731,0.32174 -2.506128,0.32174 -1.422397,0 -2.590795,-0.49107 -1.168398,-0.49107 -1.998129,-1.33773 -0.829732,-0.8636 -1.286931,-2.01506 -0.440266,-1.1684 -0.440266,-2.52306 0,-1.35467 0.457199,-2.50613 0.457199,-1.1684 1.269998,-1.99813 0.829731,-0.84667 1.981196,-1.3208 1.151464,-0.47413 2.539995,-0.47413 1.219197,0 2.235195,0.37253 1.015998,0.37253 1.79493,1.016 l -0.270933,0.27093 q -0.338666,-0.32173 -0.795865,-0.5588 -0.440266,-0.254 -0.948265,-0.42333 -0.491065,-0.16933 -1.015998,-0.254 -0.524932,-0.0847 -1.015998,-0.0847 -1.320797,0 -2.404528,0.47414 -1.083731,0.4572 -1.862663,1.26999 -0.761999,0.8128 -1.185331,1.89653 -0.406399,1.08373 -0.406399,2.31987 0,1.23613 0.406399,2.33679 0.406399,1.10067 1.168397,1.9304 0.778932,0.8128 1.879597,1.28693 1.117598,0.47413 2.523061,0.47413 1.219198,0 2.167463,-0.254 0.948265,-0.254 1.74413,-0.64346 v -4.70746 h -3.115727 v -0.32173 h 3.471326 v 5.23238 z m 3.793061,-5.04612 q 0.338666,-1.2192 1.083731,-1.74413 0.745065,-0.54186 1.608664,-0.54186 0.08467,0 0.152399,0 0.06773,0 0.1524,0.0169 v 0.32173 q -0.06773,-0.0169 -0.135466,-0.0169 -0.0508,0 -0.08467,0 -0.745065,0 -1.269997,0.33866 -0.524933,0.32174 -0.863599,0.8636 -0.338666,0.52494 -0.507999,1.18533 -0.152399,0.64347 -0.152399,1.28693 v 4.03013 h -0.372533 v -5.82505 q 0,-0.18627 -0.01693,-0.4572 0,-0.27094 -0.01693,-0.54187 0,-0.28787 -0.01693,-0.54187 -0.01693,-0.25399 -0.03387,-0.42333 h 0.372533 q 0.01693,0.16934 0.01693,0.42333 0.01693,0.254 0.01693,0.5588 0.01693,0.28787 0.01693,0.57574 0.01693,0.27093 0.01693,0.49106 h 0.03387 z m 10.075322,3.97933 q 0,0.44026 0.03387,0.94826 0.0508,0.49107 0.1016,0.8128 h -0.3556 q -0.03387,-0.16933 -0.0508,-0.4064 -0.01693,-0.254 -0.0508,-0.508 -0.01693,-0.27093 -0.03387,-0.52493 0,-0.254 0,-0.42333 h -0.0508 q -0.338666,1.0668 -1.168398,1.59173 -0.829731,0.508 -1.777996,0.508 -0.474133,0 -0.948265,-0.13547 -0.457199,-0.13547 -0.829732,-0.4064 -0.372532,-0.27093 -0.609599,-0.69426 -0.220132,-0.42334 -0.220132,-0.99907 0,-0.82973 0.423332,-1.33773 0.440266,-0.508 1.083731,-0.77893 0.643466,-0.28787 1.371598,-0.37253 0.745065,-0.0847 1.354664,-0.0847 h 1.354664 v -0.62653 q 0,-1.30387 -0.694266,-1.89653 -0.694265,-0.6096 -1.811863,-0.6096 -0.694265,0 -1.303864,0.254 -0.592665,0.254 -1.066798,0.67733 l -0.203199,-0.28787 q 0.541865,-0.47413 1.219197,-0.71119 0.694265,-0.254 1.354664,-0.254 1.337731,0 2.099729,0.69426 0.778932,0.67733 0.778932,2.15053 z m -0.372532,-2.4892 h -1.202265 q -0.643465,0 -1.354664,0.0847 -0.711198,0.0677 -1.303864,0.3048 -0.592665,0.23706 -0.982131,0.67733 -0.372533,0.44027 -0.372533,1.18533 0,0.54187 0.2032,0.9144 0.220133,0.3556 0.541865,0.57573 0.338666,0.22013 0.728132,0.32173 0.406399,0.1016 0.761999,0.1016 0.863598,0 1.43933,-0.32173 0.575732,-0.32173 0.914398,-0.8128 0.3556,-0.508 0.491066,-1.10066 0.135467,-0.6096 0.135467,-1.18533 z m 4.131709,-1.49013 q 0.16933,-0.54186 0.49106,-0.9652 0.32173,-0.42333 0.72813,-0.7112 0.4064,-0.30479 0.88054,-0.45719 0.47413,-0.1524 0.98213,-0.1524 0.8128,0 1.35466,0.28786 0.54187,0.28787 0.8636,0.762 0.32173,0.47413 0.4572,1.0668 0.13546,0.59266 0.13546,1.20226 v 4.70746 h -0.37253 v -4.67359 q 0,-0.47413 -0.1016,-1.016 -0.1016,-0.54186 -0.38946,-0.98213 -0.27094,-0.44027 -0.74507,-0.72813 -0.47413,-0.3048 -1.20226,-0.3048 -0.64347,0 -1.2192,0.27093 -0.5588,0.254 -0.98213,0.74507 -0.4064,0.49106 -0.6604,1.20226 -0.23707,0.69427 -0.23707,1.59173 v 3.89466 h -0.37253 v -5.82505 q 0,-0.18627 -0.0169,-0.4572 0,-0.27094 -0.0169,-0.54187 0,-0.28787 -0.0169,-0.54187 -0.0169,-0.25399 -0.0339,-0.42333 h 0.37254 q 0.0169,0.16934 0.0169,0.42333 0.0169,0.254 0.0169,0.5588 0.0169,0.28787 0.0169,0.57574 0.0169,0.27093 0.0169,0.49106 h 0.0339 z m 15.00291,3.69146 q -0.18626,0.54187 -0.508,0.98213 -0.3048,0.42333 -0.7112,0.7112 -0.40639,0.28787 -0.88053,0.44027 -0.47413,0.1524 -0.98213,0.1524 -0.8128,0 -1.35466,-0.28787 -0.54187,-0.28787 -0.8636,-0.762 -0.32173,-0.47413 -0.4572,-1.0668 -0.13547,-0.59266 -0.13547,-1.20226 v -4.70746 h 0.37254 v 4.67359 q 0,0.49107 0.1016,1.03293 0.1016,0.52494 0.37253,0.9652 0.28787,0.44027 0.74506,0.74507 0.47414,0.28786 1.2192,0.28786 0.64347,0 1.20227,-0.254 0.57573,-0.27093 0.98213,-0.76199 0.42333,-0.49107 0.6604,-1.18534 0.254,-0.71119 0.254,-1.60866 v -3.89466 h 0.37253 v 5.82506 q 0,0.18626 0,0.4572 0.0169,0.27093 0.0169,0.5588 0.0169,0.27093 0.0339,0.52493 0.0169,0.254 0.0339,0.42333 h -0.37253 q -0.0169,-0.16933 -0.0339,-0.42333 0,-0.254 -0.0169,-0.54187 0,-0.3048 -0.0169,-0.57573 0,-0.28787 0,-0.508 h -0.0339 z m 3.92853,2.04893 V 174.2748 h 0.37253 v 12.80157 z m 9.17785,-1.76106 q 0,0.44026 0.0339,0.94826 0.0508,0.49107 0.1016,0.8128 h -0.3556 q -0.0339,-0.16933 -0.0508,-0.4064 -0.0169,-0.254 -0.0508,-0.508 -0.0169,-0.27093 -0.0339,-0.52493 0,-0.254 0,-0.42333 h -0.0508 q -0.33866,1.0668 -1.16839,1.59173 -0.82974,0.508 -1.778,0.508 -0.47413,0 -0.94827,-0.13547 -0.45719,-0.13547 -0.82973,-0.4064 -0.37253,-0.27093 -0.6096,-0.69426 -0.22013,-0.42334 -0.22013,-0.99907 0,-0.82973 0.42333,-1.33773 0.44027,-0.508 1.08373,-0.77893 0.64347,-0.28787 1.3716,-0.37253 0.74507,-0.0847 1.35467,-0.0847 h 1.35466 v -0.62653 q 0,-1.30387 -0.69427,-1.89653 -0.69426,-0.6096 -1.81186,-0.6096 -0.69426,0 -1.30386,0.254 -0.59267,0.254 -1.0668,0.67733 l -0.2032,-0.28787 q 0.54187,-0.47413 1.2192,-0.71119 0.69426,-0.254 1.35466,-0.254 1.33773,0 2.09973,0.69426 0.77893,0.67733 0.77893,2.15053 z m -0.37253,-2.4892 h -1.20226 q -0.64347,0 -1.35467,0.0847 -0.7112,0.0677 -1.30386,0.3048 -0.59267,0.23706 -0.98213,0.67733 -0.37254,0.44027 -0.37254,1.18533 0,0.54187 0.2032,0.9144 0.22014,0.3556 0.54187,0.57573 0.33866,0.22013 0.72813,0.32173 0.4064,0.1016 0.762,0.1016 0.8636,0 1.43933,-0.32173 0.57573,-0.32173 0.9144,-0.8128 0.3556,-0.508 0.49106,-1.10066 0.13547,-0.6096 0.13547,-1.18533 z m 4.13171,-1.49013 q 0.33866,-1.2192 1.08373,-1.74413 0.74506,-0.54186 1.60866,-0.54186 0.0847,0 0.1524,0 0.0677,0 0.1524,0.0169 v 0.32173 q -0.0677,-0.0169 -0.13547,-0.0169 -0.0508,0 -0.0847,0 -0.74507,0 -1.27,0.33866 -0.52493,0.32174 -0.8636,0.8636 -0.33866,0.52494 -0.508,1.18533 -0.1524,0.64347 -0.1524,1.28693 v 4.03013 h -0.37253 v -5.82505 q 0,-0.18627 -0.0169,-0.4572 0,-0.27094 -0.0169,-0.54187 0,-0.28787 -0.0169,-0.54187 -0.0169,-0.25399 -0.0339,-0.42333 h 0.37254 q 0.0169,0.16934 0.0169,0.42333 0.0169,0.254 0.0169,0.5588 0.0169,0.28787 0.0169,0.57574 0.0169,0.27093 0.0169,0.49106 h 0.0339 z m 15.86649,2.86173 q 0,0.762 -0.3048,1.3716 -0.28787,0.59266 -0.77893,1.01599 -0.49107,0.4064 -1.1684,0.6096 -0.6604,0.22014 -1.38853,0.22014 -1.1176,0 -2.04893,-0.38947 -0.9144,-0.4064 -1.524,-1.08373 l 0.28787,-0.254 q 0.64347,0.69426 1.49013,1.04986 0.8636,0.33867 1.778,0.33867 0.6604,0 1.25306,-0.18627 0.59267,-0.2032 1.04987,-0.55879 0.4572,-0.37254 0.71119,-0.89747 0.27094,-0.54187 0.27094,-1.23613 0,-0.69427 -0.28787,-1.1684 -0.28786,-0.47413 -0.74506,-0.8128 -0.4572,-0.33866 -1.04987,-0.5588 -0.57573,-0.23706 -1.1684,-0.42333 -0.74506,-0.23706 -1.37159,-0.49106 -0.6096,-0.27094 -1.0668,-0.64347 -0.44027,-0.38947 -0.69427,-0.9144 -0.23706,-0.54186 -0.23706,-1.30386 0,-0.74507 0.28786,-1.3208 0.3048,-0.59266 0.8128,-0.98213 0.508,-0.4064 1.1684,-0.6096 0.67733,-0.22013 1.4224,-0.22013 0.91439,0 1.72719,0.3556 0.82973,0.33866 1.35467,0.98213 l -0.28787,0.254 q -0.47413,-0.59267 -1.2192,-0.9144 -0.72813,-0.33867 -1.59173,-0.33867 -0.6096,0 -1.20226,0.16934 -0.57573,0.16933 -1.04987,0.52493 -0.47413,0.33867 -0.76199,0.8636 -0.28787,0.52493 -0.28787,1.23613 0,0.69426 0.254,1.18533 0.254,0.47413 0.67733,0.8128 0.42333,0.33866 0.94827,0.5588 0.54186,0.22013 1.10066,0.4064 0.762,0.254 1.4224,0.52493 0.6604,0.254 1.15146,0.62653 0.508,0.37253 0.77893,0.9144 0.28787,0.52493 0.28787,1.28693 z m 3.99627,5.45252 q -0.27093,0.72813 -0.72813,1.1176 -0.44027,0.4064 -1.15147,0.4064 -0.1524,0 -0.3556,-0.0339 -0.2032,-0.0339 -0.33866,-0.0847 l 0.1016,-0.32174 q 0.1016,0.0339 0.27093,0.0677 0.18627,0.0339 0.3556,0.0339 0.3556,0 0.6096,-0.13546 0.27093,-0.13547 0.4572,-0.3556 0.18626,-0.2032 0.3048,-0.47414 0.13546,-0.27093 0.23706,-0.54186 l 0.74507,-2.032 -3.08186,-8.00945 h 0.4064 l 2.86172,7.58612 2.76013,-7.58612 h 0.4064 z m 6.43464,-8.31425 q 0.16933,-0.54186 0.49106,-0.9652 0.32174,-0.42333 0.72813,-0.7112 0.4064,-0.30479 0.88054,-0.45719 0.47413,-0.1524 0.98213,-0.1524 0.8128,0 1.35466,0.28786 0.54187,0.28787 0.8636,0.762 0.32173,0.47413 0.4572,1.0668 0.13547,0.59266 0.13547,1.20226 v 4.70746 h -0.37254 v -4.67359 q 0,-0.47413 -0.1016,-1.016 -0.1016,-0.54186 -0.38946,-0.98213 -0.27094,-0.44027 -0.74507,-0.72813 -0.47413,-0.3048 -1.20226,-0.3048 -0.64347,0 -1.2192,0.27093 -0.5588,0.254 -0.98213,0.74507 -0.4064,0.49106 -0.6604,1.20226 -0.23707,0.69427 -0.23707,1.59173 v 3.89466 h -0.37253 v -5.82505 q 0,-0.18627 -0.0169,-0.4572 0,-0.27094 -0.0169,-0.54187 0,-0.28787 -0.0169,-0.54187 -0.0169,-0.25399 -0.0339,-0.42333 h 0.37254 q 0.0169,0.16934 0.0169,0.42333 0.0169,0.254 0.0169,0.5588 0.0169,0.28787 0.0169,0.57574 0.0169,0.27093 0.0169,0.49106 h 0.0339 z m 12.25973,5.75732 q -0.2032,0.0847 -0.47414,0.13547 -0.27093,0.0508 -0.52493,0.0508 -0.9144,0 -1.3208,-0.508 -0.38946,-0.52493 -0.38946,-1.30386 v -5.85893 h -1.69333 v -0.32173 h 1.67639 v -2.28599 h 0.38947 v 2.28599 h 2.286 v 0.32173 h -2.286 v 5.85893 q 0,0.79586 0.38947,1.15146 0.38946,0.33867 1.03293,0.33867 0.47413,0 0.8636,-0.1524 l 0.0508,0.28786 z m 2.54,-5.75732 q 0.16934,-0.54186 0.47414,-0.9652 0.32173,-0.42333 0.72813,-0.7112 0.4064,-0.30479 0.88053,-0.45719 0.47413,-0.1524 0.98213,-0.1524 0.8128,0 1.35466,0.28786 0.54187,0.28787 0.8636,0.762 0.32174,0.47413 0.4572,1.0668 0.13547,0.59266 0.13547,1.20226 v 4.70746 h -0.37253 v -4.67359 q 0,-0.47413 -0.1016,-1.016 -0.1016,-0.54186 -0.38947,-0.98213 -0.27093,-0.44027 -0.74506,-0.72813 -0.47414,-0.3048 -1.20227,-0.3048 -0.64346,0 -1.2192,0.27093 -0.5588,0.254 -0.98213,0.74507 -0.4064,0.49106 -0.6604,1.20226 -0.23706,0.69427 -0.23706,1.59173 v 3.89466 h -0.37254 V 174.2748 h 0.37254 v 7.06118 z"
       id="text18"
       style="font-weight:275;font-size:16.9333px;font-family:'Avenir Next';-inkscape-font-specification:'Avenir Next,  weight=275';stroke-width:0.264583"
       inkscape:label="Title text"
       aria-label="Aran's Granular Synth" />
  </g>
  <g
     inkscape:groupmode="layer"
     id="layer3"
     inkscape:label="Layer 2" />
  <g
     inkscape:groupmode="layer"
     id="layer2"
     inkscape:label="components">
    <circle
       style="display:inline;opacity:1;vector-effect:none;fill:#ff0000;fill-opacity:1;fill-rule:evenodd;stroke:none;stroke-width:1;stroke-linecap:butt;stroke-linejoin:miter;stroke-miterlimit:4;stroke-dasharray:none;stroke-dashoffset:0;stroke-opacity:1;paint-order:normal"
       id="path4954"
       cx="184.57265"
       cy="46.063263"
       r="4"
       inkscape:label="random" />
    <circle
       r="4"
       cy="77.477875"
       cx="184.57265"
       id="circle4956"
       style="display:inline;opacity:1;vector-effect:none;fill:#00ff00;fill-opacity:1;fill-rule:evenodd;stroke:none;stroke-width:1;stroke-linecap:butt;stroke-linejoin:miter;stroke-miterlimit:4;stroke-dasharray:none;stroke-dashoffset:0;stroke-opacity:1;paint-order:normal"
       inkscape:label="pitch" />
    <circle
       style="display:inline;opacity:1;vector-effect:none;fill:#0000ff;fill-opacity:1;fill-rule:evenodd;stroke:none;stroke-width:1;stroke-linecap:butt;stroke-linejoin:miter;stroke-miterlimit:4;stroke-dasharray:none;stroke-dashoffset:0;stroke-opacity:1;paint-order:normal"
       id="circle4958"
       cx="184.57265"
       cy="108.71259"
       r="4"
       inkscape:label="sine" />
    <circle
       inkscape:label="blink"
       r="2"
       cy="30.224339"
       cx="184.57265"
       id="circle66"
       style="display:inline;opacity:1;vector-effect:none;fill:#ff00ff;fill-opacity:1;fill-rule:evenodd;stroke:none;stroke-width:0.5;stroke-linecap:butt;stroke-linejoin:miter;stroke-miterlimit:4;stroke-dasharray:none;stroke-dashoffset:0;stroke-opacity:1;paint-order:normal" />
    <rect
       style="fill:#ffff00;stroke-width:0.619019"
       id="rect2"
       width="140"
       height="40"
       x="20"
       y="30"
       inkscape:label="oscillator" />
    <circle
       style="display:inline;opacity:1;vector-effect:none;fill:#ff0000;fill-opacity:1;fill-rule:evenodd;stroke:none;stroke-width:1;stroke-linecap:butt;stroke-linejoin:miter;stroke-miterlimit:4;stroke-dasharray:none;stroke-dashoffset:0;stroke-opacity:1;paint-order:normal"
       id="circle2"
       cx="84"
       cy="84"
       r="4"
       inkscape:label="density" />
    <circle
       style="display:inline;opacity:1;vector-effect:none;fill:#ff0000;fill-opacity:1;fill-rule:evenodd;stroke:none;stroke-width:1;stroke-linecap:butt;stroke-linejoin:miter;stroke-miterlimit:4;stroke-dasharray:none;stroke-dashoffset:0;stroke-opacity:1;paint-order:normal"
       id="circle1"
       cx="54"
       cy="84"
       r="4"
       inkscape:label="size" />
    <circle
       style="display:inline;opacity:1;vector-effect:none;fill:#ff0000;fill-opacity:1;fill-rule:evenodd;stroke:none;stroke-width:1;stroke-linecap:butt;stroke-linejoin:miter;stroke-miterlimit:4;stroke-dasharray:none;stroke-dashoffset:0;stroke-opacity:1;paint-order:normal"
       id="circle11"
       cx="114"
       cy="84"
       r="4"
       inkscape:label="env_shape" />
    <circle
       style="display:inline;opacity:1;vector-effect:none;fill:#ff0000;fill-opacity:1;fill-rule:evenodd;stroke:none;stroke-width:1;stroke-linecap:butt;stroke-linejoin:miter;stroke-miterlimit:4;stroke-dasharray:none;stroke-dashoffset:0;stroke-opacity:1;paint-order:normal"
       id="circle16"
       cx="144"
       cy="84"
       r="4"
       inkscape:label="position" />
  </g>
</svg>
