<?xml version="1.0" encoding="UTF-8" standalone="no"?>
<!-- Created with Inkscape (http://www.inkscape.org/) -->

<svg
   width="101.6mm"
   height="128.5mm"
   viewBox="0 0 101.60001 128.50002"
   version="1.1"
   id="svg8"
   inkscape:version="1.4.2 (ebf0e940, 2025-05-08)"
   sodipodi:docname="granular.svg"
   xmlns:inkscape="http://www.inkscape.org/namespaces/inkscape"
   xmlns:sodipodi="http://sodipodi.sourceforge.net/DTD/sodipodi-0.dtd"
   xmlns="http://www.w3.org/2000/svg"
   xmlns:svg="http://www.w3.org/2000/svg"
   xmlns:rdf="http://www.w3.org/1999/02/22-rdf-syntax-ns#"
   xmlns:cc="http://creativecommons.org/ns#"
   xmlns:dc="http://purl.org/dc/elements/1.1/">
  <defs
     id="defs2">
    <rect
       x="155.56349"
       y="156.57364"
       width="406.08133"
       height="56.568542"
       id="rect1" />
  </defs>
  <sodipodi:namedview
     id="base"
     pagecolor="#ffffff"
     bordercolor="#666666"
     borderopacity="1.0"
     inkscape:pageopacity="0.0"
     inkscape:pageshadow="2"
     inkscape:zoom="0.98994949"
     inkscape:cx="69.19545"
     inkscape:cy="229.30463"
     inkscape:document-units="mm"
     inkscape:current-layer="layer1"
     showgrid="false"
     units="mm"
     inkscape:snap-bbox="true"
     inkscape:snap-page="true"
     inkscape:bbox-nodes="false"
     inkscape:snap-bbox-edge-midpoints="false"
     inkscape:window-width="1520"
     inkscape:window-height="945"
     inkscape:window-x="0"
     inkscape:window-y="25"
     inkscape:window-maximized="0"
     inkscape:snap-bbox-midpoints="true"
     inkscape:snap-nodes="false"
     inkscape:showpageshadow="2"
     inkscape:pagecheckerboard="0"
     inkscape:deskcolor="#d1d1d1" />
  <metadata
     id="metadata5">
    <rdf:RDF>
      <cc:Work
         rdf:about="">
        <dc:format>image/svg+xml</dc:format>
        <dc:type
           rdf:resource="http://purl.org/dc/dcmitype/StillImage" />
      </cc:Work>
    </rdf:RDF>
  </metadata>
  <g
     inkscape:label="Layer 1"
     inkscape:groupmode="layer"
     id="layer1"
     transform="translate(0,-168.49998)">
    <rect
       style="display:inline;opacity:1;vector-effect:none;fill:#e6e6e6;fill-opacity:1;fill-rule:evenodd;stroke:none;stroke-width:1.18852;stroke-linecap:butt;stroke-linejoin:miter;stroke-miterlimit:4;stroke-dasharray:none;stroke-dashoffset:0;stroke-opacity:1;paint-order:normal"
       id="rect420"
       width="102.10823"
       height="128.5"
       x="5.9211732e-17"
       y="168.49997"
       inkscape:label="background" />
    <path
       d="m 36.46998,173.34094 h -0.642715 q -0.08489,-0.64878 -0.6124,-0.64878 -0.33955,0 -0.512355,0.16371 -0.172804,0.16371 -0.172804,0.4881 0,0.24254 0.190995,0.45476 l 1.370319,1.54009 q 0.37896,0.42443 0.37896,0.91254 v 0.32742 q 0,0.52448 -0.37896,0.9095 -0.37896,0.38199 -0.912535,0.38199 h -0.648779 q -0.642718,0 -0.967108,-0.32439 -0.32439,-0.32439 -0.32439,-0.9671 h 0.64878 q -0.0061,0.0667 -0.0061,0.10611 0,0.26375 0.203121,0.40018 0.203123,0.13642 0.445658,0.13642 0.34561,0 0.497195,-0.16674 0.151585,-0.16674 0.151585,-0.48507 0,-0.24556 -0.190998,-0.45475 L 33.61713,174.5809 q -0.37896,-0.4214 -0.37896,-0.91254 v -0.32742 q 0,-0.52751 0.37896,-0.9095 0.37896,-0.38199 0.912537,-0.38199 h 0.64878 q 1.21267,0 1.291495,1.29149 z m 5.178107,2.58906 h -2.589053 v 0.64878 q 0,0.26072 0.187962,0.45172 0.190998,0.19099 0.460817,0.19099 h 0.64878 q 0.642715,0 0.642715,-0.64271 h 0.648779 q -0.151585,1.29149 -1.291494,1.29149 h -1.297559 q -0.530545,0 -0.912538,-0.37896 -0.37896,-0.38199 -0.37896,-0.91253 v -1.94028 q 0,-0.53661 0.381993,-0.91557 0.381992,-0.38199 0.909505,-0.38199 h 1.297559 q 0.530542,0 0.909502,0.38503 0.381992,0.38199 0.381992,0.91253 z m -2.589053,-0.64878 h 1.297559 v -0.64272 q 0,-0.26679 -0.19403,-0.45778 -0.190995,-0.191 -0.45475,-0.191 -0.26679,0 -0.457785,0.191 -0.190994,0.19099 -0.190994,0.45778 z m 5.172048,2.58905 h -1.291495 v -4.52933 h 1.291495 v 1.29756 q 0.07579,-0.64878 0.400182,-0.97317 0.32439,-0.32439 0.897377,-0.32439 h 0.642718 v 1.29756 h -1.291497 q -0.266788,0 -0.457782,0.191 -0.190998,0.18796 -0.190998,0.45172 z m 6.469608,-4.52933 v 4.52933 h -1.291498 v -0.64878 q -0.07579,0.64878 -0.648779,0.64878 h -0.64878 q -0.530545,0 -0.912534,-0.37896 -0.37896,-0.38199 -0.37896,-0.91253 v -3.23784 h 1.291494 v 3.23784 q 0,0.26072 0.187966,0.45172 0.190994,0.19099 0.460814,0.19099 0.269819,0 0.457785,-0.19099 0.190994,-0.191 0.190994,-0.45172 v -3.23784 z m 5.172048,4.52933 h -1.291495 v -3.23177 q 0,-0.26679 -0.194029,-0.45778 -0.190995,-0.191 -0.45475,-0.191 -0.26679,0 -0.457785,0.191 -0.190995,0.19099 -0.190995,0.45778 v 3.23177 h -1.291497 v -4.52933 h 1.291497 v 0.64878 q 0.03941,-0.32742 0.200092,-0.4881 0.163708,-0.16068 0.448688,-0.16068 h 0.648779 q 0.657874,0 0.970138,0.45779 0.151585,-0.23041 0.394118,-0.34258 0.242535,-0.11521 0.576019,-0.11521 h 0.642718 q 0.530542,0 0.912534,0.38199 0.385024,0.37896 0.385024,0.91557 v 3.23177 h -1.297558 v -3.23177 q 0,-0.26376 -0.190998,-0.45475 -0.190995,-0.19403 -0.45172,-0.19403 -0.266788,0 -0.457782,0.191 -0.190998,0.19099 -0.190998,0.45778 z m 5.775352,-5.82082 h 3.880551 l -0.003,0.64878 -1.937242,1.29149 h 0.648779 q 0.554797,0 0.921631,0.42747 0.369864,0.42443 0.369864,0.86403 v 1.29756 q 0,0.53054 -0.385022,0.91253 -0.381992,0.37896 -0.906473,0.37896 h -1.297559 q -1.142944,0 -1.291497,-1.29149 h 0.648779 q 0.04548,0.64271 0.642718,0.64271 h 0.64878 q 0.263755,0 0.454752,-0.18796 0.194027,-0.191 0.194027,-0.45475 v -1.29756 q 0,-0.15159 -0.163711,-0.39715 -0.160678,-0.24557 -0.485068,-0.24557 h -1.291498 v -0.64878 l 1.940277,-1.29149 h -2.589056 z"
       id="text1"
       style="font-size:29.3333px;font-family:Krungthep;-inkscape-font-specification:'Krungthep, Normal';white-space:pre;shape-padding:11.1117;stroke-width:0.264583"
       inkscape:label="Title text"
       aria-label="Serum 3" />
    <g
       aria-label="1V/oct"
       style="font-style:normal;font-variant:normal;font-weight:300;font-stretch:normal;font-size:4.93889px;line-height:6.61458px;font-family:'Gotham Rounded';-inkscape-font-specification:'Gotham Rounded Light';font-variant-ligatures:normal;font-variant-caps:normal;font-variant-numeric:normal;font-feature-settings:normal;text-align:center;letter-spacing:0px;word-spacing:0px;writing-mode:lr-tb;text-anchor:middle;display:inline;fill:#000000;fill-opacity:1;stroke:none;stroke-width:0.264583px;stroke-linecap:butt;stroke-linejoin:miter;stroke-opacity:1"
       id="text4948"
       transform="translate(0,5.2916669)"
       inkscape:label="1v oct text">
      <path
         d="m 9.6908279,252.06539 c 0,0.0593 0.0508,0.11007 0.1100667,0.11007 0.059267,0 0.1058333,-0.0508 0.1058333,-0.11007 v -2.794 c 0,-0.055 -0.0381,-0.10583 -0.1058333,-0.10583 h -0.00847 c -0.046567,0 -0.0889,0.0127 -0.1354666,0.0296 l -0.5164667,0.1905 c -0.046567,0.0169 -0.080433,0.0423 -0.080433,0.0931 0,0.0508 0.042333,0.0931 0.093133,0.0931 0.016933,0 0.033867,-0.004 0.055033,-0.0127 l 0.4826,-0.1651 z"
         style="font-style:normal;font-variant:normal;font-weight:300;font-stretch:normal;font-size:4.23333px;font-family:'Gotham Rounded';-inkscape-font-specification:'Gotham Rounded Light';text-align:center;text-anchor:middle;stroke-width:0.264583px"
         id="path5057"
         inkscape:connector-curvature="0" />
      <path
         d="m 11.938463,252.18816 h 0.0085 c 0.06773,0 0.105833,-0.0381 0.131233,-0.0974 l 1.210733,-2.7686 c 0.0085,-0.0169 0.0085,-0.0254 0.0085,-0.0423 0,-0.0508 -0.04657,-0.1016 -0.105833,-0.1016 -0.0508,0 -0.0889,0.0381 -0.110067,0.0847 l -1.134533,2.65854 -1.1303,-2.6543 c -0.02117,-0.0508 -0.05927,-0.0889 -0.1143,-0.0889 -0.0635,0 -0.110067,0.055 -0.110067,0.10583 0,0.0212 0,0.0296 0.0085,0.0466 l 1.2065,2.76013 c 0.0254,0.0593 0.0635,0.0974 0.131233,0.0974 z"
         style="font-style:normal;font-variant:normal;font-weight:300;font-stretch:normal;font-size:4.23333px;font-family:'Gotham Rounded';-inkscape-font-specification:'Gotham Rounded Light';text-align:center;text-anchor:middle;stroke-width:0.264583px"
         id="path5059"
         inkscape:connector-curvature="0" />
      <path
         d="m 13.000435,252.62842 c 0,0.0508 0.0381,0.0889 0.0889,0.0889 0.04233,0 0.07197,-0.0254 0.0889,-0.0593 l 1.913466,-3.75074 c 0.0085,-0.0169 0.0127,-0.0381 0.0127,-0.055 0,-0.0508 -0.0381,-0.0889 -0.0889,-0.0889 -0.04233,0 -0.07197,0.0254 -0.0889,0.0593 l -1.913466,3.75073 c -0.0085,0.0169 -0.0127,0.0381 -0.0127,0.055 z"
         style="font-style:normal;font-variant:normal;font-weight:300;font-stretch:normal;font-size:4.23333px;font-family:'Gotham Rounded';-inkscape-font-specification:'Gotham Rounded Light';text-align:center;text-anchor:middle;stroke-width:0.264583px"
         id="path5061"
         inkscape:connector-curvature="0" />
      <path
         d="m 16.153937,252.20932 c 0.643467,0 1.113367,-0.52493 1.113367,-1.1303 v -0.008 c 0,-0.60537 -0.465667,-1.12184 -1.1049,-1.12184 -0.643467,0 -1.113367,0.52494 -1.113367,1.1303 v 0.008 c 0,0.60537 0.465667,1.12183 1.1049,1.12183 z m 0.0085,-0.19473 c -0.499534,0 -0.889,-0.41487 -0.889,-0.93557 v -0.008 c 0,-0.508 0.3683,-0.9271 0.880533,-0.9271 0.499533,0 0.889,0.41486 0.889,0.93556 v 0.008 c 0,0.508 -0.3683,0.9271 -0.880533,0.9271 z"
         style="font-style:normal;font-variant:normal;font-weight:300;font-stretch:normal;font-size:4.23333px;font-family:'Gotham Rounded';-inkscape-font-specification:'Gotham Rounded Light';text-align:center;text-anchor:middle;stroke-width:0.264583px"
         id="path5063"
         inkscape:connector-curvature="0" />
      <path
         d="m 18.861683,252.20932 c 0.3683,0 0.618066,-0.1524 0.833966,-0.37253 0.01693,-0.0169 0.0254,-0.0423 0.0254,-0.0635 0,-0.0508 -0.0508,-0.1016 -0.1016,-0.1016 -0.02963,0 -0.0508,0.0169 -0.06773,0.0339 -0.173567,0.17356 -0.397933,0.30903 -0.677333,0.30903 -0.4953,0 -0.889,-0.41487 -0.889,-0.93557 v -0.008 c 0,-0.51647 0.381,-0.9271 0.872066,-0.9271 0.2921,0 0.4953,0.1397 0.668867,0.3048 0.01693,0.0169 0.04657,0.0254 0.07197,0.0254 0.05927,0 0.105834,-0.0466 0.105834,-0.10584 0,-0.0296 -0.0127,-0.0593 -0.02963,-0.0762 -0.194733,-0.18203 -0.440266,-0.3429 -0.812799,-0.3429 -0.618067,0 -1.100667,0.52494 -1.100667,1.1303 v 0.008 c 0,0.60537 0.478367,1.12183 1.100667,1.12183 z"
         style="font-style:normal;font-variant:normal;font-weight:300;font-stretch:normal;font-size:4.23333px;font-family:'Gotham Rounded';-inkscape-font-specification:'Gotham Rounded Light';text-align:center;text-anchor:middle;stroke-width:0.264583px"
         id="path5065"
         inkscape:connector-curvature="0" />
      <path
         d="m 21.043172,252.19662 c 0.122767,0 0.220133,-0.0254 0.3048,-0.055 0.04233,-0.0169 0.06773,-0.0466 0.06773,-0.0889 0,-0.0508 -0.04657,-0.0931 -0.09313,-0.0931 -0.02963,0 -0.09737,0.0423 -0.245533,0.0423 -0.249767,0 -0.4318,-0.11007 -0.4318,-0.4191 v -1.39277 h 0.677333 c 0.0508,0 0.09737,-0.0423 0.09737,-0.0931 0,-0.0508 -0.04657,-0.0974 -0.09737,-0.0974 h -0.677333 v -0.60113 c 0,-0.0593 -0.04657,-0.10583 -0.105834,-0.10583 -0.05927,0 -0.1016,0.0466 -0.1016,0.10583 v 0.60113 h -0.232833 c -0.0508,0 -0.09737,0.0423 -0.09737,0.0931 0,0.0508 0.04657,0.0974 0.09737,0.0974 h 0.232833 v 1.41394 c 0,0.41063 0.270934,0.59266 0.605367,0.59266 z"
         style="font-style:normal;font-variant:normal;font-weight:300;font-stretch:normal;font-size:4.23333px;font-family:'Gotham Rounded';-inkscape-font-specification:'Gotham Rounded Light';text-align:center;text-anchor:middle;stroke-width:0.264583px"
         id="path5067"
         inkscape:connector-curvature="0" />
    </g>
    <text
       xml:space="preserve"
       style="font-style:normal;font-variant:normal;font-weight:normal;font-stretch:normal;font-size:4.23333px;font-family:'Avenir Next';-inkscape-font-specification:'Avenir Next, Normal';font-variant-ligatures:normal;font-variant-caps:normal;font-variant-numeric:normal;font-variant-east-asian:normal;text-align:start;writing-mode:lr-tb;direction:ltr;text-anchor:start;fill:#000000;stroke-width:0.264583"
       x="45.168552"
       y="260.97525"
       id="text12"
       inkscape:label="grain size text"><tspan
         sodipodi:role="line"
         id="tspan12">grain size</tspan></text>
    <text
       xml:space="preserve"
       style="font-style:normal;font-variant:normal;font-weight:normal;font-stretch:normal;font-size:4.23333px;font-family:'Avenir Next';-inkscape-font-specification:'Avenir Next, Normal';font-variant-ligatures:normal;font-variant-caps:normal;font-variant-numeric:normal;font-variant-east-asian:normal;text-align:start;writing-mode:lr-tb;direction:ltr;text-anchor:start;fill:#000000;stroke-width:0.264583"
       x="64.946503"
       y="260.97525"
       id="text13"
       inkscape:label="grain density text"><tspan
         sodipodi:role="line"
         id="tspan13"
         x="64.946503"
         y="260.97525">grain density</tspan></text>
    <text
       xml:space="preserve"
       style="font-style:normal;font-variant:normal;font-weight:normal;font-stretch:normal;font-size:4.23333px;font-family:'Avenir Next';-inkscape-font-specification:'Avenir Next, Normal';font-variant-ligatures:normal;font-variant-caps:normal;font-variant-numeric:normal;font-variant-east-asian:normal;text-align:start;writing-mode:lr-tb;direction:ltr;text-anchor:start;fill:#000000;stroke-width:0.264583"
       x="7.4835491"
       y="224.62659"
       id="text14"
       inkscape:label="position text"><tspan
         sodipodi:role="line"
         id="tspan14"
         x="7.4835491"
         y="224.62659">position</tspan></text>
    <text
       xml:space="preserve"
       style="font-style:normal;font-variant:normal;font-weight:normal;font-stretch:normal;font-size:4.23333px;font-family:'Avenir Next';-inkscape-font-specification:'Avenir Next, Normal';font-variant-ligatures:normal;font-variant-caps:normal;font-variant-numeric:normal;font-variant-east-asian:normal;text-align:start;writing-mode:lr-tb;direction:ltr;text-anchor:start;fill:#000000;stroke-width:0.264583"
       x="7.4835486"
       y="285.29678"
       id="text15"
       inkscape:label="output text"><tspan
         sodipodi:role="line"
         id="tspan15">output</tspan></text>
    <text
       xml:space="preserve"
       style="font-style:normal;font-variant:normal;font-weight:normal;font-stretch:normal;font-size:4.23333px;font-family:'Avenir Next';-inkscape-font-specification:'Avenir Next, Normal';font-variant-ligatures:normal;font-variant-caps:normal;font-variant-numeric:normal;font-variant-east-asian:normal;text-align:start;writing-mode:lr-tb;direction:ltr;text-anchor:start;fill:#000000;stroke-width:0.264583"
       x="44.09948"
       y="278.08051"
       id="text16"
       inkscape:label="random text"><tspan
         sodipodi:role="line"
         id="tspan16"
         x="44.09948"
         y="278.08051">env. shape</tspan></text>
    <text
       xml:space="preserve"
       style="font-style:normal;font-variant:normal;font-weight:normal;font-stretch:normal;font-size:4.23333px;font-family:'Avenir Next';-inkscape-font-specification:'Avenir Next, Normal';font-variant-ligatures:normal;font-variant-caps:normal;font-variant-numeric:normal;font-variant-east-asian:normal;text-align:start;writing-mode:lr-tb;direction:ltr;text-anchor:start;fill:#000000;stroke-width:0.264583"
       x="68.153732"
       y="278.08051"
       id="text17"
       inkscape:label="env shape text"><tspan
         sodipodi:role="line"
         id="tspan17"
         x="68.153732"
         y="278.08051">random</tspan></text>
    <path
       d="m 45.655385,261.37318 q 0.118534,0.1524 0.321733,0.25824 0.207434,0.10583 0.436033,0.10583 0.211667,0 0.359833,-0.0635 0.148167,-0.0593 0.237067,-0.1651 0.09313,-0.10583 0.135466,-0.24977 0.04233,-0.1397 0.04233,-0.30056 v -0.37254 h -0.0085 q -0.1143,0.18627 -0.325966,0.28787 -0.207434,0.1016 -0.423333,0.1016 -0.232833,0 -0.423333,-0.0762 -0.186267,-0.0762 -0.321733,-0.20743 -0.131234,-0.13547 -0.207434,-0.32174 -0.07197,-0.18626 -0.07197,-0.40216 0,-0.21167 0.07197,-0.39794 0.0762,-0.18626 0.207434,-0.32596 0.135466,-0.1397 0.321733,-0.22013 0.1905,-0.0804 0.423333,-0.0804 0.215899,0 0.423333,0.1016 0.207433,0.1016 0.325966,0.2921 h 0.0085 v -0.3429 h 0.287866 v 1.96427 q 0,0.16086 -0.04657,0.3429 -0.04233,0.18203 -0.165099,0.33443 -0.118534,0.1524 -0.325967,0.254 -0.207433,0.1016 -0.537633,0.1016 -0.275166,0 -0.524933,-0.10583 -0.249766,-0.10584 -0.427566,-0.2921 z m 0.05503,-1.41393 q 0,0.15663 0.0508,0.29633 0.0508,0.1397 0.143933,0.24554 0.09737,0.10583 0.237066,0.16933 0.1397,0.0593 0.3175,0.0593 0.1651,0 0.3048,-0.055 0.1397,-0.055 0.2413,-0.15663 0.101599,-0.1016 0.156633,-0.2413 0.05927,-0.14393 0.05927,-0.3175 0,-0.15663 -0.05927,-0.29633 -0.05503,-0.1397 -0.156633,-0.24554 -0.1016,-0.10583 -0.2413,-0.16933 -0.1397,-0.0635 -0.3048,-0.0635 -0.1778,0 -0.3175,0.0635 -0.1397,0.0635 -0.237066,0.16933 -0.09313,0.10584 -0.143933,0.24554 -0.0508,0.1397 -0.0508,0.29633 z m 2.514597,-0.52917 q 0,-0.0804 -0.0042,-0.20743 -0.0042,-0.127 -0.0127,-0.2286 h 0.275167 q 0.0085,0.0804 0.0127,0.1778 0.0042,0.0974 0.0042,0.16087 h 0.0085 q 0.08467,-0.17357 0.253999,-0.2794 0.169334,-0.11007 0.381,-0.11007 0.05503,0 0.09737,0.004 0.04657,0.004 0.09313,0.0169 l -0.0381,0.27093 q -0.0254,-0.008 -0.08467,-0.0169 -0.05927,-0.008 -0.118533,-0.008 -0.1143,0 -0.220133,0.0423 -0.105833,0.0423 -0.186267,0.13546 -0.0762,0.0889 -0.126999,0.23283 -0.04657,0.1397 -0.04657,0.33867 v 1.016 h -0.287867 v -1.54517 z m 2.722038,0.2667 q 0,-0.25823 -0.135467,-0.38523 -0.135467,-0.127 -0.3937,-0.127 -0.177799,0 -0.330199,0.0635 -0.1524,0.0635 -0.258233,0.16933 l -0.160867,-0.19049 q 0.122767,-0.12277 0.321733,-0.2032 0.2032,-0.0804 0.4572,-0.0804 0.160866,0 0.300566,0.0466 0.1397,0.0423 0.245533,0.13123 0.105833,0.0889 0.1651,0.22437 0.05927,0.13546 0.05927,0.3175 v 0.86783 q 0,0.1143 0.0085,0.23707 0.0085,0.12276 0.0254,0.20743 H 50.99362 q -0.0127,-0.072 -0.02117,-0.15663 -0.0085,-0.0847 -0.0085,-0.1651 h -0.0085 q -0.135466,0.19896 -0.309033,0.28786 -0.169333,0.0847 -0.410633,0.0847 -0.1143,0 -0.237066,-0.0339 -0.118533,-0.0296 -0.220133,-0.1016 -0.09737,-0.072 -0.1651,-0.18626 -0.0635,-0.1143 -0.0635,-0.2794 0,-0.2286 0.1143,-0.35984 0.118533,-0.13546 0.313266,-0.19896 0.194733,-0.0677 0.4445,-0.0847 0.253999,-0.0212 0.524933,-0.0212 z m -0.08467,0.28787 q -0.1778,0 -0.359833,0.0169 -0.1778,0.0127 -0.325966,0.0593 -0.143934,0.0423 -0.237067,0.127 -0.09313,0.0847 -0.09313,0.22437 0,0.10583 0.0381,0.1778 0.04233,0.072 0.110066,0.11853 0.06773,0.0423 0.148167,0.0635 0.08467,0.0169 0.169333,0.0169 0.1524,0 0.270933,-0.0508 0.118533,-0.055 0.198967,-0.14393 0.08043,-0.0931 0.122766,-0.21167 0.04233,-0.11853 0.04233,-0.24976 v -0.14817 z m 1.388534,0.9906 h -0.287866 v -1.9812 h 0.287866 z m 0.05927,-2.7432 q 0,0.0889 -0.0635,0.14817 -0.0635,0.055 -0.1397,0.055 -0.0762,0 -0.1397,-0.055 -0.0635,-0.0593 -0.0635,-0.14817 0,-0.0889 0.0635,-0.14393 0.0635,-0.0593 0.1397,-0.0593 0.0762,0 0.1397,0.0593 0.0635,0.055 0.0635,0.14393 z m 0.965199,0.762 q 0.0085,0.0804 0.0127,0.1778 0.0042,0.0974 0.0042,0.16087 h 0.0085 q 0.08467,-0.17357 0.275166,-0.2794 0.1905,-0.11007 0.402167,-0.11007 0.376766,0 0.563033,0.22437 0.190499,0.22436 0.190499,0.59266 v 1.21497 h -0.287866 v -1.09643 q 0,-0.15664 -0.0254,-0.28364 -0.0254,-0.127 -0.0889,-0.2159 -0.05927,-0.0931 -0.1651,-0.14393 -0.1016,-0.0508 -0.258233,-0.0508 -0.1143,0 -0.224366,0.0466 -0.105834,0.0466 -0.1905,0.14393 -0.08467,0.0931 -0.135467,0.2413 -0.0508,0.14393 -0.0508,0.3429 v 1.016 h -0.287866 v -1.54517 q 0,-0.0804 -0.0042,-0.20743 -0.0042,-0.127 -0.0127,-0.2286 z m 4.313761,0.4699 q -0.0635,-0.12277 -0.194733,-0.19896 -0.127,-0.0804 -0.2921,-0.0804 -0.0762,0 -0.1524,0.0169 -0.0762,0.0169 -0.135467,0.055 -0.05927,0.0381 -0.09737,0.0974 -0.03387,0.0593 -0.03387,0.1397 0,0.1397 0.1143,0.2159 0.1143,0.072 0.359833,0.12277 0.351366,0.072 0.516466,0.21167 0.169333,0.13546 0.169333,0.3683 0,0.16933 -0.06773,0.28786 -0.0635,0.1143 -0.169333,0.1905 -0.105833,0.072 -0.2413,0.1016 -0.131233,0.0339 -0.2667,0.0339 -0.224366,0 -0.436033,-0.0931 -0.211666,-0.0931 -0.347133,-0.2921 l 0.2286,-0.16934 q 0.0762,0.13124 0.224367,0.22014 0.148166,0.0889 0.325966,0.0889 0.09313,0 0.1778,-0.0169 0.08467,-0.0169 0.148167,-0.0593 0.0635,-0.0423 0.101599,-0.10584 0.0381,-0.0677 0.0381,-0.1651 0,-0.15663 -0.152399,-0.23283 -0.148167,-0.0804 -0.4318,-0.14817 -0.0889,-0.0212 -0.1905,-0.0508 -0.09737,-0.0339 -0.182033,-0.0931 -0.08467,-0.0635 -0.1397,-0.15663 -0.05503,-0.0931 -0.05503,-0.23284 0,-0.1524 0.05927,-0.25823 0.05927,-0.11006 0.156634,-0.1778 0.101599,-0.072 0.228599,-0.10583 0.127,-0.0339 0.262467,-0.0339 0.207433,0 0.402166,0.0931 0.194733,0.0931 0.2921,0.26246 z m 1.117599,1.5113 h -0.287866 v -1.9812 h 0.287866 z m 0.05927,-2.7432 q 0,0.0889 -0.0635,0.14817 -0.0635,0.055 -0.1397,0.055 -0.0762,0 -0.1397,-0.055 -0.0635,-0.0593 -0.0635,-0.14817 0,-0.0889 0.0635,-0.14393 0.0635,-0.0593 0.1397,-0.0593 0.0762,0 0.1397,0.0593 0.0635,0.055 0.0635,0.14393 z m 2.023531,0.9652 -1.185332,1.52823 h 1.227666 v 0.24977 h -1.608666 v -0.2032 l 1.181099,-1.5367 H 59.28248 v -0.2413 h 1.507065 z m 2.065863,0.635 q -0.0127,-0.2794 -0.182033,-0.46143 -0.1651,-0.18627 -0.474133,-0.18627 -0.143933,0 -0.2667,0.055 -0.122766,0.0508 -0.215899,0.14393 -0.09313,0.0889 -0.148167,0.20743 -0.05503,0.1143 -0.0635,0.2413 z m 0.2921,0.0931 q 0,0.0296 0,0.0635 0,0.0339 -0.0042,0.072 h -1.642532 q 0.0042,0.14817 0.05927,0.2794 0.05503,0.13123 0.1524,0.2286 0.09737,0.0974 0.2286,0.15663 0.131233,0.055 0.283633,0.055 0.224367,0 0.385233,-0.1016 0.1651,-0.10584 0.249767,-0.2413 l 0.2159,0.16933 q -0.1778,0.22437 -0.3937,0.32173 -0.211667,0.0974 -0.4572,0.0974 -0.220133,0 -0.410633,-0.0762 -0.186266,-0.0804 -0.321733,-0.22013 -0.135466,-0.1397 -0.2159,-0.3302 -0.0762,-0.1905 -0.0762,-0.41487 0,-0.22437 0.0762,-0.41487 0.0762,-0.1905 0.211667,-0.33019 0.135466,-0.1397 0.3175,-0.2159 0.182033,-0.0804 0.393699,-0.0804 0.232833,0 0.410633,0.0804 0.1778,0.0762 0.296333,0.21166 0.118534,0.13123 0.1778,0.30903 0.0635,0.1778 0.0635,0.381 z"
       id="text18"
       style="font-size:4.23333px;font-family:'Avenir Next';-inkscape-font-specification:'Avenir Next, Normal';stroke-width:0.264583"
       inkscape:label="grain size text"
       aria-label="grain size" />
    <path
       d="m 65.433336,261.37318 q 0.118533,0.1524 0.321733,0.25824 0.207433,0.10583 0.436033,0.10583 0.211666,0 0.359833,-0.0635 0.148166,-0.0593 0.237066,-0.1651 0.09313,-0.10583 0.135467,-0.24977 0.04233,-0.1397 0.04233,-0.30056 v -0.37254 h -0.0085 q -0.1143,0.18627 -0.325966,0.28787 -0.207433,0.1016 -0.423333,0.1016 -0.232833,0 -0.423333,-0.0762 -0.186267,-0.0762 -0.321733,-0.20743 -0.131233,-0.13547 -0.207433,-0.32174 -0.07197,-0.18626 -0.07197,-0.40216 0,-0.21167 0.07197,-0.39794 0.0762,-0.18626 0.207433,-0.32596 0.135466,-0.1397 0.321733,-0.22013 0.1905,-0.0804 0.423333,-0.0804 0.2159,0 0.423333,0.1016 0.207433,0.1016 0.325966,0.2921 h 0.0085 v -0.3429 h 0.287866 v 1.96427 q 0,0.16086 -0.04657,0.3429 -0.04233,0.18203 -0.1651,0.33443 -0.118533,0.1524 -0.325966,0.254 -0.207434,0.1016 -0.537633,0.1016 -0.275167,0 -0.524933,-0.10583 -0.249767,-0.10584 -0.427567,-0.2921 z m 0.05503,-1.41393 q 0,0.15663 0.0508,0.29633 0.0508,0.1397 0.143933,0.24554 0.09737,0.10583 0.237067,0.16933 0.139699,0.0593 0.317499,0.0593 0.1651,0 0.3048,-0.055 0.1397,-0.055 0.2413,-0.15663 0.1016,-0.1016 0.156633,-0.2413 0.05927,-0.14393 0.05927,-0.3175 0,-0.15663 -0.05927,-0.29633 -0.05503,-0.1397 -0.156633,-0.24554 -0.1016,-0.10583 -0.2413,-0.16933 -0.1397,-0.0635 -0.3048,-0.0635 -0.1778,0 -0.317499,0.0635 -0.1397,0.0635 -0.237067,0.16933 -0.09313,0.10584 -0.143933,0.24554 -0.0508,0.1397 -0.0508,0.29633 z m 2.514598,-0.52917 q 0,-0.0804 -0.0042,-0.20743 -0.0042,-0.127 -0.0127,-0.2286 H 68.2612 q 0.0085,0.0804 0.0127,0.1778 0.0042,0.0974 0.0042,0.16087 h 0.0085 q 0.08467,-0.17357 0.254,-0.2794 0.169333,-0.11007 0.380999,-0.11007 0.05503,0 0.09737,0.004 0.04657,0.004 0.09313,0.0169 l -0.0381,0.27093 q -0.0254,-0.008 -0.08467,-0.0169 -0.05927,-0.008 -0.118534,-0.008 -0.1143,0 -0.220133,0.0423 -0.105833,0.0423 -0.186266,0.13546 -0.0762,0.0889 -0.127,0.23283 -0.04657,0.1397 -0.04657,0.33867 v 1.016 h -0.287866 v -1.54517 z m 2.722037,0.2667 q 0,-0.25823 -0.135467,-0.38523 -0.135466,-0.127 -0.393699,-0.127 -0.1778,0 -0.3302,0.0635 -0.1524,0.0635 -0.258233,0.16933 l -0.160867,-0.19049 q 0.122767,-0.12277 0.321733,-0.2032 0.2032,-0.0804 0.4572,-0.0804 0.160867,0 0.300566,0.0466 0.1397,0.0423 0.245534,0.13123 0.105833,0.0889 0.165099,0.22437 0.05927,0.13546 0.05927,0.3175 v 0.86783 q 0,0.1143 0.0085,0.23707 0.0085,0.12276 0.0254,0.20743 h -0.258233 q -0.0127,-0.072 -0.02117,-0.15663 -0.0085,-0.0847 -0.0085,-0.1651 h -0.0085 q -0.135467,0.19896 -0.309034,0.28786 -0.169333,0.0847 -0.410633,0.0847 -0.114299,0 -0.237066,-0.0339 -0.118533,-0.0296 -0.220133,-0.1016 -0.09737,-0.072 -0.1651,-0.18626 -0.0635,-0.1143 -0.0635,-0.2794 0,-0.2286 0.1143,-0.35984 0.118533,-0.13546 0.313266,-0.19896 0.194734,-0.0677 0.4445,-0.0847 0.254,-0.0212 0.524933,-0.0212 z m -0.08467,0.28787 q -0.1778,0 -0.359833,0.0169 -0.1778,0.0127 -0.325966,0.0593 -0.143933,0.0423 -0.237067,0.127 -0.09313,0.0847 -0.09313,0.22437 0,0.10583 0.0381,0.1778 0.04233,0.072 0.110067,0.11853 0.06773,0.0423 0.148166,0.0635 0.08467,0.0169 0.169333,0.0169 0.1524,0 0.270934,-0.0508 0.118533,-0.055 0.198966,-0.14393 0.08043,-0.0931 0.122767,-0.21167 0.04233,-0.11853 0.04233,-0.24976 v -0.14817 z m 1.388534,0.9906 h -0.287866 v -1.9812 h 0.287866 z m 0.05927,-2.7432 q 0,0.0889 -0.0635,0.14817 -0.0635,0.055 -0.1397,0.055 -0.0762,0 -0.1397,-0.055 -0.0635,-0.0593 -0.0635,-0.14817 0,-0.0889 0.0635,-0.14393 0.0635,-0.0593 0.1397,-0.0593 0.0762,0 0.1397,0.0593 0.0635,0.055 0.0635,0.14393 z m 0.965199,0.762 q 0.0085,0.0804 0.0127,0.1778 0.0042,0.0974 0.0042,0.16087 h 0.0085 q 0.08467,-0.17357 0.275167,-0.2794 0.1905,-0.11007 0.402166,-0.11007 0.376766,0 0.563033,0.22437 0.1905,0.22436 0.1905,0.59266 v 1.21497 h -0.287867 v -1.09643 q 0,-0.15664 -0.0254,-0.28364 -0.0254,-0.127 -0.0889,-0.2159 -0.05927,-0.0931 -0.165099,-0.14393 -0.1016,-0.0508 -0.258234,-0.0508 -0.1143,0 -0.224366,0.0466 -0.105833,0.0466 -0.1905,0.14393 -0.08467,0.0931 -0.135466,0.2413 -0.0508,0.14393 -0.0508,0.3429 v 1.016 h -0.287867 v -1.54517 q 0,-0.0804 -0.0042,-0.20743 -0.0042,-0.127 -0.0127,-0.2286 z m 4.889494,1.64677 q -0.127,0.1905 -0.3302,0.28786 -0.2032,0.0974 -0.4191,0.0974 -0.232833,0 -0.423332,-0.0804 -0.186267,-0.0804 -0.321734,-0.22014 -0.131233,-0.1397 -0.207433,-0.3302 -0.07197,-0.1905 -0.07197,-0.41063 0,-0.22013 0.07197,-0.41063 0.0762,-0.1905 0.207433,-0.3302 0.135467,-0.1397 0.321734,-0.22013 0.190499,-0.0804 0.423332,-0.0804 0.2159,0 0.4191,0.1016 0.2032,0.0974 0.3302,0.2921 h 0.0085 v -1.5621 h 0.287866 v 3.2004 h -0.287866 v -0.33443 z m -1.468966,-0.65617 q 0,0.1651 0.0508,0.31327 0.0508,0.14393 0.143934,0.254 0.09737,0.10583 0.237066,0.16933 0.1397,0.0593 0.3175,0.0593 0.1651,0 0.3048,-0.0593 0.139699,-0.0635 0.241299,-0.16933 0.1016,-0.10584 0.156634,-0.24977 0.05927,-0.14817 0.05927,-0.3175 0,-0.16933 -0.05927,-0.31327 -0.05503,-0.14816 -0.156634,-0.254 -0.1016,-0.11006 -0.241299,-0.16933 -0.1397,-0.0635 -0.3048,-0.0635 -0.1778,0 -0.3175,0.0635 -0.1397,0.0635 -0.237066,0.17357 -0.09313,0.10583 -0.143934,0.254 -0.0508,0.14393 -0.0508,0.30903 z m 4.047059,-0.1524 q -0.0127,-0.2794 -0.182033,-0.46143 -0.1651,-0.18627 -0.474133,-0.18627 -0.143933,0 -0.2667,0.055 -0.122766,0.0508 -0.215899,0.14393 -0.09313,0.0889 -0.148167,0.20743 -0.05503,0.1143 -0.0635,0.2413 z m 0.2921,0.0931 q 0,0.0296 0,0.0635 0,0.0339 -0.0042,0.072 h -1.642532 q 0.0042,0.14817 0.05927,0.2794 0.05503,0.13123 0.1524,0.2286 0.09737,0.0974 0.2286,0.15663 0.131233,0.055 0.283633,0.055 0.224367,0 0.385233,-0.1016 0.1651,-0.10584 0.249767,-0.2413 l 0.215899,0.16933 q -0.177799,0.22437 -0.393699,0.32173 -0.211667,0.0974 -0.4572,0.0974 -0.220133,0 -0.410633,-0.0762 -0.186266,-0.0804 -0.321733,-0.22013 -0.135466,-0.1397 -0.2159,-0.3302 -0.0762,-0.1905 -0.0762,-0.41487 0,-0.22437 0.0762,-0.41487 0.0762,-0.1905 0.211667,-0.33019 0.135466,-0.1397 0.317499,-0.2159 0.182034,-0.0804 0.3937,-0.0804 0.232833,0 0.410633,0.0804 0.1778,0.0762 0.296333,0.21166 0.118533,0.13123 0.1778,0.30903 0.0635,0.1778 0.0635,0.381 z m 0.876301,-0.93133 q 0.0085,0.0804 0.0127,0.1778 0.0042,0.0974 0.0042,0.16087 h 0.0085 q 0.08467,-0.17357 0.275167,-0.2794 0.1905,-0.11007 0.402166,-0.11007 0.376767,0 0.563033,0.22437 0.1905,0.22436 0.1905,0.59266 v 1.21497 h -0.287866 v -1.09643 q 0,-0.15664 -0.0254,-0.28364 -0.0254,-0.127 -0.0889,-0.2159 -0.05927,-0.0931 -0.1651,-0.14393 -0.1016,-0.0508 -0.258233,-0.0508 -0.1143,0 -0.224367,0.0466 -0.105833,0.0466 -0.1905,0.14393 -0.08467,0.0931 -0.135466,0.2413 -0.0508,0.14393 -0.0508,0.3429 v 1.016 h -0.287867 v -1.54517 q 0,-0.0804 -0.0042,-0.20743 -0.0042,-0.127 -0.0127,-0.2286 z m 3.255429,0.4699 q -0.0635,-0.12277 -0.194733,-0.19896 -0.127,-0.0804 -0.2921,-0.0804 -0.0762,0 -0.1524,0.0169 -0.0762,0.0169 -0.135467,0.055 -0.05927,0.0381 -0.09737,0.0974 -0.03387,0.0593 -0.03387,0.1397 0,0.1397 0.1143,0.2159 0.1143,0.072 0.359833,0.12277 0.351367,0.072 0.516466,0.21167 0.169334,0.13546 0.169334,0.3683 0,0.16933 -0.06773,0.28786 -0.0635,0.1143 -0.169333,0.1905 -0.105833,0.072 -0.2413,0.1016 -0.131233,0.0339 -0.266699,0.0339 -0.224367,0 -0.436033,-0.0931 -0.211667,-0.0931 -0.347133,-0.2921 l 0.228599,-0.16934 q 0.0762,0.13124 0.224367,0.22014 0.148166,0.0889 0.325966,0.0889 0.09313,0 0.1778,-0.0169 0.08467,-0.0169 0.148167,-0.0593 0.0635,-0.0423 0.1016,-0.10584 0.0381,-0.0677 0.0381,-0.1651 0,-0.15663 -0.152399,-0.23283 -0.148167,-0.0804 -0.4318,-0.14817 -0.0889,-0.0212 -0.1905,-0.0508 -0.09737,-0.0339 -0.182033,-0.0931 -0.08467,-0.0635 -0.1397,-0.15663 -0.05503,-0.0931 -0.05503,-0.23284 0,-0.1524 0.05927,-0.25823 0.05927,-0.11006 0.156634,-0.1778 0.1016,-0.072 0.228599,-0.10583 0.127,-0.0339 0.262467,-0.0339 0.207433,0 0.402166,0.0931 0.194733,0.0931 0.2921,0.26246 z m 1.117601,1.5113 h -0.287866 v -1.9812 h 0.287866 z m 0.05927,-2.7432 q 0,0.0889 -0.0635,0.14817 -0.0635,0.055 -0.1397,0.055 -0.0762,0 -0.1397,-0.055 -0.0635,-0.0593 -0.0635,-0.14817 0,-0.0889 0.0635,-0.14393 0.0635,-0.0593 0.1397,-0.0593 0.0762,0 0.1397,0.0593 0.0635,0.055 0.0635,0.14393 z m 1.600196,1.0033 h -0.558799 v 1.1557 q 0,0.11007 0.02117,0.18203 0.02117,0.072 0.05927,0.1143 0.04233,0.0381 0.09737,0.055 0.05503,0.0127 0.118533,0.0127 0.05927,0 0.122766,-0.0169 0.06773,-0.0169 0.127,-0.0466 l 0.0127,0.24976 q -0.0762,0.0296 -0.160866,0.0423 -0.08043,0.0169 -0.1778,0.0169 -0.08043,0 -0.169333,-0.0212 -0.0889,-0.0212 -0.1651,-0.0804 -0.0762,-0.0593 -0.127,-0.16087 -0.04657,-0.1016 -0.04657,-0.2667 v -1.23613 h -0.410633 v -0.2413 h 0.410633 v -0.5588 h 0.287867 v 0.5588 h 0.558799 z m 1.130299,1.43087 h 0.0085 l 0.613833,-1.67217 h 0.313266 l -0.986365,2.49343 q -0.0889,0.2286 -0.2286,0.36407 -0.135467,0.1397 -0.3937,0.1397 -0.131233,0 -0.258233,-0.0254 l 0.02963,-0.26247 q 0.1016,0.0339 0.211667,0.0339 0.148166,0 0.232833,-0.0931 0.08467,-0.0889 0.148166,-0.25824 l 0.160867,-0.41486 -0.846666,-1.97697 h 0.321733 z"
       id="text19"
       style="font-size:4.23333px;font-family:'Avenir Next';-inkscape-font-specification:'Avenir Next, Normal';stroke-width:0.264583"
       inkscape:label="grain density text"
       aria-label="grain density" />
    <path
       d="M 8.1524152,225.64259 H 7.8645488 v -2.9972 h 0.2878664 v 0.3429 h 0.0127 q 0.1227666,-0.19473 0.3259664,-0.2921 0.2074332,-0.1016 0.4190997,-0.1016 0.2328331,0 0.4190996,0.0804 0.1904998,0.0804 0.3217331,0.22014 0.1354665,0.13969 0.2074331,0.33019 0.0762,0.1905 0.0762,0.41064 0,0.22013 -0.0762,0.41063 -0.071967,0.1905 -0.2074331,0.3302 -0.1312333,0.1397 -0.3217331,0.22013 -0.1862665,0.0804 -0.4190996,0.0804 -0.2116665,0 -0.4190997,-0.0974 -0.2031998,-0.1016 -0.3259664,-0.28787 h -0.0127 z m 1.4774321,-2.0066 q 0,-0.1651 -0.0508,-0.30904 -0.0508,-0.14816 -0.1481666,-0.254 -0.093133,-0.11006 -0.2328331,-0.17356 -0.1396999,-0.0635 -0.3174998,-0.0635 -0.1650998,0 -0.3047997,0.0635 -0.1396999,0.0593 -0.2412998,0.16933 -0.1015999,0.10583 -0.1608665,0.254 -0.055033,0.14393 -0.055033,0.31327 0,0.16933 0.055033,0.3175 0.059267,0.14393 0.1608665,0.24976 0.1015999,0.10584 0.2412998,0.16934 0.1396999,0.0593 0.3047997,0.0593 0.1777999,0 0.3174998,-0.0593 0.1396999,-0.0635 0.2328331,-0.16934 0.097367,-0.11006 0.1481666,-0.254 0.0508,-0.14816 0.0508,-0.31326 z m 2.8913657,0 q 0,0.22436 -0.08043,0.41486 -0.0762,0.1905 -0.2159,0.3302 -0.139699,0.1397 -0.334433,0.22014 -0.194733,0.0762 -0.427566,0.0762 -0.2286,0 -0.423333,-0.0762 -0.194733,-0.0804 -0.334433,-0.22014 -0.1397,-0.1397 -0.220133,-0.3302 -0.0762,-0.1905 -0.0762,-0.41486 0,-0.22437 0.0762,-0.41487 0.08043,-0.1905 0.220133,-0.3302 0.1397,-0.1397 0.334433,-0.2159 0.194733,-0.0804 0.423333,-0.0804 0.232833,0 0.427566,0.0804 0.194734,0.0762 0.334433,0.2159 0.1397,0.1397 0.2159,0.3302 0.08043,0.1905 0.08043,0.41487 z m -0.3048,0 q 0,-0.1651 -0.05503,-0.30904 -0.0508,-0.14816 -0.148167,-0.254 -0.09737,-0.11006 -0.237066,-0.17356 -0.1397,-0.0635 -0.313267,-0.0635 -0.173566,0 -0.313266,0.0635 -0.135467,0.0635 -0.232833,0.17356 -0.09737,0.10584 -0.1524,0.254 -0.0508,0.14394 -0.0508,0.30904 0,0.1651 0.0508,0.31326 0.05503,0.14394 0.1524,0.254 0.09737,0.10584 0.232833,0.16934 0.1397,0.0593 0.313266,0.0593 0.173567,0 0.313267,-0.0593 0.139699,-0.0635 0.237066,-0.16934 0.09737,-0.11006 0.148167,-0.254 0.05503,-0.14816 0.05503,-0.31326 z m 1.976965,-0.5207 q -0.0635,-0.12277 -0.194733,-0.19897 -0.127,-0.0804 -0.2921,-0.0804 -0.0762,0 -0.1524,0.0169 -0.0762,0.0169 -0.135466,0.055 -0.05927,0.0381 -0.09737,0.0974 -0.03387,0.0593 -0.03387,0.1397 0,0.1397 0.114299,0.2159 0.1143,0.072 0.359833,0.12277 0.351367,0.072 0.516467,0.21166 0.169333,0.13547 0.169333,0.3683 0,0.16934 -0.06773,0.28787 -0.0635,0.1143 -0.169334,0.1905 -0.105833,0.072 -0.241299,0.1016 -0.131234,0.0339 -0.2667,0.0339 -0.224367,0 -0.436033,-0.0931 -0.211667,-0.0931 -0.347133,-0.2921 l 0.2286,-0.16933 q 0.0762,0.13123 0.224366,0.22013 0.148167,0.0889 0.325967,0.0889 0.09313,0 0.177799,-0.0169 0.08467,-0.0169 0.148167,-0.0593 0.0635,-0.0423 0.1016,-0.10583 0.0381,-0.0677 0.0381,-0.1651 0,-0.15663 -0.1524,-0.23283 -0.148167,-0.0804 -0.4318,-0.14817 -0.0889,-0.0212 -0.1905,-0.0508 -0.09737,-0.0339 -0.182033,-0.0931 -0.08467,-0.0635 -0.1397,-0.15664 -0.05503,-0.0931 -0.05503,-0.23283 0,-0.1524 0.05927,-0.25823 0.05927,-0.11007 0.156633,-0.1778 0.1016,-0.072 0.2286,-0.10583 0.127,-0.0339 0.262466,-0.0339 0.207433,0 0.402167,0.0931 0.194733,0.0931 0.292099,0.26247 z m 1.1176,1.5113 h -0.287866 v -1.9812 h 0.287866 z m 0.05927,-2.7432 q 0,0.0889 -0.0635,0.14817 -0.0635,0.055 -0.1397,0.055 -0.0762,0 -0.1397,-0.055 -0.0635,-0.0593 -0.0635,-0.14817 0,-0.0889 0.0635,-0.14393 0.0635,-0.0593 0.1397,-0.0593 0.0762,0 0.1397,0.0593 0.0635,0.055 0.0635,0.14393 z m 1.600198,1.0033 h -0.558799 v 1.1557 q 0,0.11006 0.02117,0.18203 0.02117,0.072 0.05927,0.1143 0.04233,0.0381 0.09737,0.055 0.05503,0.0127 0.118534,0.0127 0.05927,0 0.122766,-0.0169 0.06773,-0.0169 0.127,-0.0466 l 0.0127,0.24977 q -0.0762,0.0296 -0.160866,0.0423 -0.08043,0.0169 -0.1778,0.0169 -0.08043,0 -0.169333,-0.0212 -0.0889,-0.0212 -0.1651,-0.0804 -0.0762,-0.0593 -0.127,-0.16087 -0.04657,-0.1016 -0.04657,-0.2667 v -1.23613 h -0.410633 v -0.2413 h 0.410633 v -0.5588 h 0.287867 v 0.5588 h 0.558799 z m 0.740831,1.7399 h -0.287866 v -1.9812 h 0.287866 z m 0.05927,-2.7432 q 0,0.0889 -0.0635,0.14817 -0.0635,0.055 -0.1397,0.055 -0.0762,0 -0.1397,-0.055 -0.0635,-0.0593 -0.0635,-0.14817 0,-0.0889 0.0635,-0.14393 0.0635,-0.0593 0.1397,-0.0593 0.0762,0 0.1397,0.0593 0.0635,0.055 0.0635,0.14393 z m 2.675464,1.7526 q 0,0.22436 -0.08043,0.41486 -0.0762,0.1905 -0.2159,0.3302 -0.1397,0.1397 -0.334433,0.22014 -0.194733,0.0762 -0.427566,0.0762 -0.2286,0 -0.423333,-0.0762 -0.194733,-0.0804 -0.334433,-0.22014 -0.1397,-0.1397 -0.220134,-0.3302 -0.0762,-0.1905 -0.0762,-0.41486 0,-0.22437 0.0762,-0.41487 0.08043,-0.1905 0.220134,-0.3302 0.1397,-0.1397 0.334433,-0.2159 0.194733,-0.0804 0.423333,-0.0804 0.232833,0 0.427566,0.0804 0.194733,0.0762 0.334433,0.2159 0.1397,0.1397 0.2159,0.3302 0.08043,0.1905 0.08043,0.41487 z m -0.3048,0 q 0,-0.1651 -0.05503,-0.30904 -0.0508,-0.14816 -0.148166,-0.254 -0.09737,-0.11006 -0.237067,-0.17356 -0.1397,-0.0635 -0.313266,-0.0635 -0.173567,0 -0.313267,0.0635 -0.135466,0.0635 -0.232833,0.17356 -0.09737,0.10584 -0.1524,0.254 -0.0508,0.14394 -0.0508,0.30904 0,0.1651 0.0508,0.31326 0.05503,0.14394 0.1524,0.254 0.09737,0.10584 0.232833,0.16934 0.1397,0.0593 0.313267,0.0593 0.173566,0 0.313266,-0.0593 0.1397,-0.0635 0.237067,-0.16934 0.09737,-0.11006 0.148166,-0.254 0.05503,-0.14816 0.05503,-0.31326 z m 1.181099,-0.9906 q 0.0085,0.0804 0.0127,0.1778 0.0042,0.0974 0.0042,0.16086 h 0.0085 q 0.08467,-0.17356 0.275166,-0.27939 0.1905,-0.11007 0.402167,-0.11007 0.376766,0 0.563033,0.22437 0.190499,0.22436 0.190499,0.59266 v 1.21497 h -0.287866 v -1.09644 q 0,-0.15663 -0.0254,-0.28363 -0.0254,-0.127 -0.0889,-0.2159 -0.05927,-0.0931 -0.1651,-0.14393 -0.1016,-0.0508 -0.258233,-0.0508 -0.1143,0 -0.224366,0.0466 -0.105834,0.0466 -0.1905,0.14393 -0.08467,0.0931 -0.135467,0.2413 -0.0508,0.14393 -0.0508,0.3429 v 1.016 h -0.287866 v -1.54517 q 0,-0.0804 -0.0042,-0.20743 -0.0042,-0.127 -0.0127,-0.2286 z"
       id="text20"
       style="font-size:4.23333px;font-family:'Avenir Next';-inkscape-font-specification:'Avenir Next, Normal';stroke-width:0.264583"
       inkscape:label="position text"
       aria-label="position" />
    <path
       d="m 9.8330467,284.30618 q 0,0.22437 -0.080433,0.41487 -0.0762,0.1905 -0.2158998,0.3302 -0.1396999,0.1397 -0.3344331,0.22013 -0.1947331,0.0762 -0.4275663,0.0762 -0.2285998,0 -0.423333,-0.0762 -0.1947331,-0.0804 -0.334433,-0.22013 -0.1396999,-0.1397 -0.2201332,-0.3302 -0.0762,-0.1905 -0.0762,-0.41487 0,-0.22436 0.0762,-0.41486 0.080433,-0.1905 0.2201332,-0.3302 0.1396999,-0.1397 0.334433,-0.2159 0.1947332,-0.0804 0.423333,-0.0804 0.2328332,0 0.4275663,0.0804 0.1947332,0.0762 0.3344331,0.2159 0.1396999,0.1397 0.2158998,0.3302 0.080433,0.1905 0.080433,0.41486 z m -0.3047998,0 q 0,-0.1651 -0.055033,-0.30903 -0.0508,-0.14817 -0.1481665,-0.254 -0.097367,-0.11007 -0.2370665,-0.17357 -0.1396999,-0.0635 -0.3132664,-0.0635 -0.1735665,0 -0.3132664,0.0635 -0.1354665,0.0635 -0.2328331,0.17357 -0.097367,0.10583 -0.1523999,0.254 -0.0508,0.14393 -0.0508,0.30903 0,0.1651 0.0508,0.31327 0.055033,0.14393 0.1523999,0.254 0.097367,0.10583 0.2328331,0.16933 0.1396999,0.0593 0.3132664,0.0593 0.1735665,0 0.3132664,-0.0593 0.1396999,-0.0635 0.2370665,-0.16933 0.097367,-0.11007 0.1481665,-0.254 0.055033,-0.14817 0.055033,-0.31327 z m 2.3621981,0.9906 q -0.0085,-0.0804 -0.0127,-0.1778 -0.0042,-0.0974 -0.0042,-0.16086 h -0.0085 q -0.08467,0.17356 -0.275166,0.28363 -0.1905,0.10583 -0.402167,0.10583 -0.376766,0 -0.567266,-0.22436 -0.186266,-0.22437 -0.186266,-0.59267 v -1.21496 h 0.287866 v 1.09643 q 0,0.15663 0.0254,0.28363 0.0254,0.127 0.08467,0.22013 0.0635,0.0889 0.1651,0.1397 0.105833,0.0508 0.262466,0.0508 0.1143,0 0.220133,-0.0466 0.110067,-0.0466 0.194733,-0.1397 0.08467,-0.0974 0.135467,-0.2413 0.0508,-0.14817 0.0508,-0.34714 v -1.01599 h 0.287866 v 1.54516 q 0,0.0804 0.0042,0.20743 0.0042,0.127 0.0127,0.2286 z m 1.913463,-1.7399 h -0.5588 v 1.1557 q 0,0.11007 0.02117,0.18204 0.02117,0.072 0.05927,0.1143 0.04233,0.0381 0.09737,0.055 0.05503,0.0127 0.118533,0.0127 0.05927,0 0.122767,-0.0169 0.06773,-0.0169 0.127,-0.0466 l 0.0127,0.24977 q -0.0762,0.0296 -0.160867,0.0423 -0.08043,0.0169 -0.1778,0.0169 -0.08043,0 -0.169333,-0.0212 -0.0889,-0.0212 -0.1651,-0.0804 -0.0762,-0.0593 -0.127,-0.16086 -0.04657,-0.1016 -0.04657,-0.2667 v -1.23614 h -0.410633 v -0.24129 h 0.410633 v -0.5588 h 0.287866 v 0.5588 h 0.5588 z m 0.736597,2.7559 h -0.287867 v -2.99719 h 0.287867 v 0.34289 h 0.0127 q 0.122766,-0.19473 0.325966,-0.29209 0.207433,-0.1016 0.4191,-0.1016 0.232833,0 0.4191,0.0804 0.190499,0.0804 0.321733,0.22013 0.135466,0.1397 0.207433,0.3302 0.0762,0.1905 0.0762,0.41063 0,0.22014 -0.0762,0.41064 -0.07197,0.1905 -0.207433,0.3302 -0.131234,0.1397 -0.321733,0.22013 -0.186267,0.0804 -0.4191,0.0804 -0.211667,0 -0.4191,-0.0974 -0.2032,-0.1016 -0.325966,-0.28787 h -0.0127 z m 1.477432,-2.0066 q 0,-0.1651 -0.0508,-0.30903 -0.0508,-0.14817 -0.148167,-0.254 -0.09313,-0.11007 -0.232833,-0.17357 -0.1397,-0.0635 -0.317499,-0.0635 -0.1651,0 -0.3048,0.0635 -0.1397,0.0593 -0.2413,0.16934 -0.1016,0.10583 -0.160866,0.254 -0.05503,0.14393 -0.05503,0.31326 0,0.16934 0.05503,0.3175 0.05927,0.14394 0.160866,0.24977 0.1016,0.10583 0.2413,0.16933 0.1397,0.0593 0.3048,0.0593 0.177799,0 0.317499,-0.0593 0.1397,-0.0635 0.232833,-0.16933 0.09737,-0.11007 0.148167,-0.254 0.0508,-0.14817 0.0508,-0.31327 z m 2.362199,0.9906 q -0.0085,-0.0804 -0.0127,-0.1778 -0.0042,-0.0974 -0.0042,-0.16086 h -0.0085 q -0.08467,0.17356 -0.275166,0.28363 -0.1905,0.10583 -0.402167,0.10583 -0.376766,0 -0.567266,-0.22436 -0.186266,-0.22437 -0.186266,-0.59267 v -1.21496 h 0.287866 v 1.09643 q 0,0.15663 0.0254,0.28363 0.0254,0.127 0.08467,0.22013 0.0635,0.0889 0.1651,0.1397 0.105833,0.0508 0.262466,0.0508 0.1143,0 0.220133,-0.0466 0.110067,-0.0466 0.194733,-0.1397 0.08467,-0.0974 0.135467,-0.2413 0.0508,-0.14817 0.0508,-0.34714 v -1.01599 h 0.287866 v 1.54516 q 0,0.0804 0.0042,0.20743 0.0042,0.127 0.0127,0.2286 z m 1.913462,-1.7399 h -0.558799 v 1.1557 q 0,0.11007 0.02117,0.18204 0.02117,0.072 0.05927,0.1143 0.04233,0.0381 0.09737,0.055 0.05503,0.0127 0.118534,0.0127 0.05927,0 0.122766,-0.0169 0.06773,-0.0169 0.127,-0.0466 l 0.0127,0.24977 q -0.0762,0.0296 -0.160866,0.0423 -0.08043,0.0169 -0.1778,0.0169 -0.08043,0 -0.169334,-0.0212 -0.0889,-0.0212 -0.165099,-0.0804 -0.0762,-0.0593 -0.127,-0.16086 -0.04657,-0.1016 -0.04657,-0.2667 v -1.23614 h -0.410633 v -0.24129 h 0.410633 v -0.5588 h 0.287867 v 0.5588 h 0.558799 z"
       id="text21"
       style="font-size:4.23333px;font-family:'Avenir Next';-inkscape-font-specification:'Avenir Next, Normal';stroke-width:0.264583"
       inkscape:label="output text"
       aria-label="output" />
    <path
       d="m 45.991778,276.93751 q -0.0127,-0.2794 -0.182033,-0.46144 -0.1651,-0.18626 -0.474133,-0.18626 -0.143933,0 -0.2667,0.055 -0.122766,0.0508 -0.2159,0.14393 -0.09313,0.0889 -0.148166,0.20744 -0.05503,0.1143 -0.0635,0.2413 z m 0.2921,0.0931 q 0,0.0296 0,0.0635 0,0.0339 -0.0042,0.072 h -1.642532 q 0.0042,0.14816 0.05927,0.2794 0.05503,0.13123 0.1524,0.2286 0.09737,0.0974 0.2286,0.15663 0.131233,0.055 0.283633,0.055 0.224366,0 0.385233,-0.1016 0.1651,-0.10583 0.249766,-0.2413 l 0.2159,0.16934 q -0.1778,0.22436 -0.393699,0.32173 -0.211667,0.0974 -0.4572,0.0974 -0.220133,0 -0.410633,-0.0762 -0.186267,-0.0804 -0.321733,-0.22014 -0.135467,-0.1397 -0.2159,-0.3302 -0.0762,-0.1905 -0.0762,-0.41486 0,-0.22437 0.0762,-0.41487 0.0762,-0.1905 0.211667,-0.3302 0.135466,-0.1397 0.317499,-0.2159 0.182033,-0.0804 0.3937,-0.0804 0.232833,0 0.410633,0.0804 0.1778,0.0762 0.296333,0.21167 0.118533,0.13123 0.1778,0.30903 0.0635,0.1778 0.0635,0.381 z m 0.876301,-0.93133 q 0.0085,0.0804 0.0127,0.1778 0.0042,0.0974 0.0042,0.16086 h 0.0085 q 0.08467,-0.17356 0.275167,-0.2794 0.1905,-0.11006 0.402166,-0.11006 0.376766,0 0.563033,0.22436 0.1905,0.22437 0.1905,0.59267 v 1.21497 h -0.287867 v -1.09644 q 0,-0.15663 -0.0254,-0.28363 -0.0254,-0.127 -0.0889,-0.2159 -0.05927,-0.0931 -0.165099,-0.14393 -0.1016,-0.0508 -0.258234,-0.0508 -0.114299,0 -0.224366,0.0466 -0.105833,0.0466 -0.1905,0.14394 -0.08467,0.0931 -0.135466,0.2413 -0.0508,0.14393 -0.0508,0.3429 v 1.016 h -0.287867 v -1.54517 q 0,-0.0804 -0.0042,-0.20743 -0.0042,-0.127 -0.0127,-0.2286 z m 3.014129,1.9812 h -0.3175 l -0.808566,-1.9812 h 0.321733 l 0.643466,1.6764 h 0.0085 l 0.647699,-1.6764 h 0.309033 z m 1.447801,-0.2032 q 0,0.0889 -0.0635,0.16086 -0.0635,0.0677 -0.1651,0.0677 -0.1016,0 -0.1651,-0.0677 -0.0635,-0.072 -0.0635,-0.16086 0,-0.0889 0.0635,-0.15664 0.0635,-0.072 0.1651,-0.072 0.1016,0 0.1651,0.072 0.0635,0.0677 0.0635,0.15664 z m 2.688162,-1.3081 q -0.0635,-0.12277 -0.194733,-0.19897 -0.127,-0.0804 -0.2921,-0.0804 -0.0762,0 -0.152399,0.0169 -0.0762,0.0169 -0.135467,0.055 -0.05927,0.0381 -0.09737,0.0974 -0.03387,0.0593 -0.03387,0.1397 0,0.1397 0.1143,0.2159 0.1143,0.072 0.359833,0.12277 0.351366,0.072 0.516466,0.21166 0.169333,0.13547 0.169333,0.3683 0,0.16934 -0.06773,0.28787 -0.0635,0.1143 -0.169333,0.1905 -0.105834,0.072 -0.2413,0.1016 -0.131233,0.0339 -0.2667,0.0339 -0.224366,0 -0.436033,-0.0931 -0.211666,-0.0931 -0.347133,-0.2921 l 0.2286,-0.16933 q 0.0762,0.13123 0.224366,0.22013 0.148167,0.0889 0.325967,0.0889 0.09313,0 0.1778,-0.0169 0.08467,-0.0169 0.148166,-0.0593 0.0635,-0.0423 0.1016,-0.10583 0.0381,-0.0677 0.0381,-0.1651 0,-0.15663 -0.1524,-0.23283 -0.148166,-0.0804 -0.431799,-0.14817 -0.0889,-0.0212 -0.1905,-0.0508 -0.09737,-0.0339 -0.182033,-0.0931 -0.08467,-0.0635 -0.1397,-0.15664 -0.05503,-0.0931 -0.05503,-0.23283 0,-0.1524 0.05927,-0.25823 0.05927,-0.11007 0.156633,-0.1778 0.1016,-0.072 0.2286,-0.10584 0.127,-0.0339 0.262466,-0.0339 0.207434,0 0.402167,0.0931 0.194733,0.0931 0.2921,0.26247 z m 1.130301,-0.14394 q 0.08043,-0.17356 0.266699,-0.27516 0.186267,-0.1016 0.397933,-0.1016 0.376767,0 0.563033,0.22436 0.1905,0.22437 0.1905,0.59267 v 1.21497 h -0.287866 v -1.09644 q 0,-0.15663 -0.0254,-0.28363 -0.0254,-0.127 -0.0889,-0.2159 -0.05927,-0.0931 -0.1651,-0.14393 -0.1016,-0.0508 -0.258233,-0.0508 -0.1143,0 -0.224367,0.0466 -0.105833,0.0466 -0.1905,0.14394 -0.08467,0.0931 -0.135466,0.2413 -0.0508,0.14393 -0.0508,0.3429 v 1.016 h -0.287866 v -3.2004 h 0.287866 v 1.54516 z m 3.412064,0.37677 q 0,-0.25823 -0.135467,-0.38523 -0.135466,-0.127 -0.393699,-0.127 -0.1778,0 -0.3302,0.0635 -0.1524,0.0635 -0.258233,0.16933 l -0.160867,-0.1905 q 0.122767,-0.12277 0.321734,-0.2032 0.203199,-0.0804 0.457199,-0.0804 0.160867,0 0.300567,0.0466 0.139699,0.0423 0.245533,0.13124 0.105833,0.0889 0.1651,0.22436 0.05927,0.13547 0.05927,0.3175 v 0.86784 q 0,0.1143 0.0085,0.23706 0.0085,0.12277 0.0254,0.20744 h -0.258233 q -0.0127,-0.072 -0.02117,-0.15664 -0.0085,-0.0847 -0.0085,-0.1651 h -0.0085 q -0.135467,0.19897 -0.309033,0.28787 -0.169334,0.0847 -0.410633,0.0847 -0.1143,0 -0.237067,-0.0339 -0.118533,-0.0296 -0.220133,-0.1016 -0.09737,-0.072 -0.1651,-0.18627 -0.0635,-0.1143 -0.0635,-0.2794 0,-0.2286 0.1143,-0.35983 0.118533,-0.13547 0.313267,-0.19897 0.194733,-0.0677 0.444499,-0.0847 0.254,-0.0212 0.524933,-0.0212 z m -0.08467,0.28787 q -0.177799,0 -0.359833,0.0169 -0.177799,0.0127 -0.325966,0.0593 -0.143933,0.0423 -0.237066,0.127 -0.09313,0.0847 -0.09313,0.22436 0,0.10584 0.0381,0.1778 0.04233,0.072 0.110067,0.11854 0.06773,0.0423 0.148166,0.0635 0.08467,0.0169 0.169334,0.0169 0.152399,0 0.270933,-0.0508 0.118533,-0.055 0.198966,-0.14393 0.08043,-0.0931 0.122767,-0.21167 0.04233,-0.11853 0.04233,-0.24977 v -0.14816 z m 1.384301,2.00659 h -0.287866 v -2.99719 h 0.287866 v 0.3429 h 0.0127 q 0.122767,-0.19474 0.325967,-0.2921 0.207433,-0.1016 0.419099,-0.1016 0.232833,0 0.4191,0.0804 0.1905,0.0804 0.321733,0.22013 0.135467,0.1397 0.207433,0.3302 0.0762,0.1905 0.0762,0.41064 0,0.22013 -0.0762,0.41063 -0.07197,0.1905 -0.207433,0.3302 -0.131233,0.1397 -0.321733,0.22013 -0.186267,0.0804 -0.4191,0.0804 -0.211666,0 -0.419099,-0.0974 -0.2032,-0.1016 -0.325967,-0.28787 h -0.0127 z m 1.477432,-2.00659 q 0,-0.1651 -0.0508,-0.30904 -0.0508,-0.14816 -0.148166,-0.254 -0.09313,-0.11006 -0.232833,-0.17356 -0.1397,-0.0635 -0.3175,-0.0635 -0.1651,0 -0.3048,0.0635 -0.1397,0.0593 -0.2413,0.16933 -0.101599,0.10583 -0.160866,0.254 -0.05503,0.14393 -0.05503,0.31327 0,0.16933 0.05503,0.3175 0.05927,0.14393 0.160866,0.24976 0.1016,0.10584 0.2413,0.16934 0.1397,0.0593 0.3048,0.0593 0.1778,0 0.3175,-0.0593 0.1397,-0.0635 0.232833,-0.16934 0.09737,-0.11006 0.148166,-0.254 0.0508,-0.14816 0.0508,-0.31326 z m 2.434166,-0.1524 q -0.0127,-0.2794 -0.182033,-0.46144 -0.1651,-0.18626 -0.474133,-0.18626 -0.143933,0 -0.2667,0.055 -0.122766,0.0508 -0.215899,0.14393 -0.09313,0.0889 -0.148167,0.20744 -0.05503,0.1143 -0.0635,0.2413 z m 0.2921,0.0931 q 0,0.0296 0,0.0635 0,0.0339 -0.0042,0.072 h -1.642532 q 0.0042,0.14816 0.05927,0.2794 0.05503,0.13123 0.1524,0.2286 0.09737,0.0974 0.2286,0.15663 0.131233,0.055 0.283633,0.055 0.224367,0 0.385233,-0.1016 0.1651,-0.10583 0.249767,-0.2413 l 0.215899,0.16934 q -0.177799,0.22436 -0.393699,0.32173 -0.211667,0.0974 -0.4572,0.0974 -0.220133,0 -0.410633,-0.0762 -0.186266,-0.0804 -0.321733,-0.22014 -0.135467,-0.1397 -0.2159,-0.3302 -0.0762,-0.1905 -0.0762,-0.41486 0,-0.22437 0.0762,-0.41487 0.0762,-0.1905 0.211667,-0.3302 0.135466,-0.1397 0.317499,-0.2159 0.182034,-0.0804 0.3937,-0.0804 0.232833,0 0.410633,0.0804 0.1778,0.0762 0.296333,0.21167 0.118533,0.13123 0.1778,0.30903 0.0635,0.1778 0.0635,0.381 z"
       id="text22"
       style="font-size:4.23333px;font-family:'Avenir Next';-inkscape-font-specification:'Avenir Next, Normal';stroke-width:0.264583"
       inkscape:label="random text"
       aria-label="env. shape" />
    <path
       d="m 68.534732,276.53534 q 0,-0.0804 -0.0042,-0.20743 -0.0042,-0.127 -0.0127,-0.2286 h 0.275166 q 0.0085,0.0804 0.0127,0.1778 0.0042,0.0974 0.0042,0.16086 h 0.0085 q 0.08467,-0.17356 0.254,-0.2794 0.169333,-0.11006 0.381,-0.11006 0.05503,0 0.09737,0.004 0.04657,0.004 0.09313,0.0169 l -0.0381,0.27094 q -0.0254,-0.008 -0.08467,-0.0169 -0.05927,-0.008 -0.118533,-0.008 -0.1143,0 -0.220134,0.0423 -0.105833,0.0423 -0.186266,0.13547 -0.0762,0.0889 -0.127,0.23283 -0.04657,0.1397 -0.04657,0.33867 v 1.016 h -0.287866 v -1.54517 z m 2.722037,0.2667 q 0,-0.25823 -0.135466,-0.38523 -0.135467,-0.127 -0.3937,-0.127 -0.1778,0 -0.3302,0.0635 -0.1524,0.0635 -0.258233,0.16933 l -0.160866,-0.1905 q 0.122766,-0.12277 0.321733,-0.2032 0.2032,-0.0804 0.457199,-0.0804 0.160867,0 0.300567,0.0466 0.1397,0.0423 0.245533,0.13124 0.105833,0.0889 0.1651,0.22436 0.05927,0.13547 0.05927,0.3175 v 0.86784 q 0,0.1143 0.0085,0.23706 0.0085,0.12277 0.0254,0.20744 h -0.258233 q -0.0127,-0.072 -0.02117,-0.15664 -0.0085,-0.0847 -0.0085,-0.1651 h -0.0085 q -0.135467,0.19897 -0.309033,0.28787 -0.169333,0.0847 -0.410633,0.0847 -0.1143,0 -0.237067,-0.0339 -0.118533,-0.0296 -0.220133,-0.1016 -0.09737,-0.072 -0.1651,-0.18627 -0.0635,-0.1143 -0.0635,-0.2794 0,-0.2286 0.1143,-0.35983 0.118534,-0.13547 0.313267,-0.19897 0.194733,-0.0677 0.444499,-0.0847 0.254,-0.0212 0.524933,-0.0212 z m -0.08467,0.28787 q -0.1778,0 -0.359833,0.0169 -0.1778,0.0127 -0.325967,0.0593 -0.143933,0.0423 -0.237066,0.127 -0.09313,0.0847 -0.09313,0.22436 0,0.10584 0.0381,0.1778 0.04233,0.072 0.110067,0.11854 0.06773,0.0423 0.148167,0.0635 0.08467,0.0169 0.169333,0.0169 0.1524,0 0.270933,-0.0508 0.118533,-0.055 0.198966,-0.14393 0.08043,-0.0931 0.122767,-0.21167 0.04233,-0.11853 0.04233,-0.24977 v -0.14816 z m 1.354667,-0.9906 q 0.0085,0.0804 0.0127,0.1778 0.0042,0.0974 0.0042,0.16086 h 0.0085 q 0.08467,-0.17356 0.275166,-0.2794 0.1905,-0.11006 0.402167,-0.11006 0.376766,0 0.563032,0.22436 0.1905,0.22437 0.1905,0.59267 v 1.21497 h -0.287866 v -1.09644 q 0,-0.15663 -0.0254,-0.28363 -0.0254,-0.127 -0.0889,-0.2159 -0.05927,-0.0931 -0.1651,-0.14393 -0.1016,-0.0508 -0.258233,-0.0508 -0.1143,0 -0.224367,0.0466 -0.105833,0.0466 -0.190499,0.14394 -0.08467,0.0931 -0.135467,0.2413 -0.0508,0.14393 -0.0508,0.3429 v 1.016 h -0.287866 v -1.54517 q 0,-0.0804 -0.0042,-0.20743 -0.0042,-0.127 -0.0127,-0.2286 z m 3.831161,1.64676 q -0.127,0.1905 -0.3302,0.28787 -0.2032,0.0974 -0.419099,0.0974 -0.232834,0 -0.423333,-0.0804 -0.186267,-0.0804 -0.321733,-0.22013 -0.131234,-0.1397 -0.207434,-0.3302 -0.07197,-0.1905 -0.07197,-0.41063 0,-0.22014 0.07197,-0.41064 0.0762,-0.1905 0.207434,-0.3302 0.135466,-0.1397 0.321733,-0.22013 0.190499,-0.0804 0.423333,-0.0804 0.215899,0 0.419099,0.1016 0.2032,0.0974 0.3302,0.2921 h 0.0085 v -1.5621 h 0.287866 v 3.2004 h -0.287866 v -0.33444 z m -1.468965,-0.65616 q 0,0.1651 0.0508,0.31326 0.0508,0.14394 0.143934,0.254 0.09737,0.10584 0.237066,0.16934 0.1397,0.0593 0.3175,0.0593 0.1651,0 0.3048,-0.0593 0.1397,-0.0635 0.241299,-0.16934 0.1016,-0.10583 0.156634,-0.24976 0.05927,-0.14817 0.05927,-0.3175 0,-0.16934 -0.05927,-0.31327 -0.05503,-0.14817 -0.156634,-0.254 -0.101599,-0.11007 -0.241299,-0.16933 -0.1397,-0.0635 -0.3048,-0.0635 -0.1778,0 -0.3175,0.0635 -0.1397,0.0635 -0.237066,0.17356 -0.09313,0.10584 -0.143934,0.254 -0.0508,0.14394 -0.0508,0.30904 z m 4.504259,0 q 0,0.22436 -0.08043,0.41486 -0.0762,0.1905 -0.2159,0.3302 -0.1397,0.1397 -0.334433,0.22014 -0.194733,0.0762 -0.427566,0.0762 -0.2286,0 -0.423333,-0.0762 -0.194734,-0.0804 -0.334434,-0.22014 -0.139699,-0.1397 -0.220133,-0.3302 -0.0762,-0.1905 -0.0762,-0.41486 0,-0.22437 0.0762,-0.41487 0.08043,-0.1905 0.220133,-0.3302 0.1397,-0.1397 0.334434,-0.2159 0.194733,-0.0804 0.423333,-0.0804 0.232833,0 0.427566,0.0804 0.194733,0.0762 0.334433,0.2159 0.1397,0.1397 0.2159,0.3302 0.08043,0.1905 0.08043,0.41487 z m -0.3048,0 q 0,-0.1651 -0.05503,-0.30904 -0.0508,-0.14816 -0.148167,-0.254 -0.09737,-0.11006 -0.237066,-0.17356 -0.1397,-0.0635 -0.313266,-0.0635 -0.173567,0 -0.313267,0.0635 -0.135466,0.0635 -0.232833,0.17356 -0.09737,0.10584 -0.1524,0.254 -0.0508,0.14394 -0.0508,0.30904 0,0.1651 0.0508,0.31326 0.05503,0.14394 0.1524,0.254 0.09737,0.10584 0.232833,0.16934 0.1397,0.0593 0.313267,0.0593 0.173566,0 0.313266,-0.0593 0.1397,-0.0635 0.237066,-0.16934 0.09737,-0.11006 0.148167,-0.254 0.05503,-0.14816 0.05503,-0.31326 z m 1.206499,-0.65194 q 0.08467,-0.17356 0.258233,-0.2794 0.1778,-0.11006 0.3937,-0.11006 0.08043,0 0.165099,0.0169 0.0889,0.0169 0.169334,0.0677 0.08467,0.0466 0.152399,0.127 0.07197,0.0804 0.122767,0.20744 0.1016,-0.2032 0.275166,-0.30904 0.1778,-0.11006 0.4191,-0.11006 0.376766,0 0.563033,0.22436 0.1905,0.22437 0.1905,0.59267 v 1.21497 h -0.287867 v -1.09644 q 0,-0.31326 -0.118533,-0.50376 -0.1143,-0.1905 -0.3937,-0.1905 -0.156633,0 -0.266699,0.0635 -0.105834,0.0635 -0.173567,0.16933 -0.0635,0.1016 -0.09313,0.23283 -0.02963,0.13124 -0.02963,0.27094 v 1.0541 h -0.287867 v -1.1557 q 0,-0.14394 -0.02117,-0.26247 -0.02117,-0.11853 -0.0762,-0.19897 -0.0508,-0.0847 -0.143934,-0.127 -0.09313,-0.0466 -0.237066,-0.0466 -0.1016,0 -0.207433,0.0466 -0.1016,0.0466 -0.186267,0.14394 -0.08043,0.0931 -0.131233,0.2413 -0.0508,0.14393 -0.0508,0.3429 v 1.016 h -0.287866 v -1.54517 q 0,-0.0804 -0.0042,-0.20743 -0.0042,-0.127 -0.0127,-0.2286 h 0.275167 q 0.0085,0.0804 0.0127,0.1778 0.0042,0.0974 0.0042,0.16086 h 0.0085 z"
       id="text23"
       style="font-size:4.23333px;font-family:'Avenir Next';-inkscape-font-specification:'Avenir Next, Normal';stroke-width:0.264583"
       inkscape:label="env shape text"
       aria-label="random" />
  </g>
  <g
     inkscape:groupmode="layer"
     id="layer3"
     inkscape:label="Layer 2" />
  <g
     inkscape:groupmode="layer"
     id="layer2"
     inkscape:label="components">
    <circle
       style="display:inline;opacity:1;vector-effect:none;fill:#ff0000;fill-opacity:1;fill-rule:evenodd;stroke:none;stroke-width:1;stroke-linecap:butt;stroke-linejoin:miter;stroke-miterlimit:4;stroke-dasharray:none;stroke-dashoffset:0;stroke-opacity:1;paint-order:normal"
       id="path4954"
       cx="15.24"
       cy="46.063263"
       r="4"
       inkscape:label="position" />
    <circle
       r="4"
       cy="77.477875"
       cx="15.24"
       id="circle4956"
       style="display:inline;opacity:1;vector-effect:none;fill:#00ff00;fill-opacity:1;fill-rule:evenodd;stroke:none;stroke-width:1;stroke-linecap:butt;stroke-linejoin:miter;stroke-miterlimit:4;stroke-dasharray:none;stroke-dashoffset:0;stroke-opacity:1;paint-order:normal"
       inkscape:label="pitch" />
    <circle
       style="display:inline;opacity:1;vector-effect:none;fill:#0000ff;fill-opacity:1;fill-rule:evenodd;stroke:none;stroke-width:1;stroke-linecap:butt;stroke-linejoin:miter;stroke-miterlimit:4;stroke-dasharray:none;stroke-dashoffset:0;stroke-opacity:1;paint-order:normal"
       id="circle4958"
       cx="15.24"
       cy="108.71259"
       r="4"
       inkscape:label="sine" />
    <circle
       inkscape:label="blink"
       r="2"
       cy="30.224339"
       cx="15.24"
       id="circle66"
       style="display:inline;opacity:1;vector-effect:none;fill:#ff00ff;fill-opacity:1;fill-rule:evenodd;stroke:none;stroke-width:0.5;stroke-linecap:butt;stroke-linejoin:miter;stroke-miterlimit:4;stroke-dasharray:none;stroke-dashoffset:0;stroke-opacity:1;paint-order:normal" />
    <rect
       style="fill:#ffff00;stroke-width:0.264583"
       id="rect2"
       width="41.159508"
       height="24.856066"
       x="43.56493"
       y="51.048477"
       inkscape:label="oscillator" />
    <circle
       style="display:inline;opacity:1;vector-effect:none;fill:#ff0000;fill-opacity:1;fill-rule:evenodd;stroke:none;stroke-width:1;stroke-linecap:butt;stroke-linejoin:miter;stroke-miterlimit:4;stroke-dasharray:none;stroke-dashoffset:0;stroke-opacity:1;paint-order:normal"
       id="circle2"
       cx="74.326721"
       cy="84.015533"
       r="4"
       inkscape:label="density" />
    <circle
       style="display:inline;opacity:1;vector-effect:none;fill:#ff0000;fill-opacity:1;fill-rule:evenodd;stroke:none;stroke-width:1;stroke-linecap:butt;stroke-linejoin:miter;stroke-miterlimit:4;stroke-dasharray:none;stroke-dashoffset:0;stroke-opacity:1;paint-order:normal"
       id="circle1"
       cx="54.27747"
       cy="84.015526"
       r="4"
       inkscape:label="size" />
    <circle
       style="display:inline;opacity:1;vector-effect:none;fill:#ff0000;fill-opacity:1;fill-rule:evenodd;stroke:none;stroke-width:1;stroke-linecap:butt;stroke-linejoin:miter;stroke-miterlimit:4;stroke-dasharray:none;stroke-dashoffset:0;stroke-opacity:1;paint-order:normal"
       id="circle11"
       cx="53.746967"
       cy="100.58624"
       r="4"
       inkscape:label="random" />
    <circle
       style="display:inline;opacity:1;vector-effect:none;fill:#ff0000;fill-opacity:1;fill-rule:evenodd;stroke:none;stroke-width:1;stroke-linecap:butt;stroke-linejoin:miter;stroke-miterlimit:4;stroke-dasharray:none;stroke-dashoffset:0;stroke-opacity:1;paint-order:normal"
       id="circle16"
       cx="74.861259"
       cy="100.58624"
       r="4"
       inkscape:label="env_shape" />
  </g>
</svg>
